%FSLAX34Y34*%
%MOMM*%
%LNSILK_TOP*%
G71*
G01*
%ADD10C, 0.20*%
%ADD11C, 0.19*%
%ADD12C, 0.10*%
%ADD13C, 0.09*%
%ADD14C, 0.11*%
%ADD15C, 0.22*%
%ADD16C, 0.17*%
%LPD*%
G54D10*
X165100Y876300D02*
X342900Y876300D01*
X342900Y495300D01*
X165100Y495300D01*
X165100Y876300D01*
G54D11*
X349007Y869499D02*
X353007Y858832D01*
X357007Y869499D01*
G54D11*
X360740Y858832D02*
X367140Y858832D01*
G54D11*
X363940Y858832D02*
X363940Y869499D01*
G54D11*
X360740Y869499D02*
X367140Y869499D01*
G54D11*
X370873Y858832D02*
X370873Y869499D01*
X377273Y858832D01*
X377273Y869499D01*
G54D11*
X352207Y838511D02*
X355407Y838511D01*
X355407Y835178D01*
X354607Y833845D01*
X353007Y833178D01*
X351407Y833178D01*
X349807Y833845D01*
X349007Y835178D01*
X349007Y841845D01*
X349807Y843178D01*
X351407Y843845D01*
X353007Y843845D01*
X354607Y843178D01*
X355407Y841845D01*
G54D11*
X359140Y833178D02*
X359140Y843845D01*
X365540Y833178D01*
X365540Y843845D01*
G54D11*
X369273Y833178D02*
X369273Y843845D01*
X373273Y843845D01*
X374873Y843178D01*
X375673Y841845D01*
X375673Y835178D01*
X374873Y833845D01*
X373273Y833178D01*
X369273Y833178D01*
G54D11*
X350557Y813495D02*
X352957Y812162D01*
X353757Y810829D01*
X353757Y808162D01*
G54D11*
X347357Y808162D02*
X347357Y818829D01*
X351357Y818829D01*
X352957Y818162D01*
X353757Y816829D01*
X353757Y815495D01*
X352957Y814162D01*
X351357Y813495D01*
X347357Y813495D01*
G54D11*
X357490Y810162D02*
X358290Y808829D01*
X359890Y808162D01*
X361490Y808162D01*
X363090Y808829D01*
X363890Y810162D01*
X363890Y811495D01*
X363090Y812829D01*
X361490Y813495D01*
X359890Y813495D01*
X358290Y814162D01*
X357490Y815495D01*
X357490Y816829D01*
X358290Y818162D01*
X359890Y818829D01*
X361490Y818829D01*
X363090Y818162D01*
X363890Y816829D01*
G54D11*
X370823Y808162D02*
X370823Y818829D01*
G54D11*
X367623Y818829D02*
X374023Y818829D01*
G54D11*
X356454Y793583D02*
X350054Y793583D01*
X350054Y788916D01*
X350854Y788916D01*
X352454Y789583D01*
X354054Y789583D01*
X355654Y788916D01*
X356454Y787583D01*
X356454Y784916D01*
X355654Y783583D01*
X354054Y782916D01*
X352454Y782916D01*
X350854Y783583D01*
X350054Y784916D01*
G54D11*
X360187Y793583D02*
X364187Y782916D01*
X368187Y793583D01*
G54D11*
X347960Y757785D02*
X351960Y768452D01*
X355960Y757785D01*
G54D11*
X349560Y761785D02*
X354360Y761785D01*
G54D11*
X359693Y768452D02*
X366093Y768452D01*
X365293Y767118D01*
X363693Y765118D01*
X362093Y762452D01*
X361293Y760452D01*
X361293Y757785D01*
G54D11*
X347436Y732130D02*
X351436Y742797D01*
X355436Y732130D01*
G54D11*
X349036Y736130D02*
X353836Y736130D01*
G54D11*
X365569Y740797D02*
X364769Y742130D01*
X363169Y742797D01*
X361569Y742797D01*
X359969Y742130D01*
X359169Y740797D01*
X359169Y737463D01*
X359169Y736797D01*
X361569Y738130D01*
X363169Y738130D01*
X364769Y737463D01*
X365569Y736130D01*
X365569Y734130D01*
X364769Y732797D01*
X363169Y732130D01*
X361569Y732130D01*
X359969Y732797D01*
X359169Y734130D01*
X359169Y737463D01*
G54D11*
X346389Y706476D02*
X350389Y717143D01*
X354389Y706476D01*
G54D11*
X347989Y710476D02*
X352789Y710476D01*
G54D11*
X364522Y717143D02*
X358122Y717143D01*
X358122Y712476D01*
X358922Y712476D01*
X360522Y713143D01*
X362122Y713143D01*
X363722Y712476D01*
X364522Y711143D01*
X364522Y708476D01*
X363722Y707143D01*
X362122Y706476D01*
X360522Y706476D01*
X358922Y707143D01*
X358122Y708476D01*
G54D11*
X346389Y681869D02*
X350389Y692536D01*
X354389Y681869D01*
G54D11*
X347989Y685869D02*
X352789Y685869D01*
G54D11*
X362922Y681869D02*
X362922Y692536D01*
X358122Y685869D01*
X358122Y684536D01*
X364522Y684536D01*
G54D11*
X346913Y657261D02*
X350913Y667928D01*
X354913Y657261D01*
G54D11*
X348513Y661261D02*
X353313Y661261D01*
G54D11*
X358646Y665928D02*
X359446Y667261D01*
X361046Y667928D01*
X362646Y667928D01*
X364246Y667261D01*
X365046Y665928D01*
X365046Y664594D01*
X364246Y663261D01*
X362646Y662594D01*
X364246Y661928D01*
X365046Y660594D01*
X365046Y659261D01*
X364246Y657928D01*
X362646Y657261D01*
X361046Y657261D01*
X359446Y657928D01*
X358646Y659261D01*
G54D11*
X346389Y631607D02*
X350389Y642274D01*
X354389Y631607D01*
G54D11*
X347989Y635607D02*
X352789Y635607D01*
G54D11*
X364522Y631607D02*
X358122Y631607D01*
X358122Y632274D01*
X358922Y633607D01*
X363722Y637607D01*
X364522Y638940D01*
X364522Y640274D01*
X363722Y641607D01*
X362122Y642274D01*
X360522Y642274D01*
X358922Y641607D01*
X358122Y640274D01*
G54D11*
X347436Y607523D02*
X351436Y618190D01*
X355436Y607523D01*
G54D11*
X349036Y611523D02*
X353836Y611523D01*
G54D11*
X359169Y614190D02*
X363169Y618190D01*
X363169Y607523D01*
G54D11*
X346389Y580298D02*
X350389Y590965D01*
X354389Y580298D01*
G54D11*
X347989Y584298D02*
X352789Y584298D01*
G54D11*
X364522Y588965D02*
X364522Y582298D01*
X363722Y580965D01*
X362122Y580298D01*
X360522Y580298D01*
X358922Y580965D01*
X358122Y582298D01*
X358122Y588965D01*
X358922Y590298D01*
X360522Y590965D01*
X362122Y590965D01*
X363722Y590298D01*
X364522Y588965D01*
G54D11*
X351160Y559453D02*
X353560Y558120D01*
X354360Y556787D01*
X354360Y554120D01*
G54D11*
X347960Y554120D02*
X347960Y564787D01*
X351960Y564787D01*
X353560Y564120D01*
X354360Y562787D01*
X354360Y561453D01*
X353560Y560120D01*
X351960Y559453D01*
X347960Y559453D01*
G54D11*
X363693Y554120D02*
X358093Y554120D01*
X358093Y564787D01*
X363693Y564787D01*
G54D11*
X358093Y559453D02*
X363693Y559453D01*
G54D11*
X367426Y554120D02*
X367426Y564787D01*
X373026Y564787D01*
G54D11*
X367426Y559453D02*
X373026Y559453D01*
G54D11*
X346913Y538180D02*
X347713Y539513D01*
X349313Y540180D01*
X350913Y540180D01*
X352513Y539513D01*
X353313Y538180D01*
X353313Y536846D01*
X352513Y535513D01*
X350913Y534846D01*
X352513Y534180D01*
X353313Y532846D01*
X353313Y531513D01*
X352513Y530180D01*
X350913Y529513D01*
X349313Y529513D01*
X347713Y530180D01*
X346913Y531513D01*
G54D11*
X357046Y540180D02*
X361046Y529513D01*
X365046Y540180D01*
G54D11*
X368779Y538180D02*
X369579Y539513D01*
X371179Y540180D01*
X372779Y540180D01*
X374379Y539513D01*
X375179Y538180D01*
X375179Y536846D01*
X374379Y535513D01*
X372779Y534846D01*
X374379Y534180D01*
X375179Y532846D01*
X375179Y531513D01*
X374379Y530180D01*
X372779Y529513D01*
X371179Y529513D01*
X369579Y530180D01*
X368779Y531513D01*
G54D11*
X347960Y504382D02*
X347960Y515049D01*
X351960Y515049D01*
X353560Y514382D01*
X354360Y513049D01*
X354360Y506382D01*
X353560Y505049D01*
X351960Y504382D01*
X347960Y504382D01*
G54D11*
X358093Y511049D02*
X362093Y515049D01*
X362093Y504382D01*
G54D11*
X365826Y513049D02*
X366626Y514382D01*
X368226Y515049D01*
X369826Y515049D01*
X371426Y514382D01*
X372226Y513049D01*
X372226Y511715D01*
X371426Y510382D01*
X369826Y509715D01*
X371426Y509049D01*
X372226Y507715D01*
X372226Y506382D01*
X371426Y505049D01*
X369826Y504382D01*
X368226Y504382D01*
X366626Y505049D01*
X365826Y506382D01*
G54D11*
X134406Y860402D02*
X134406Y871069D01*
G54D11*
X131206Y871069D02*
X137606Y871069D01*
G54D11*
X141339Y871069D02*
X149339Y860402D01*
G54D11*
X141339Y860402D02*
X149339Y871069D01*
G54D11*
X153072Y867069D02*
X157072Y871069D01*
X157072Y860402D01*
G54D11*
X133882Y839557D02*
X136282Y838224D01*
X137082Y836891D01*
X137082Y834224D01*
G54D11*
X130682Y834224D02*
X130682Y844891D01*
X134682Y844891D01*
X136282Y844224D01*
X137082Y842891D01*
X137082Y841557D01*
X136282Y840224D01*
X134682Y839557D01*
X130682Y839557D01*
G54D11*
X140815Y844891D02*
X148815Y834224D01*
G54D11*
X140815Y834224D02*
X148815Y844891D01*
G54D11*
X158948Y842891D02*
X158948Y836224D01*
X158148Y834891D01*
X156548Y834224D01*
X154948Y834224D01*
X153348Y834891D01*
X152548Y836224D01*
X152548Y842891D01*
X153348Y844224D01*
X154948Y844891D01*
X156548Y844891D01*
X158148Y844224D01*
X158948Y842891D01*
G54D11*
X135453Y811808D02*
X137853Y810475D01*
X138653Y809142D01*
X138653Y806475D01*
G54D11*
X132253Y806475D02*
X132253Y817142D01*
X136253Y817142D01*
X137853Y816475D01*
X138653Y815142D01*
X138653Y813808D01*
X137853Y812475D01*
X136253Y811808D01*
X132253Y811808D01*
G54D11*
X142386Y808475D02*
X143186Y807142D01*
X144786Y806475D01*
X146386Y806475D01*
X147986Y807142D01*
X148786Y808475D01*
X148786Y809808D01*
X147986Y811142D01*
X146386Y811808D01*
X144786Y811808D01*
X143186Y812475D01*
X142386Y813808D01*
X142386Y815142D01*
X143186Y816475D01*
X144786Y817142D01*
X146386Y817142D01*
X147986Y816475D01*
X148786Y815142D01*
G54D11*
X155719Y806475D02*
X155719Y817142D01*
G54D11*
X152519Y817142D02*
X158919Y817142D01*
G54D11*
X136500Y788772D02*
X139700Y788772D01*
X139700Y785439D01*
X138900Y784106D01*
X137300Y783439D01*
X135700Y783439D01*
X134100Y784106D01*
X133300Y785439D01*
X133300Y792106D01*
X134100Y793439D01*
X135700Y794106D01*
X137300Y794106D01*
X138900Y793439D01*
X139700Y792106D01*
G54D11*
X143433Y783439D02*
X143433Y794106D01*
X149833Y783439D01*
X149833Y794106D01*
G54D11*
X153566Y783439D02*
X153566Y794106D01*
X157566Y794106D01*
X159166Y793439D01*
X159966Y792106D01*
X159966Y785439D01*
X159166Y784106D01*
X157566Y783439D01*
X153566Y783439D01*
G54D11*
X139583Y756737D02*
X139583Y767404D01*
X143583Y767404D01*
X145183Y766737D01*
X145983Y765404D01*
X145983Y758737D01*
X145183Y757404D01*
X143583Y756737D01*
X139583Y756737D01*
G54D11*
X156116Y756737D02*
X149716Y756737D01*
X149716Y757404D01*
X150516Y758737D01*
X155316Y762737D01*
X156116Y764070D01*
X156116Y765404D01*
X155316Y766737D01*
X153716Y767404D01*
X152116Y767404D01*
X150516Y766737D01*
X149716Y765404D01*
G54D11*
X139700Y730250D02*
X139700Y740917D01*
X143700Y740917D01*
X145300Y740250D01*
X146100Y738917D01*
X146100Y732250D01*
X145300Y730917D01*
X143700Y730250D01*
X139700Y730250D01*
G54D11*
X149833Y738917D02*
X150633Y740250D01*
X152233Y740917D01*
X153833Y740917D01*
X155433Y740250D01*
X156233Y738917D01*
X156233Y737583D01*
X155433Y736250D01*
X153833Y735583D01*
X155433Y734917D01*
X156233Y733583D01*
X156233Y732250D01*
X155433Y730917D01*
X153833Y730250D01*
X152233Y730250D01*
X150633Y730917D01*
X149833Y732250D01*
G54D11*
X139583Y706999D02*
X139583Y717666D01*
X143583Y717666D01*
X145183Y716999D01*
X145983Y715666D01*
X145983Y708999D01*
X145183Y707666D01*
X143583Y706999D01*
X139583Y706999D01*
G54D11*
X154516Y706999D02*
X154516Y717666D01*
X149716Y710999D01*
X149716Y709666D01*
X156116Y709666D01*
G54D11*
X139059Y683439D02*
X139059Y694106D01*
X143059Y694106D01*
X144659Y693439D01*
X145459Y692106D01*
X145459Y685439D01*
X144659Y684106D01*
X143059Y683439D01*
X139059Y683439D01*
G54D11*
X155592Y694106D02*
X149192Y694106D01*
X149192Y689439D01*
X149992Y689439D01*
X151592Y690106D01*
X153192Y690106D01*
X154792Y689439D01*
X155592Y688106D01*
X155592Y685439D01*
X154792Y684106D01*
X153192Y683439D01*
X151592Y683439D01*
X149992Y684106D01*
X149192Y685439D01*
G54D11*
X141154Y657261D02*
X141154Y667928D01*
X145154Y667928D01*
X146754Y667261D01*
X147554Y665928D01*
X147554Y659261D01*
X146754Y657928D01*
X145154Y657261D01*
X141154Y657261D01*
G54D11*
X157687Y665928D02*
X156887Y667261D01*
X155287Y667928D01*
X153687Y667928D01*
X152087Y667261D01*
X151287Y665928D01*
X151287Y662594D01*
X151287Y661928D01*
X153687Y663261D01*
X155287Y663261D01*
X156887Y662594D01*
X157687Y661261D01*
X157687Y659261D01*
X156887Y657928D01*
X155287Y657261D01*
X153687Y657261D01*
X152087Y657928D01*
X151287Y659261D01*
X151287Y662594D01*
G54D11*
X142201Y629512D02*
X142201Y640179D01*
X146201Y640179D01*
X147801Y639512D01*
X148601Y638179D01*
X148601Y631512D01*
X147801Y630179D01*
X146201Y629512D01*
X142201Y629512D01*
G54D11*
X152334Y640179D02*
X158734Y640179D01*
X157934Y638845D01*
X156334Y636845D01*
X154734Y634179D01*
X153934Y632179D01*
X153934Y629512D01*
G54D11*
X142201Y604905D02*
X142201Y615572D01*
X146201Y615572D01*
X147801Y614905D01*
X148601Y613572D01*
X148601Y606905D01*
X147801Y605572D01*
X146201Y604905D01*
X142201Y604905D01*
G54D11*
X156334Y610238D02*
X154734Y610238D01*
X153134Y610905D01*
X152334Y612238D01*
X152334Y613572D01*
X153134Y614905D01*
X154734Y615572D01*
X156334Y615572D01*
X157934Y614905D01*
X158734Y613572D01*
X158734Y612238D01*
X157934Y610905D01*
X156334Y610238D01*
X157934Y609572D01*
X158734Y608238D01*
X158734Y606905D01*
X157934Y605572D01*
X156334Y604905D01*
X154734Y604905D01*
X153134Y605572D01*
X152334Y606905D01*
X152334Y608238D01*
X153134Y609572D01*
X154734Y610238D01*
G54D11*
X143771Y578727D02*
X143771Y589394D01*
X147771Y589394D01*
X149371Y588727D01*
X150171Y587394D01*
X150171Y580727D01*
X149371Y579394D01*
X147771Y578727D01*
X143771Y578727D01*
G54D11*
X153904Y580727D02*
X154704Y579394D01*
X156304Y578727D01*
X157904Y578727D01*
X159504Y579394D01*
X160304Y580727D01*
X160304Y584060D01*
X160304Y584727D01*
X157904Y583394D01*
X156304Y583394D01*
X154704Y584060D01*
X153904Y585394D01*
X153904Y587394D01*
X154704Y588727D01*
X156304Y589394D01*
X157904Y589394D01*
X159504Y588727D01*
X160304Y587394D01*
X160304Y584060D01*
G54D11*
X135394Y555166D02*
X135394Y565833D01*
X139394Y565833D01*
X140994Y565166D01*
X141794Y563833D01*
X141794Y557166D01*
X140994Y555833D01*
X139394Y555166D01*
X135394Y555166D01*
G54D11*
X145527Y561833D02*
X149527Y565833D01*
X149527Y555166D01*
G54D11*
X159660Y563833D02*
X159660Y557166D01*
X158860Y555833D01*
X157260Y555166D01*
X155660Y555166D01*
X154060Y555833D01*
X153260Y557166D01*
X153260Y563833D01*
X154060Y565166D01*
X155660Y565833D01*
X157260Y565833D01*
X158860Y565166D01*
X159660Y563833D01*
G54D11*
X135918Y530036D02*
X135918Y540703D01*
X139918Y540703D01*
X141518Y540036D01*
X142318Y538703D01*
X142318Y532036D01*
X141518Y530703D01*
X139918Y530036D01*
X135918Y530036D01*
G54D11*
X146051Y536703D02*
X150051Y540703D01*
X150051Y530036D01*
G54D11*
X153784Y536703D02*
X157784Y540703D01*
X157784Y530036D01*
G54D11*
X134347Y501763D02*
X134347Y512430D01*
X138347Y512430D01*
X139947Y511763D01*
X140747Y510430D01*
X140747Y503763D01*
X139947Y502430D01*
X138347Y501763D01*
X134347Y501763D01*
G54D11*
X144480Y508430D02*
X148480Y512430D01*
X148480Y501763D01*
G54D11*
X158613Y501763D02*
X152213Y501763D01*
X152213Y502430D01*
X153013Y503763D01*
X157813Y507763D01*
X158613Y509096D01*
X158613Y510430D01*
X157813Y511763D01*
X156213Y512430D01*
X154613Y512430D01*
X153013Y511763D01*
X152213Y510430D01*
G54D11*
X452387Y683628D02*
X453187Y682294D01*
X454787Y681628D01*
X456387Y681628D01*
X457987Y682294D01*
X458787Y683628D01*
X458787Y684961D01*
X457987Y686294D01*
X456387Y686961D01*
X454787Y686961D01*
X453187Y687628D01*
X452387Y688961D01*
X452387Y690294D01*
X453187Y691628D01*
X454787Y692294D01*
X456387Y692294D01*
X457987Y691628D01*
X458787Y690294D01*
G54D11*
X462520Y681628D02*
X462520Y692294D01*
X466520Y692294D01*
X468120Y691628D01*
X468920Y690294D01*
X468920Y683628D01*
X468120Y682294D01*
X466520Y681628D01*
X462520Y681628D01*
G54D11*
X472653Y681628D02*
X476653Y692294D01*
X480653Y681628D01*
G54D11*
X474253Y685628D02*
X479053Y685628D01*
G54D11*
X451701Y709084D02*
X452501Y707751D01*
X454101Y707084D01*
X455701Y707084D01*
X457301Y707751D01*
X458101Y709084D01*
X458101Y710418D01*
X457301Y711751D01*
X455701Y712418D01*
X454101Y712418D01*
X452501Y713084D01*
X451701Y714418D01*
X451701Y715751D01*
X452501Y717084D01*
X454101Y717751D01*
X455701Y717751D01*
X457301Y717084D01*
X458101Y715751D01*
G54D11*
X468234Y709084D02*
X467434Y707751D01*
X465834Y707084D01*
X464234Y707084D01*
X462634Y707751D01*
X461834Y709084D01*
X461834Y715751D01*
X462634Y717084D01*
X464234Y717751D01*
X465834Y717751D01*
X467434Y717084D01*
X468234Y715751D01*
G54D11*
X471967Y717751D02*
X471967Y707084D01*
X477567Y707084D01*
G54D12*
X260300Y720700D02*
X260300Y701700D01*
X222300Y701700D01*
X222300Y720700D01*
X260300Y720700D01*
G54D12*
X260400Y711200D02*
X268300Y711200D01*
G54D12*
X222300Y711200D02*
X214400Y711200D01*
G54D12*
X260300Y695300D02*
X260300Y676300D01*
X222300Y676300D01*
X222300Y695300D01*
X260300Y695300D01*
G54D12*
X260400Y685800D02*
X268300Y685800D01*
G54D12*
X222300Y685800D02*
X214400Y685800D01*
G54D12*
X238100Y755700D02*
X219100Y755700D01*
X219100Y793700D01*
X238100Y793700D01*
X238100Y755700D01*
G54D12*
X228600Y755600D02*
X228600Y747700D01*
G54D12*
X228600Y793700D02*
X228600Y801600D01*
G54D10*
X38100Y825500D02*
X114300Y825500D01*
X114300Y800100D01*
X38100Y800100D01*
X38100Y825500D01*
G54D10*
X38100Y774700D02*
X114300Y774700D01*
X114300Y749300D01*
X38100Y749300D01*
X38100Y774700D01*
G54D10*
X38100Y723900D02*
X114300Y723900D01*
X114300Y698500D01*
X38100Y698500D01*
X38100Y723900D01*
G54D10*
X38100Y647700D02*
X114300Y647700D01*
X114300Y673100D01*
X38100Y673100D01*
X38100Y647700D01*
G54D11*
X32923Y796758D02*
X22256Y796758D01*
X22256Y802358D01*
G54D11*
X27590Y796758D02*
X27590Y802358D01*
G54D11*
X22256Y806091D02*
X32923Y806091D01*
X32923Y811691D01*
G54D11*
X24256Y821824D02*
X30923Y821824D01*
X32256Y821024D01*
X32923Y819424D01*
X32923Y817824D01*
X32256Y816224D01*
X30923Y815424D01*
X24256Y815424D01*
X22923Y816224D01*
X22256Y817824D01*
X22256Y819424D01*
X22923Y821024D01*
X24256Y821824D01*
G54D11*
X22256Y825557D02*
X32923Y825557D01*
X26256Y829557D01*
X32923Y833557D01*
X22256Y833557D01*
G54D11*
X22256Y744895D02*
X22256Y751295D01*
X32923Y744895D01*
X32923Y751295D01*
G54D11*
X24256Y761428D02*
X30923Y761428D01*
X32256Y760628D01*
X32923Y759028D01*
X32923Y757428D01*
X32256Y755828D01*
X30923Y755028D01*
X24256Y755028D01*
X22923Y755828D01*
X22256Y757428D01*
X22256Y759028D01*
X22923Y760628D01*
X24256Y761428D01*
G54D11*
X24256Y771561D02*
X30923Y771561D01*
X32256Y770761D01*
X32923Y769161D01*
X32923Y767561D01*
X32256Y765961D01*
X30923Y765161D01*
X24256Y765161D01*
X22923Y765961D01*
X22256Y767561D01*
X22256Y769161D01*
X22923Y770761D01*
X24256Y771561D01*
G54D11*
X32923Y775294D02*
X22256Y775294D01*
X28923Y779294D01*
X22256Y783294D01*
X32923Y783294D01*
G54D11*
X32923Y695921D02*
X22256Y695921D01*
G54D11*
X22256Y692721D02*
X22256Y699121D01*
G54D11*
X32923Y708454D02*
X32923Y702854D01*
X22256Y702854D01*
X22256Y708454D01*
G54D11*
X27590Y702854D02*
X27590Y708454D01*
G54D11*
X27590Y715387D02*
X28923Y717787D01*
X30256Y718587D01*
X32923Y718587D01*
G54D11*
X32923Y712187D02*
X22256Y712187D01*
X22256Y716187D01*
X22923Y717787D01*
X24256Y718587D01*
X25590Y718587D01*
X26923Y717787D01*
X27590Y716187D01*
X27590Y712187D01*
G54D11*
X32923Y722320D02*
X22256Y722320D01*
X28923Y726320D01*
X22256Y730320D01*
X32923Y730320D01*
G54D11*
X33855Y646852D02*
X23188Y646852D01*
G54D11*
X23188Y643652D02*
X23188Y650052D01*
G54D11*
X33855Y659385D02*
X33855Y653785D01*
X23188Y653785D01*
X23188Y659385D01*
G54D11*
X28522Y653785D02*
X28522Y659385D01*
G54D11*
X28522Y666318D02*
X29855Y668718D01*
X31188Y669518D01*
X33855Y669518D01*
G54D11*
X33855Y663118D02*
X23188Y663118D01*
X23188Y667118D01*
X23855Y668718D01*
X25188Y669518D01*
X26522Y669518D01*
X27855Y668718D01*
X28522Y667118D01*
X28522Y663118D01*
G54D11*
X33855Y673251D02*
X23188Y673251D01*
X29855Y677251D01*
X23188Y681251D01*
X33855Y681251D01*
G54D11*
X76348Y832877D02*
X76348Y836077D01*
X79681Y836077D01*
X81014Y835277D01*
X81681Y833677D01*
X81681Y832077D01*
X81014Y830477D01*
X79681Y829677D01*
X73014Y829677D01*
X71681Y830477D01*
X71014Y832077D01*
X71014Y833677D01*
X71681Y835277D01*
X73014Y836077D01*
G54D11*
X81681Y839810D02*
X71014Y839810D01*
X81681Y846210D01*
X71014Y846210D01*
G54D11*
X81681Y849943D02*
X71014Y849943D01*
X71014Y853943D01*
X71681Y855543D01*
X73014Y856343D01*
X79681Y856343D01*
X81014Y855543D01*
X81681Y853943D01*
X81681Y849943D01*
G54D11*
X44927Y838872D02*
X44927Y832472D01*
X49594Y832472D01*
X49594Y833272D01*
X48927Y834872D01*
X48927Y836472D01*
X49594Y838072D01*
X50927Y838872D01*
X53594Y838872D01*
X54927Y838072D01*
X55594Y836472D01*
X55594Y834872D01*
X54927Y833272D01*
X53594Y832472D01*
G54D11*
X44927Y842605D02*
X55594Y846605D01*
X44927Y850605D01*
G54D11*
X103905Y829677D02*
X105238Y830477D01*
X105905Y832077D01*
X105905Y833677D01*
X105238Y835277D01*
X103905Y836077D01*
X102572Y836077D01*
X101238Y835277D01*
X100572Y833677D01*
X100572Y832077D01*
X99905Y830477D01*
X98572Y829677D01*
X97238Y829677D01*
X95905Y830477D01*
X95238Y832077D01*
X95238Y833677D01*
X95905Y835277D01*
X97238Y836077D01*
G54D11*
X105905Y839810D02*
X105905Y846210D01*
G54D11*
X105905Y843010D02*
X95238Y843010D01*
G54D11*
X95238Y839810D02*
X95238Y846210D01*
G54D11*
X100572Y853143D02*
X100572Y856343D01*
X103905Y856343D01*
X105238Y855543D01*
X105905Y853943D01*
X105905Y852343D01*
X105238Y850743D01*
X103905Y849943D01*
X97238Y849943D01*
X95905Y850743D01*
X95238Y852343D01*
X95238Y853943D01*
X95905Y855543D01*
X97238Y856343D01*
G54D10*
X38100Y635000D02*
X63500Y635000D01*
X63500Y508000D01*
X38100Y508000D01*
X38100Y635000D01*
G54D11*
X83831Y551881D02*
X83831Y546281D01*
X73164Y546281D01*
X73164Y551881D01*
G54D11*
X78498Y546281D02*
X78498Y551881D01*
G54D11*
X83831Y555614D02*
X73164Y555614D01*
X83831Y562014D01*
X73164Y562014D01*
G54D11*
X81831Y572147D02*
X83164Y571347D01*
X83831Y569747D01*
X83831Y568147D01*
X83164Y566547D01*
X81831Y565747D01*
X75164Y565747D01*
X73831Y566547D01*
X73164Y568147D01*
X73164Y569747D01*
X73831Y571347D01*
X75164Y572147D01*
G54D11*
X75164Y582280D02*
X81831Y582280D01*
X83164Y581480D01*
X83831Y579880D01*
X83831Y578280D01*
X83164Y576680D01*
X81831Y575880D01*
X75164Y575880D01*
X73831Y576680D01*
X73164Y578280D01*
X73164Y579880D01*
X73831Y581480D01*
X75164Y582280D01*
G54D11*
X83831Y586013D02*
X73164Y586013D01*
X73164Y590013D01*
X73831Y591613D01*
X75164Y592413D01*
X81831Y592413D01*
X83164Y591613D01*
X83831Y590013D01*
X83831Y586013D01*
G54D11*
X83831Y601746D02*
X83831Y596146D01*
X73164Y596146D01*
X73164Y601746D01*
G54D11*
X78498Y596146D02*
X78498Y601746D01*
G54D11*
X78498Y608679D02*
X79831Y611079D01*
X81164Y611879D01*
X83831Y611879D01*
G54D11*
X83831Y605479D02*
X73164Y605479D01*
X73164Y609479D01*
X73831Y611079D01*
X75164Y611879D01*
X76498Y611879D01*
X77831Y611079D01*
X78498Y609479D01*
X78498Y605479D01*
G54D11*
X7450Y621248D02*
X10650Y621248D01*
X10650Y617915D01*
X9850Y616582D01*
X8250Y615915D01*
X6650Y615915D01*
X5050Y616582D01*
X4250Y617915D01*
X4250Y624582D01*
X5050Y625915D01*
X6650Y626582D01*
X8250Y626582D01*
X9850Y625915D01*
X10650Y624582D01*
G54D11*
X14383Y615915D02*
X14383Y626582D01*
X20783Y615915D01*
X20783Y626582D01*
G54D11*
X24516Y615915D02*
X24516Y626582D01*
X28516Y626582D01*
X30116Y625915D01*
X30916Y624582D01*
X30916Y617915D01*
X30116Y616582D01*
X28516Y615915D01*
X24516Y615915D01*
G54D11*
X19550Y526058D02*
X13150Y526058D01*
X13150Y521391D01*
X13950Y521391D01*
X15550Y522058D01*
X17150Y522058D01*
X18750Y521391D01*
X19550Y520058D01*
X19550Y517391D01*
X18750Y516058D01*
X17150Y515391D01*
X15550Y515391D01*
X13950Y516058D01*
X13150Y517391D01*
G54D11*
X23283Y526058D02*
X27283Y515391D01*
X31283Y526058D01*
G54D11*
X16815Y592260D02*
X17615Y590927D01*
X19215Y590260D01*
X20815Y590260D01*
X22415Y590927D01*
X23215Y592260D01*
X23215Y593593D01*
X22415Y594927D01*
X20815Y595593D01*
X19215Y595593D01*
X17615Y596260D01*
X16815Y597593D01*
X16815Y598927D01*
X17615Y600260D01*
X19215Y600927D01*
X20815Y600927D01*
X22415Y600260D01*
X23215Y598927D01*
G54D11*
X26948Y596927D02*
X30948Y600927D01*
X30948Y590260D01*
G54D11*
X14721Y568700D02*
X15521Y567367D01*
X17121Y566700D01*
X18721Y566700D01*
X20321Y567367D01*
X21121Y568700D01*
X21121Y570033D01*
X20321Y571367D01*
X18721Y572033D01*
X17121Y572033D01*
X15521Y572700D01*
X14721Y574033D01*
X14721Y575367D01*
X15521Y576700D01*
X17121Y577367D01*
X18721Y577367D01*
X20321Y576700D01*
X21121Y575367D01*
G54D11*
X31254Y566700D02*
X24854Y566700D01*
X24854Y567367D01*
X25654Y568700D01*
X30454Y572700D01*
X31254Y574033D01*
X31254Y575367D01*
X30454Y576700D01*
X28854Y577367D01*
X27254Y577367D01*
X25654Y576700D01*
X24854Y575367D01*
G54D12*
X260300Y593700D02*
X260300Y574700D01*
X222300Y574700D01*
X222300Y593700D01*
X260300Y593700D01*
G54D12*
X260400Y584200D02*
X268300Y584200D01*
G54D12*
X222300Y584200D02*
X214400Y584200D01*
G54D12*
X260300Y517500D02*
X260300Y498500D01*
X222300Y498500D01*
X222300Y517500D01*
X260300Y517500D01*
G54D12*
X260400Y508000D02*
X268300Y508000D01*
G54D12*
X222300Y508000D02*
X214400Y508000D01*
G36*
X451095Y535149D02*
X539895Y535149D01*
X539895Y541549D01*
X451095Y541549D01*
X451095Y535149D01*
G37*
G54D12*
X451095Y535149D02*
X539895Y535149D01*
X539895Y541549D01*
X451095Y541549D01*
X451095Y535149D01*
G54D12*
X451095Y541549D02*
X451095Y503549D01*
X540095Y503549D01*
X540095Y541549D01*
X451095Y541549D01*
G54D13*
X470695Y495849D02*
X472895Y495849D01*
X472895Y493549D01*
X472295Y492649D01*
X471295Y492249D01*
X470195Y492249D01*
X469095Y492649D01*
X468595Y493549D01*
X468595Y498049D01*
X469095Y498949D01*
X470195Y499349D01*
X471295Y499349D01*
X472295Y498949D01*
X472895Y498049D01*
G54D13*
X493995Y492249D02*
X493995Y499349D01*
X496695Y499349D01*
X497695Y498949D01*
X498295Y498049D01*
X498295Y493549D01*
X497695Y492649D01*
X496695Y492249D01*
X493995Y492249D01*
G54D13*
X519395Y493549D02*
X519895Y492649D01*
X520995Y492249D01*
X522095Y492249D01*
X523095Y492649D01*
X523695Y493549D01*
X523695Y494449D01*
X523095Y495349D01*
X522095Y495849D01*
X520995Y495849D01*
X519895Y496249D01*
X519395Y497149D01*
X519395Y498049D01*
X519895Y498949D01*
X520995Y499349D01*
X522095Y499349D01*
X523095Y498949D01*
X523695Y498049D01*
G54D10*
X381000Y533400D02*
X406400Y533400D01*
X406400Y482600D01*
X381000Y482600D01*
X381000Y533400D01*
G54D10*
X381000Y723900D02*
X406400Y723900D01*
X406400Y622300D01*
X381000Y622300D01*
X381000Y723900D01*
G54D10*
X419100Y723900D02*
X444500Y723900D01*
X444500Y622300D01*
X419100Y622300D01*
X419100Y723900D01*
G54D10*
X457200Y609600D02*
X533400Y609600D01*
X533400Y584200D01*
X457200Y584200D01*
X457200Y609600D01*
G54D11*
X411056Y486595D02*
X411056Y497262D01*
X415056Y497262D01*
X416656Y496595D01*
X417456Y495262D01*
X417456Y493928D01*
X416656Y492595D01*
X415056Y491928D01*
X411056Y491928D01*
G54D11*
X421189Y497262D02*
X421189Y486595D01*
X425189Y493262D01*
X429189Y486595D01*
X429189Y497262D01*
G54D11*
X432922Y486595D02*
X432922Y497262D01*
X436922Y490595D01*
X440922Y497262D01*
X440922Y486595D01*
G54D11*
X414256Y522295D02*
X417456Y522295D01*
X417456Y518962D01*
X416656Y517629D01*
X415056Y516962D01*
X413456Y516962D01*
X411856Y517629D01*
X411056Y518962D01*
X411056Y525629D01*
X411856Y526962D01*
X413456Y527629D01*
X415056Y527629D01*
X416656Y526962D01*
X417456Y525629D01*
G54D11*
X421189Y516962D02*
X421189Y527629D01*
X427589Y516962D01*
X427589Y527629D01*
G54D11*
X431322Y516962D02*
X431322Y527629D01*
X435322Y527629D01*
X436922Y526962D01*
X437722Y525629D01*
X437722Y518962D01*
X436922Y517629D01*
X435322Y516962D01*
X431322Y516962D01*
G54D11*
X458759Y620200D02*
X461959Y620200D01*
X461959Y616867D01*
X461159Y615534D01*
X459559Y614867D01*
X457959Y614867D01*
X456359Y615534D01*
X455559Y616867D01*
X455559Y623534D01*
X456359Y624867D01*
X457959Y625534D01*
X459559Y625534D01*
X461159Y624867D01*
X461959Y623534D01*
G54D11*
X465692Y614867D02*
X465692Y625534D01*
X472092Y614867D01*
X472092Y625534D01*
G54D11*
X475825Y614867D02*
X475825Y625534D01*
X479825Y625534D01*
X481425Y624867D01*
X482225Y623534D01*
X482225Y616867D01*
X481425Y615534D01*
X479825Y614867D01*
X475825Y614867D01*
G54D11*
X509485Y621534D02*
X513485Y625534D01*
X513485Y614867D01*
G54D11*
X523618Y614867D02*
X517218Y614867D01*
X517218Y615534D01*
X518018Y616867D01*
X522818Y620867D01*
X523618Y622200D01*
X523618Y623534D01*
X522818Y624867D01*
X521218Y625534D01*
X519618Y625534D01*
X518018Y624867D01*
X517218Y623534D01*
G54D11*
X527351Y625534D02*
X531351Y614867D01*
X535351Y625534D01*
G54D11*
X405820Y906875D02*
X409820Y910875D01*
X409820Y900208D01*
G54D11*
X419953Y900208D02*
X413553Y900208D01*
X413553Y900875D01*
X414353Y902208D01*
X419153Y906208D01*
X419953Y907541D01*
X419953Y908875D01*
X419153Y910208D01*
X417553Y910875D01*
X415953Y910875D01*
X414353Y910208D01*
X413553Y908875D01*
G54D11*
X423686Y910875D02*
X427686Y900208D01*
X431686Y910875D01*
G54D11*
X359806Y902923D02*
X363006Y902923D01*
X363006Y899590D01*
X362206Y898257D01*
X360606Y897590D01*
X359006Y897590D01*
X357406Y898257D01*
X356606Y899590D01*
X356606Y906257D01*
X357406Y907590D01*
X359006Y908257D01*
X360606Y908257D01*
X362206Y907590D01*
X363006Y906257D01*
G54D11*
X366739Y897590D02*
X366739Y908257D01*
X373139Y897590D01*
X373139Y908257D01*
G54D11*
X376872Y897590D02*
X376872Y908257D01*
X380872Y908257D01*
X382472Y907590D01*
X383272Y906257D01*
X383272Y899590D01*
X382472Y898257D01*
X380872Y897590D01*
X376872Y897590D01*
G54D11*
X317456Y905116D02*
X311056Y905116D01*
X311056Y900449D01*
X311856Y900449D01*
X313456Y901116D01*
X315056Y901116D01*
X316656Y900449D01*
X317456Y899116D01*
X317456Y896449D01*
X316656Y895116D01*
X315056Y894449D01*
X313456Y894449D01*
X311856Y895116D01*
X311056Y896449D01*
G54D11*
X321189Y905116D02*
X325189Y894449D01*
X329189Y905116D01*
G54D11*
X4773Y539998D02*
X4773Y550665D01*
G54D11*
X4773Y543331D02*
X11173Y550665D01*
G54D11*
X7173Y545331D02*
X11173Y539998D01*
G54D11*
X20506Y539998D02*
X14906Y539998D01*
X14906Y550665D01*
X20506Y550665D01*
G54D11*
X14906Y545331D02*
X20506Y545331D01*
G54D11*
X24239Y550665D02*
X28239Y545331D01*
X28239Y539998D01*
G54D11*
X28239Y545331D02*
X32239Y550665D01*
G54D11*
X460835Y669134D02*
X454435Y669134D01*
X454435Y664467D01*
X455235Y664467D01*
X456835Y665134D01*
X458435Y665134D01*
X460035Y664467D01*
X460835Y663134D01*
X460835Y660467D01*
X460035Y659134D01*
X458435Y658467D01*
X456835Y658467D01*
X455235Y659134D01*
X454435Y660467D01*
G54D11*
X464568Y669134D02*
X468568Y658467D01*
X472568Y669134D01*
G54D11*
X451990Y639204D02*
X455190Y639204D01*
X455190Y635871D01*
X454390Y634538D01*
X452790Y633871D01*
X451190Y633871D01*
X449590Y634538D01*
X448790Y635871D01*
X448790Y642538D01*
X449590Y643871D01*
X451190Y644538D01*
X452790Y644538D01*
X454390Y643871D01*
X455190Y642538D01*
G54D11*
X458923Y633871D02*
X458923Y644538D01*
X465323Y633871D01*
X465323Y644538D01*
G54D11*
X469056Y633871D02*
X469056Y644538D01*
X473056Y644538D01*
X474656Y643871D01*
X475456Y642538D01*
X475456Y635871D01*
X474656Y634538D01*
X473056Y633871D01*
X469056Y633871D01*
G54D11*
X477016Y567338D02*
X477016Y578005D01*
X481016Y578005D01*
X482616Y577338D01*
X483416Y576005D01*
X483416Y574671D01*
X482616Y573338D01*
X481016Y572671D01*
X477016Y572671D01*
G54D11*
X487149Y578005D02*
X487149Y569338D01*
X487949Y568005D01*
X489549Y567338D01*
X491149Y567338D01*
X492749Y568005D01*
X493549Y569338D01*
X493549Y578005D01*
G54D11*
X497282Y567338D02*
X497282Y578005D01*
X501282Y571338D01*
X505282Y578005D01*
X505282Y567338D01*
G54D11*
X509015Y567338D02*
X509015Y578005D01*
X513015Y578005D01*
X514615Y577338D01*
X515415Y576005D01*
X515415Y574671D01*
X514615Y573338D01*
X513015Y572671D01*
X509015Y572671D01*
G54D11*
X416348Y473728D02*
X415548Y472395D01*
X413948Y471728D01*
X412348Y471728D01*
X410748Y472395D01*
X409948Y473728D01*
X409948Y480395D01*
X410748Y481728D01*
X412348Y482395D01*
X413948Y482395D01*
X415548Y481728D01*
X416348Y480395D01*
G54D11*
X426481Y480395D02*
X426481Y473728D01*
X425681Y472395D01*
X424081Y471728D01*
X422481Y471728D01*
X420881Y472395D01*
X420081Y473728D01*
X420081Y480395D01*
X420881Y481728D01*
X422481Y482395D01*
X424081Y482395D01*
X425681Y481728D01*
X426481Y480395D01*
G54D11*
X436614Y480395D02*
X436614Y473728D01*
X435814Y472395D01*
X434214Y471728D01*
X432614Y471728D01*
X431014Y472395D01*
X430214Y473728D01*
X430214Y480395D01*
X431014Y481728D01*
X432614Y482395D01*
X434214Y482395D01*
X435814Y481728D01*
X436614Y480395D01*
G54D11*
X440347Y482395D02*
X440347Y471728D01*
X445947Y471728D01*
G54D11*
X398953Y730366D02*
X405353Y730366D01*
G54D11*
X402153Y730366D02*
X402153Y741033D01*
G54D11*
X398953Y741033D02*
X405353Y741033D01*
G54D11*
X415486Y730366D02*
X409086Y730366D01*
X409086Y731033D01*
X409886Y732366D01*
X414686Y736366D01*
X415486Y737699D01*
X415486Y739033D01*
X414686Y740366D01*
X413086Y741033D01*
X411486Y741033D01*
X409886Y740366D01*
X409086Y739033D01*
G54D11*
X425619Y732366D02*
X424819Y731033D01*
X423219Y730366D01*
X421619Y730366D01*
X420019Y731033D01*
X419219Y732366D01*
X419219Y739033D01*
X420019Y740366D01*
X421619Y741033D01*
X423219Y741033D01*
X424819Y740366D01*
X425619Y739033D01*
G54D11*
X344503Y961257D02*
X344503Y971924D01*
X348503Y971924D01*
X350103Y971257D01*
X350903Y969924D01*
X350903Y968590D01*
X350103Y967257D01*
X348503Y966590D01*
X344503Y966590D01*
G54D11*
X361036Y969924D02*
X361036Y963257D01*
X360236Y961924D01*
X358636Y961257D01*
X357036Y961257D01*
X355436Y961924D01*
X354636Y963257D01*
X354636Y969924D01*
X355436Y971257D01*
X357036Y971924D01*
X358636Y971924D01*
X360236Y971257D01*
X361036Y969924D01*
G54D11*
X364769Y971924D02*
X364769Y961257D01*
X368769Y967924D01*
X372769Y961257D01*
X372769Y971924D01*
G54D11*
X382102Y961257D02*
X376502Y961257D01*
X376502Y971924D01*
X382102Y971924D01*
G54D11*
X376502Y966590D02*
X382102Y966590D01*
G54D11*
X389035Y966590D02*
X391435Y965257D01*
X392235Y963924D01*
X392235Y961257D01*
G54D11*
X385835Y961257D02*
X385835Y971924D01*
X389835Y971924D01*
X391435Y971257D01*
X392235Y969924D01*
X392235Y968590D01*
X391435Y967257D01*
X389835Y966590D01*
X385835Y966590D01*
G54D14*
X235937Y706806D02*
X235937Y715695D01*
X231937Y710139D01*
X231937Y709028D01*
X237270Y709028D01*
G54D14*
X240247Y706806D02*
X239714Y706806D01*
X239714Y707250D01*
X240247Y707250D01*
X240247Y706806D01*
X239714Y706806D01*
G54D14*
X242691Y715695D02*
X248024Y715695D01*
X247358Y714584D01*
X246024Y712917D01*
X244691Y710695D01*
X244024Y709028D01*
X244024Y706806D01*
G54D14*
X250468Y706806D02*
X250468Y715695D01*
G54D14*
X252468Y710139D02*
X254468Y706806D01*
G54D14*
X250468Y709028D02*
X254468Y711806D01*
G54D14*
X235086Y681993D02*
X235086Y690882D01*
X231086Y685327D01*
X231086Y684216D01*
X236419Y684216D01*
G54D14*
X239396Y681993D02*
X238863Y681993D01*
X238863Y682438D01*
X239396Y682438D01*
X239396Y681993D01*
X238863Y681993D01*
G54D14*
X241840Y690882D02*
X247173Y690882D01*
X246506Y689771D01*
X245173Y688105D01*
X243840Y685882D01*
X243173Y684216D01*
X243173Y681993D01*
G54D14*
X249617Y681993D02*
X249617Y690882D01*
G54D14*
X251617Y685327D02*
X253617Y681993D01*
G54D14*
X249617Y684216D02*
X253617Y686993D01*
G54D14*
X226905Y764398D02*
X223572Y767731D01*
X232461Y767731D01*
G54D14*
X225239Y775508D02*
X230794Y775508D01*
X231905Y774842D01*
X232461Y773508D01*
X232461Y772175D01*
X231905Y770842D01*
X230794Y770175D01*
X225239Y770175D01*
X224128Y770842D01*
X223572Y772175D01*
X223572Y773508D01*
X224128Y774842D01*
X225239Y775508D01*
G54D14*
X232461Y777952D02*
X223572Y777952D01*
G54D14*
X229128Y779952D02*
X232461Y781952D01*
G54D14*
X230239Y777952D02*
X227461Y781952D01*
G54D14*
X232984Y584614D02*
X236317Y587947D01*
X236317Y579058D01*
G54D14*
X244094Y586280D02*
X244094Y580725D01*
X243428Y579614D01*
X242094Y579058D01*
X240761Y579058D01*
X239428Y579614D01*
X238761Y580725D01*
X238761Y586280D01*
X239428Y587391D01*
X240761Y587947D01*
X242094Y587947D01*
X243428Y587391D01*
X244094Y586280D01*
G54D14*
X246538Y579058D02*
X246538Y587947D01*
G54D14*
X248538Y582391D02*
X250538Y579058D01*
G54D14*
X246538Y581280D02*
X250538Y584058D01*
G54D14*
X231414Y509221D02*
X234747Y512554D01*
X234747Y503665D01*
G54D14*
X242524Y510887D02*
X242524Y505332D01*
X241858Y504221D01*
X240524Y503665D01*
X239191Y503665D01*
X237858Y504221D01*
X237191Y505332D01*
X237191Y510887D01*
X237858Y511998D01*
X239191Y512554D01*
X240524Y512554D01*
X241858Y511998D01*
X242524Y510887D01*
G54D14*
X244968Y503665D02*
X244968Y512554D01*
G54D14*
X246968Y506998D02*
X248968Y503665D01*
G54D14*
X244968Y505887D02*
X248968Y508665D01*
G54D15*
X228600Y838200D02*
X228600Y855978D01*
X239267Y838200D01*
X239267Y855978D01*
G54D15*
X244156Y838200D02*
X250823Y855978D01*
X257489Y838200D01*
G54D15*
X246823Y844867D02*
X254823Y844867D01*
G54D15*
X262378Y838200D02*
X262378Y855978D01*
X273045Y838200D01*
X273045Y855978D01*
G54D15*
X288601Y852644D02*
X288601Y841533D01*
X287267Y839311D01*
X284601Y838200D01*
X281934Y838200D01*
X279267Y839311D01*
X277934Y841533D01*
X277934Y852644D01*
X279267Y854867D01*
X281934Y855978D01*
X284601Y855978D01*
X287267Y854867D01*
X288601Y852644D01*
G54D16*
X240314Y486631D02*
X240314Y475798D01*
X241314Y474131D01*
X243314Y473298D01*
X245314Y473298D01*
X247314Y474131D01*
X248314Y475798D01*
X248314Y486631D01*
G54D16*
X251981Y475798D02*
X252981Y474131D01*
X254981Y473298D01*
X256981Y473298D01*
X258981Y474131D01*
X259981Y475798D01*
X259981Y477465D01*
X258981Y479131D01*
X256981Y479965D01*
X254981Y479965D01*
X252981Y480798D01*
X251981Y482465D01*
X251981Y484131D01*
X252981Y485798D01*
X254981Y486631D01*
X256981Y486631D01*
X258981Y485798D01*
X259981Y484131D01*
G54D16*
X263648Y473298D02*
X263648Y486631D01*
X268648Y486631D01*
X270648Y485798D01*
X271648Y484131D01*
X271648Y482465D01*
X270648Y480798D01*
X268648Y479965D01*
X270648Y479131D01*
X271648Y477465D01*
X271648Y475798D01*
X270648Y474131D01*
X268648Y473298D01*
X263648Y473298D01*
G54D16*
X263648Y479965D02*
X268648Y479965D01*
G54D11*
X404138Y774427D02*
X398538Y774427D01*
X398538Y785093D01*
X404138Y785093D01*
G54D11*
X398538Y779760D02*
X404138Y779760D01*
G54D11*
X407871Y774427D02*
X407871Y785093D01*
X414271Y774427D01*
X414271Y785093D01*
G54D11*
X418004Y774427D02*
X426004Y774427D01*
G54D11*
X429737Y774427D02*
X429737Y785093D01*
X433737Y785093D01*
X435337Y784427D01*
X436137Y783093D01*
X436137Y781760D01*
X435337Y780427D01*
X433737Y779760D01*
X429737Y779760D01*
G54D11*
X439870Y785093D02*
X439870Y776427D01*
X440670Y775093D01*
X442270Y774427D01*
X443870Y774427D01*
X445470Y775093D01*
X446270Y776427D01*
X446270Y785093D01*
G54D11*
X450003Y774427D02*
X450003Y785093D01*
X454003Y778427D01*
X458003Y785093D01*
X458003Y774427D01*
G54D11*
X461736Y774427D02*
X461736Y785093D01*
X465736Y785093D01*
X467336Y784427D01*
X468136Y783093D01*
X468136Y781760D01*
X467336Y780427D01*
X465736Y779760D01*
X461736Y779760D01*
G54D12*
X396194Y781132D02*
X377194Y781132D01*
X377194Y819132D01*
X396194Y819132D01*
X396194Y781132D01*
G54D12*
X386694Y781032D02*
X386694Y773132D01*
G54D12*
X386694Y819132D02*
X386694Y827032D01*
G54D14*
X384999Y789830D02*
X381666Y793164D01*
X390555Y793164D01*
G54D14*
X383332Y800941D02*
X388888Y800941D01*
X389999Y800274D01*
X390555Y798941D01*
X390555Y797607D01*
X389999Y796274D01*
X388888Y795607D01*
X383332Y795607D01*
X382221Y796274D01*
X381666Y797607D01*
X381666Y798941D01*
X382221Y800274D01*
X383332Y800941D01*
G54D14*
X390555Y803384D02*
X381666Y803384D01*
G54D14*
X387221Y805384D02*
X390555Y807384D01*
G54D14*
X388332Y803384D02*
X385555Y807384D01*
G54D12*
X395413Y771560D02*
X412477Y771560D01*
X412477Y752661D01*
X395413Y752661D01*
X395413Y771560D01*
M02*
