%FSLAX34Y34*%
%MOMM*%
%LNCOPPER_BOTTOM*%
G71*
G01*
%ADD10C, 2.00*%
%ADD11C, 2.00*%
%ADD12C, 1.80*%
%ADD13C, 4.00*%
%LPD*%
G36*
X167800Y867750D02*
X173650Y873600D01*
X181950Y873600D01*
X187800Y867750D01*
X187800Y859450D01*
X181950Y853600D01*
X173650Y853600D01*
X167800Y859450D01*
X167800Y867750D01*
G37*
G36*
X167800Y842350D02*
X173650Y848200D01*
X181950Y848200D01*
X187800Y842350D01*
X187800Y834050D01*
X181950Y828200D01*
X173650Y828200D01*
X167800Y834050D01*
X167800Y842350D01*
G37*
G36*
X167800Y816950D02*
X173650Y822800D01*
X181950Y822800D01*
X187800Y816950D01*
X187800Y808650D01*
X181950Y802800D01*
X173650Y802800D01*
X167800Y808650D01*
X167800Y816950D01*
G37*
G36*
X167800Y791550D02*
X173650Y797400D01*
X181950Y797400D01*
X187800Y791550D01*
X187800Y783250D01*
X181950Y777400D01*
X173650Y777400D01*
X167800Y783250D01*
X167800Y791550D01*
G37*
G36*
X167800Y766150D02*
X173650Y772000D01*
X181950Y772000D01*
X187800Y766150D01*
X187800Y757850D01*
X181950Y752000D01*
X173650Y752000D01*
X167800Y757850D01*
X167800Y766150D01*
G37*
G36*
X167800Y740750D02*
X173650Y746600D01*
X181950Y746600D01*
X187800Y740750D01*
X187800Y732450D01*
X181950Y726600D01*
X173650Y726600D01*
X167800Y732450D01*
X167800Y740750D01*
G37*
G36*
X167800Y715350D02*
X173650Y721200D01*
X181950Y721200D01*
X187800Y715350D01*
X187800Y707050D01*
X181950Y701200D01*
X173650Y701200D01*
X167800Y707050D01*
X167800Y715350D01*
G37*
G36*
X167800Y689950D02*
X173650Y695800D01*
X181950Y695800D01*
X187800Y689950D01*
X187800Y681650D01*
X181950Y675800D01*
X173650Y675800D01*
X167800Y681650D01*
X167800Y689950D01*
G37*
G36*
X167800Y664550D02*
X173650Y670400D01*
X181950Y670400D01*
X187800Y664550D01*
X187800Y656250D01*
X181950Y650400D01*
X173650Y650400D01*
X167800Y656250D01*
X167800Y664550D01*
G37*
G36*
X167800Y639150D02*
X173650Y645000D01*
X181950Y645000D01*
X187800Y639150D01*
X187800Y630850D01*
X181950Y625000D01*
X173650Y625000D01*
X167800Y630850D01*
X167800Y639150D01*
G37*
G36*
X167800Y613750D02*
X173650Y619600D01*
X181950Y619600D01*
X187800Y613750D01*
X187800Y605450D01*
X181950Y599600D01*
X173650Y599600D01*
X167800Y605450D01*
X167800Y613750D01*
G37*
G36*
X167800Y588350D02*
X173650Y594200D01*
X181950Y594200D01*
X187800Y588350D01*
X187800Y580050D01*
X181950Y574200D01*
X173650Y574200D01*
X167800Y580050D01*
X167800Y588350D01*
G37*
G36*
X167800Y562950D02*
X173650Y568800D01*
X181950Y568800D01*
X187800Y562950D01*
X187800Y554650D01*
X181950Y548800D01*
X173650Y548800D01*
X167800Y554650D01*
X167800Y562950D01*
G37*
G36*
X167800Y537550D02*
X173650Y543400D01*
X181950Y543400D01*
X187800Y537550D01*
X187800Y529250D01*
X181950Y523400D01*
X173650Y523400D01*
X167800Y529250D01*
X167800Y537550D01*
G37*
G36*
X167800Y512150D02*
X173650Y518000D01*
X181950Y518000D01*
X187800Y512150D01*
X187800Y503850D01*
X181950Y498000D01*
X173650Y498000D01*
X167800Y503850D01*
X167800Y512150D01*
G37*
G36*
X320200Y512150D02*
X326050Y518000D01*
X334350Y518000D01*
X340200Y512150D01*
X340200Y503850D01*
X334350Y498000D01*
X326050Y498000D01*
X320200Y503850D01*
X320200Y512150D01*
G37*
G36*
X320200Y867750D02*
X326050Y873600D01*
X334350Y873600D01*
X340200Y867750D01*
X340200Y859450D01*
X334350Y853600D01*
X326050Y853600D01*
X320200Y859450D01*
X320200Y867750D01*
G37*
G36*
X320200Y842350D02*
X326050Y848200D01*
X334350Y848200D01*
X340200Y842350D01*
X340200Y834050D01*
X334350Y828200D01*
X326050Y828200D01*
X320200Y834050D01*
X320200Y842350D01*
G37*
G36*
X320200Y816950D02*
X326050Y822800D01*
X334350Y822800D01*
X340200Y816950D01*
X340200Y808650D01*
X334350Y802800D01*
X326050Y802800D01*
X320200Y808650D01*
X320200Y816950D01*
G37*
G36*
X320200Y791550D02*
X326050Y797400D01*
X334350Y797400D01*
X340200Y791550D01*
X340200Y783250D01*
X334350Y777400D01*
X326050Y777400D01*
X320200Y783250D01*
X320200Y791550D01*
G37*
G36*
X320200Y766150D02*
X326050Y772000D01*
X334350Y772000D01*
X340200Y766150D01*
X340200Y757850D01*
X334350Y752000D01*
X326050Y752000D01*
X320200Y757850D01*
X320200Y766150D01*
G37*
G36*
X320200Y740750D02*
X326050Y746600D01*
X334350Y746600D01*
X340200Y740750D01*
X340200Y732450D01*
X334350Y726600D01*
X326050Y726600D01*
X320200Y732450D01*
X320200Y740750D01*
G37*
G36*
X320200Y715350D02*
X326050Y721200D01*
X334350Y721200D01*
X340200Y715350D01*
X340200Y707050D01*
X334350Y701200D01*
X326050Y701200D01*
X320200Y707050D01*
X320200Y715350D01*
G37*
G36*
X320200Y689950D02*
X326050Y695800D01*
X334350Y695800D01*
X340200Y689950D01*
X340200Y681650D01*
X334350Y675800D01*
X326050Y675800D01*
X320200Y681650D01*
X320200Y689950D01*
G37*
G36*
X320200Y664550D02*
X326050Y670400D01*
X334350Y670400D01*
X340200Y664550D01*
X340200Y656250D01*
X334350Y650400D01*
X326050Y650400D01*
X320200Y656250D01*
X320200Y664550D01*
G37*
G36*
X320200Y639150D02*
X326050Y645000D01*
X334350Y645000D01*
X340200Y639150D01*
X340200Y630850D01*
X334350Y625000D01*
X326050Y625000D01*
X320200Y630850D01*
X320200Y639150D01*
G37*
G36*
X320200Y613750D02*
X326050Y619600D01*
X334350Y619600D01*
X340200Y613750D01*
X340200Y605450D01*
X334350Y599600D01*
X326050Y599600D01*
X320200Y605450D01*
X320200Y613750D01*
G37*
G36*
X320200Y588350D02*
X326050Y594200D01*
X334350Y594200D01*
X340200Y588350D01*
X340200Y580050D01*
X334350Y574200D01*
X326050Y574200D01*
X320200Y580050D01*
X320200Y588350D01*
G37*
G36*
X320200Y562950D02*
X326050Y568800D01*
X334350Y568800D01*
X340200Y562950D01*
X340200Y554650D01*
X334350Y548800D01*
X326050Y548800D01*
X320200Y554650D01*
X320200Y562950D01*
G37*
G36*
X320200Y537550D02*
X326050Y543400D01*
X334350Y543400D01*
X340200Y537550D01*
X340200Y529250D01*
X334350Y523400D01*
X326050Y523400D01*
X320200Y529250D01*
X320200Y537550D01*
G37*
G36*
X167800Y639150D02*
X173650Y645000D01*
X181950Y645000D01*
X187800Y639150D01*
X187800Y630850D01*
X181950Y625000D01*
X173650Y625000D01*
X167800Y630850D01*
X167800Y639150D01*
G37*
G36*
X91600Y816950D02*
X97450Y822800D01*
X105750Y822800D01*
X111600Y816950D01*
X111600Y808650D01*
X105750Y802800D01*
X97450Y802800D01*
X91600Y808650D01*
X91600Y816950D01*
G37*
G36*
X66200Y816950D02*
X72050Y822800D01*
X80350Y822800D01*
X86200Y816950D01*
X86200Y808650D01*
X80350Y802800D01*
X72050Y802800D01*
X66200Y808650D01*
X66200Y816950D01*
G37*
G36*
X40800Y816950D02*
X46650Y822800D01*
X54950Y822800D01*
X60800Y816950D01*
X60800Y808650D01*
X54950Y802800D01*
X46650Y802800D01*
X40800Y808650D01*
X40800Y816950D01*
G37*
G36*
X91600Y766150D02*
X97450Y772000D01*
X105750Y772000D01*
X111600Y766150D01*
X111600Y757850D01*
X105750Y752000D01*
X97450Y752000D01*
X91600Y757850D01*
X91600Y766150D01*
G37*
G36*
X66200Y766150D02*
X72050Y772000D01*
X80350Y772000D01*
X86200Y766150D01*
X86200Y757850D01*
X80350Y752000D01*
X72050Y752000D01*
X66200Y757850D01*
X66200Y766150D01*
G37*
G36*
X40800Y766150D02*
X46650Y772000D01*
X54950Y772000D01*
X60800Y766150D01*
X60800Y757850D01*
X54950Y752000D01*
X46650Y752000D01*
X40800Y757850D01*
X40800Y766150D01*
G37*
G54D10*
X101600Y812800D02*
X139700Y762000D01*
X177800Y762000D01*
G54D10*
X101600Y762000D02*
X127000Y736600D01*
X177800Y736600D01*
G36*
X91600Y715350D02*
X97450Y721200D01*
X105750Y721200D01*
X111600Y715350D01*
X111600Y707050D01*
X105750Y701200D01*
X97450Y701200D01*
X91600Y707050D01*
X91600Y715350D01*
G37*
G36*
X66200Y715350D02*
X72050Y721200D01*
X80350Y721200D01*
X86200Y715350D01*
X86200Y707050D01*
X80350Y701200D01*
X72050Y701200D01*
X66200Y707050D01*
X66200Y715350D01*
G37*
G36*
X40800Y715350D02*
X46650Y721200D01*
X54950Y721200D01*
X60800Y715350D01*
X60800Y707050D01*
X54950Y701200D01*
X46650Y701200D01*
X40800Y707050D01*
X40800Y715350D01*
G37*
G54D10*
X101600Y711200D02*
X177800Y711200D01*
G36*
X40800Y664550D02*
X46650Y670400D01*
X54950Y670400D01*
X60800Y664550D01*
X60800Y656250D01*
X54950Y650400D01*
X46650Y650400D01*
X40800Y656250D01*
X40800Y664550D01*
G37*
G36*
X66200Y664550D02*
X72050Y670400D01*
X80350Y670400D01*
X86200Y664550D01*
X86200Y656250D01*
X80350Y650400D01*
X72050Y650400D01*
X66200Y656250D01*
X66200Y664550D01*
G37*
G36*
X91600Y664550D02*
X97450Y670400D01*
X105750Y670400D01*
X111600Y664550D01*
X111600Y656250D01*
X105750Y650400D01*
X97450Y650400D01*
X91600Y656250D01*
X91600Y664550D01*
G37*
G54D10*
X101600Y660400D02*
X127000Y685800D01*
X177800Y685800D01*
G36*
X383700Y715350D02*
X389550Y721200D01*
X397850Y721200D01*
X403700Y715350D01*
X403700Y707050D01*
X397850Y701200D01*
X389550Y701200D01*
X383700Y707050D01*
X383700Y715350D01*
G37*
G36*
X383700Y689950D02*
X389550Y695800D01*
X397850Y695800D01*
X403700Y689950D01*
X403700Y681650D01*
X397850Y675800D01*
X389550Y675800D01*
X383700Y681650D01*
X383700Y689950D01*
G37*
G36*
X383700Y664550D02*
X389550Y670400D01*
X397850Y670400D01*
X403700Y664550D01*
X403700Y656250D01*
X397850Y650400D01*
X389550Y650400D01*
X383700Y656250D01*
X383700Y664550D01*
G37*
G36*
X383700Y639150D02*
X389550Y645000D01*
X397850Y645000D01*
X403700Y639150D01*
X403700Y630850D01*
X397850Y625000D01*
X389550Y625000D01*
X383700Y630850D01*
X383700Y639150D01*
G37*
G36*
X421800Y715350D02*
X427650Y721200D01*
X435950Y721200D01*
X441800Y715350D01*
X441800Y707050D01*
X435950Y701200D01*
X427650Y701200D01*
X421800Y707050D01*
X421800Y715350D01*
G37*
G36*
X421800Y689950D02*
X427650Y695800D01*
X435950Y695800D01*
X441800Y689950D01*
X441800Y681650D01*
X435950Y675800D01*
X427650Y675800D01*
X421800Y681650D01*
X421800Y689950D01*
G37*
G36*
X421800Y664550D02*
X427650Y670400D01*
X435950Y670400D01*
X441800Y664550D01*
X441800Y656250D01*
X435950Y650400D01*
X427650Y650400D01*
X421800Y656250D01*
X421800Y664550D01*
G37*
G36*
X421800Y639150D02*
X427650Y645000D01*
X435950Y645000D01*
X441800Y639150D01*
X441800Y630850D01*
X435950Y625000D01*
X427650Y625000D01*
X421800Y630850D01*
X421800Y639150D01*
G37*
G54D10*
X330200Y711200D02*
X431800Y711200D01*
G54D10*
X330200Y685800D02*
X431800Y685800D01*
G54D10*
X76200Y660400D02*
X76200Y812800D01*
G54D10*
X50800Y660400D02*
X50800Y812800D01*
X279400Y711200D02*
G54D11*
D03*
X203200Y711200D02*
G54D11*
D03*
X279400Y685800D02*
G54D11*
D03*
X203200Y685800D02*
G54D11*
D03*
G54D10*
X177800Y711200D02*
X203200Y711200D01*
G54D10*
X177800Y685800D02*
X203200Y685800D01*
G54D10*
X279400Y685800D02*
X279400Y711200D01*
X279400Y774700D01*
X292100Y787400D01*
X330200Y787400D01*
X228600Y736600D02*
G54D11*
D03*
X228600Y812800D02*
G54D11*
D03*
G54D10*
X177800Y736600D02*
X228600Y736600D01*
G54D10*
X228600Y812800D02*
X228600Y787400D01*
X177800Y787400D01*
G36*
X54950Y530700D02*
X60800Y524850D01*
X60800Y516550D01*
X54950Y510700D01*
X46650Y510700D01*
X40800Y516550D01*
X40800Y524850D01*
X46650Y530700D01*
X54950Y530700D01*
G37*
G36*
X54950Y556100D02*
X60800Y550250D01*
X60800Y541950D01*
X54950Y536100D01*
X46650Y536100D01*
X40800Y541950D01*
X40800Y550250D01*
X46650Y556100D01*
X54950Y556100D01*
G37*
G36*
X54950Y581500D02*
X60800Y575650D01*
X60800Y567350D01*
X54950Y561500D01*
X46650Y561500D01*
X40800Y567350D01*
X40800Y575650D01*
X46650Y581500D01*
X54950Y581500D01*
G37*
G36*
X54950Y606900D02*
X60800Y601050D01*
X60800Y592750D01*
X54950Y586900D01*
X46650Y586900D01*
X40800Y592750D01*
X40800Y601050D01*
X46650Y606900D01*
X54950Y606900D01*
G37*
G36*
X54950Y632300D02*
X60800Y626450D01*
X60800Y618150D01*
X54950Y612300D01*
X46650Y612300D01*
X40800Y618150D01*
X40800Y626450D01*
X46650Y632300D01*
X54950Y632300D01*
G37*
G54D10*
X50800Y596900D02*
X76200Y596900D01*
X139700Y660400D01*
X177800Y660400D01*
G54D10*
X177800Y635000D02*
X152400Y635000D01*
X88900Y571500D01*
X50800Y571500D01*
G54D10*
X50800Y546100D02*
X101600Y546100D01*
X165100Y609600D01*
X177800Y609600D01*
G54D10*
X50800Y622300D02*
X63500Y622300D01*
X76200Y635000D01*
X76200Y660400D01*
G54D10*
X50800Y520700D02*
X25400Y520700D01*
X25400Y635000D01*
X50800Y660400D01*
X279400Y584200D02*
G54D11*
D03*
X203200Y584200D02*
G54D11*
D03*
X279400Y508000D02*
G54D11*
D03*
X203200Y508000D02*
G54D11*
D03*
G54D10*
X177800Y584200D02*
X203200Y584200D01*
G54D10*
X177800Y508000D02*
X203200Y508000D01*
G54D10*
X279400Y508000D02*
X279400Y584200D01*
G36*
X383700Y524850D02*
X389550Y530700D01*
X397850Y530700D01*
X403700Y524850D01*
X403700Y516550D01*
X397850Y510700D01*
X389550Y510700D01*
X383700Y516550D01*
X383700Y524850D01*
G37*
G36*
X383700Y499450D02*
X389550Y505300D01*
X397850Y505300D01*
X403700Y499450D01*
X403700Y491150D01*
X397850Y485300D01*
X389550Y485300D01*
X383700Y491150D01*
X383700Y499450D01*
G37*
G54D10*
X203200Y584200D02*
X215900Y584200D01*
X241300Y558800D01*
X241300Y495300D01*
X254000Y482600D01*
X381000Y482600D01*
X393700Y495300D01*
X470195Y519249D02*
G54D12*
D03*
X495595Y519249D02*
G54D12*
D03*
X520995Y519249D02*
G54D12*
D03*
G54D10*
X393700Y635000D02*
X431800Y635000D01*
G54D10*
X393700Y660400D02*
X431800Y660400D01*
G54D10*
X330200Y787400D02*
X419100Y787400D01*
X457200Y749300D01*
X457200Y673100D01*
X444500Y660400D01*
X431800Y660400D01*
G54D10*
X431800Y635000D02*
X457200Y635000D01*
X482600Y660400D01*
X482600Y774700D01*
X419100Y838200D01*
X330200Y838200D01*
G54D10*
X292100Y787400D02*
X292100Y825500D01*
X215900Y901700D01*
X50800Y901700D01*
X50800Y812800D01*
G36*
X104300Y867750D02*
X110150Y873600D01*
X118450Y873600D01*
X124300Y867750D01*
X124300Y859450D01*
X118450Y853600D01*
X110150Y853600D01*
X104300Y859450D01*
X104300Y867750D01*
G37*
G36*
X104300Y943950D02*
X110150Y949800D01*
X118450Y949800D01*
X124300Y943950D01*
X124300Y935650D01*
X118450Y929800D01*
X110150Y929800D01*
X104300Y935650D01*
X104300Y943950D01*
G37*
G54D10*
X76200Y812800D02*
X76200Y838200D01*
X101600Y863600D01*
X114300Y863600D01*
G54D10*
X114300Y939800D02*
X215900Y939800D01*
X317500Y838200D01*
X330200Y838200D01*
G54D10*
X393700Y520700D02*
X393700Y635000D01*
G36*
X459900Y601050D02*
X465750Y606900D01*
X474050Y606900D01*
X479900Y601050D01*
X479900Y592750D01*
X474050Y586900D01*
X465750Y586900D01*
X459900Y592750D01*
X459900Y601050D01*
G37*
G36*
X510700Y601050D02*
X516550Y606900D01*
X524850Y606900D01*
X530700Y601050D01*
X530700Y592750D01*
X524850Y586900D01*
X516550Y586900D01*
X510700Y592750D01*
X510700Y601050D01*
G37*
G36*
X297500Y935400D02*
X309200Y947100D01*
X325800Y947100D01*
X337500Y935400D01*
X337500Y918800D01*
X325800Y907100D01*
X309200Y907100D01*
X297500Y918800D01*
X297500Y935400D01*
G37*
G36*
X348300Y935400D02*
X360000Y947100D01*
X376600Y947100D01*
X388300Y935400D01*
X388300Y918800D01*
X376600Y907100D01*
X360000Y907100D01*
X348300Y918800D01*
X348300Y935400D01*
G37*
G36*
X399100Y935400D02*
X410800Y947100D01*
X427400Y947100D01*
X439100Y935400D01*
X439100Y918800D01*
X427400Y907100D01*
X410800Y907100D01*
X399100Y918800D01*
X399100Y935400D01*
G37*
G54D10*
X419100Y927100D02*
X520700Y825500D01*
X520700Y596900D01*
G54D10*
X368300Y927100D02*
X368300Y838200D01*
G54D10*
X50800Y876300D02*
X50800Y927100D01*
X114300Y977900D01*
X266700Y977900D01*
X317500Y927100D01*
G54D10*
X203200Y508000D02*
X203200Y495300D01*
X241300Y457200D01*
X444500Y457200D01*
X469900Y482600D01*
X469900Y518954D01*
X470195Y519249D01*
G54D10*
X495595Y519249D02*
X495595Y533105D01*
X469900Y558800D01*
X469900Y596900D01*
G54D10*
X520995Y519249D02*
X520995Y545805D01*
X495300Y571500D01*
X495300Y647700D01*
X482600Y660400D01*
X25400Y977900D02*
G54D13*
D03*
X571500Y977900D02*
G54D13*
D03*
X571500Y431800D02*
G54D13*
D03*
X25400Y431800D02*
G54D13*
D03*
G36*
X394188Y765930D02*
X400038Y771780D01*
X408338Y771780D01*
X414188Y765930D01*
X414188Y757630D01*
X408338Y751780D01*
X400038Y751780D01*
X394188Y757630D01*
X394188Y765930D01*
G37*
G54D10*
X330200Y762000D02*
X403536Y762000D01*
X386694Y762032D02*
G54D11*
D03*
X386694Y838232D02*
G54D11*
D03*
M02*
