%FSLAX34Y34*%
%MOMM*%
%LNSILK_TOP*%
G71*
G01*
%ADD10C, 0.20*%
%ADD11C, 0.19*%
%ADD12C, 0.22*%
%ADD13C, 0.17*%
%ADD14C, 0.10*%
%ADD15C, 0.09*%
%ADD16C, 0.11*%
%ADD17C, 0.25*%
%ADD18C, 0.17*%
%ADD19C, 0.30*%
%ADD20C, 1.00*%
%LPD*%
G54D10*
X755131Y686093D02*
X932931Y686093D01*
X932931Y305093D01*
X755131Y305093D01*
X755131Y686093D01*
G54D11*
X937640Y690824D02*
X941640Y680157D01*
X945640Y690824D01*
G54D11*
X949373Y680157D02*
X955773Y680157D01*
G54D11*
X952573Y680157D02*
X952573Y690824D01*
G54D11*
X949373Y690824D02*
X955773Y690824D01*
G54D11*
X959506Y680157D02*
X959506Y690824D01*
X965906Y680157D01*
X965906Y690824D01*
G54D11*
X969639Y684824D02*
X976039Y684824D01*
G54D11*
X972839Y687490D02*
X972839Y682157D01*
G54D11*
X970439Y686824D02*
X975239Y682824D01*
G54D11*
X970439Y682824D02*
X975239Y686824D01*
G54D11*
X942238Y648304D02*
X945438Y648304D01*
X945438Y644970D01*
X944638Y643637D01*
X943038Y642970D01*
X941438Y642970D01*
X939838Y643637D01*
X939038Y644970D01*
X939038Y651637D01*
X939838Y652971D01*
X941438Y653637D01*
X943038Y653637D01*
X944638Y652971D01*
X945437Y651637D01*
G54D11*
X949171Y642970D02*
X949171Y653637D01*
X955571Y642970D01*
X955571Y653637D01*
G54D11*
X959304Y642970D02*
X959304Y653637D01*
X963304Y653637D01*
X964904Y652971D01*
X965704Y651637D01*
X965704Y644970D01*
X964904Y643637D01*
X963304Y642970D01*
X959304Y642970D01*
G54D11*
X885223Y623215D02*
X887624Y621882D01*
X888423Y620548D01*
X888423Y617881D01*
G54D11*
X882024Y617881D02*
X882023Y628548D01*
X886024Y628548D01*
X887623Y627881D01*
X888424Y626548D01*
X888424Y625215D01*
X887623Y623881D01*
X886023Y623215D01*
X882024Y623215D01*
G54D11*
X892156Y619882D02*
X892956Y618548D01*
X894556Y617881D01*
X896156Y617881D01*
X897756Y618548D01*
X898556Y619882D01*
X898556Y621215D01*
X897756Y622548D01*
X896156Y623215D01*
X894556Y623215D01*
X892956Y623881D01*
X892156Y625215D01*
X892156Y626548D01*
X892956Y627881D01*
X894556Y628548D01*
X896156Y628548D01*
X897756Y627882D01*
X898556Y626548D01*
G54D11*
X905489Y617882D02*
X905489Y628548D01*
G54D11*
X902289Y628548D02*
X908689Y628548D01*
G54D11*
X894917Y600450D02*
X888517Y600450D01*
X888517Y595784D01*
X889317Y595784D01*
X890917Y596450D01*
X892517Y596450D01*
X894117Y595784D01*
X894917Y594450D01*
X894917Y591784D01*
X894117Y590450D01*
X892517Y589784D01*
X890917Y589784D01*
X889317Y590450D01*
X888517Y591784D01*
G54D11*
X898650Y600450D02*
X902650Y589784D01*
X906650Y600450D01*
G54D11*
X889135Y565905D02*
X893135Y576572D01*
X897135Y565905D01*
G54D11*
X890735Y569905D02*
X895535Y569905D01*
G54D11*
X900868Y576572D02*
X907268Y576572D01*
X906468Y575239D01*
X904868Y573239D01*
X903268Y570572D01*
X902468Y568572D01*
X902468Y565905D01*
G54D11*
X887466Y540288D02*
X891466Y550955D01*
X895466Y540288D01*
G54D11*
X889066Y544288D02*
X893866Y544288D01*
G54D11*
X905599Y548955D02*
X904799Y550288D01*
X903199Y550955D01*
X901599Y550955D01*
X899999Y550288D01*
X899199Y548955D01*
X899199Y545622D01*
X899199Y544955D01*
X901599Y546289D01*
X903199Y546288D01*
X904799Y545622D01*
X905599Y544288D01*
X905599Y542288D01*
X904799Y540955D01*
X903199Y540288D01*
X901599Y540288D01*
X899999Y540955D01*
X899199Y542288D01*
X899199Y545622D01*
G54D11*
X887727Y514308D02*
X891727Y524975D01*
X895727Y514308D01*
G54D11*
X889327Y518308D02*
X894127Y518308D01*
G54D11*
X905860Y524975D02*
X899460Y524975D01*
X899460Y520308D01*
X900260Y520308D01*
X901860Y520975D01*
X903460Y520975D01*
X905060Y520308D01*
X905860Y518975D01*
X905860Y516308D01*
X905060Y514975D01*
X903460Y514308D01*
X901860Y514308D01*
X900260Y514975D01*
X899460Y516308D01*
G54D11*
X888707Y490682D02*
X892707Y501348D01*
X896707Y490682D01*
G54D11*
X890307Y494681D02*
X895107Y494681D01*
G54D11*
X905240Y490681D02*
X905240Y501348D01*
X900440Y494681D01*
X900440Y493348D01*
X906840Y493348D01*
G54D11*
X936944Y467054D02*
X940944Y477720D01*
X944944Y467054D01*
G54D11*
X938544Y471054D02*
X943344Y471054D01*
G54D11*
X948677Y475720D02*
X949477Y477054D01*
X951076Y477720D01*
X952676Y477720D01*
X954277Y477054D01*
X955077Y475720D01*
X955077Y474387D01*
X954276Y473054D01*
X952677Y472387D01*
X954277Y471720D01*
X955076Y470387D01*
X955077Y469054D01*
X954277Y467720D01*
X952676Y467054D01*
X951076Y467054D01*
X949476Y467720D01*
X948677Y469054D01*
G54D11*
X936420Y441400D02*
X940420Y452066D01*
X944420Y441400D01*
G54D11*
X938020Y445400D02*
X942819Y445400D01*
G54D11*
X954553Y441400D02*
X948152Y441400D01*
X948152Y442066D01*
X948953Y443400D01*
X953753Y447400D01*
X954553Y448733D01*
X954553Y450066D01*
X953753Y451400D01*
X952153Y452066D01*
X950553Y452066D01*
X948953Y451400D01*
X948153Y450066D01*
G54D11*
X937467Y417316D02*
X941467Y427982D01*
X945467Y417316D01*
G54D11*
X939067Y421316D02*
X943867Y421316D01*
G54D11*
X949200Y423982D02*
X953200Y427982D01*
X953200Y417316D01*
G54D11*
X936420Y390091D02*
X940420Y400757D01*
X944420Y390091D01*
G54D11*
X938020Y394091D02*
X942820Y394091D01*
G54D11*
X954553Y398757D02*
X954553Y392091D01*
X953752Y390757D01*
X952153Y390091D01*
X950553Y390091D01*
X948953Y390757D01*
X948153Y392091D01*
X948152Y398757D01*
X948953Y400091D01*
X950552Y400757D01*
X952153Y400757D01*
X953752Y400091D01*
X954553Y398757D01*
G54D11*
X941191Y369246D02*
X943591Y367913D01*
X944391Y366579D01*
X944391Y363913D01*
G54D11*
X937991Y363912D02*
X937991Y374579D01*
X941991Y374579D01*
X943591Y373913D01*
X944391Y372579D01*
X944391Y371246D01*
X943591Y369913D01*
X941991Y369246D01*
X937991Y369246D01*
G54D11*
X953724Y363913D02*
X948124Y363913D01*
X948124Y374579D01*
X953724Y374579D01*
G54D11*
X948124Y369246D02*
X953724Y369246D01*
G54D11*
X957456Y363913D02*
X957456Y374579D01*
X963057Y374579D01*
G54D11*
X957457Y369246D02*
X963057Y369246D01*
G54D11*
X936944Y347972D02*
X937744Y349306D01*
X939344Y349972D01*
X940944Y349972D01*
X942544Y349306D01*
X943344Y347972D01*
X943344Y346639D01*
X942544Y345306D01*
X940944Y344639D01*
X942544Y343972D01*
X943344Y342639D01*
X943344Y341306D01*
X942544Y339972D01*
X940944Y339306D01*
X939344Y339306D01*
X937744Y339972D01*
X936944Y341306D01*
G54D11*
X947076Y349972D02*
X951076Y339306D01*
X955077Y349972D01*
G54D11*
X958810Y347972D02*
X959610Y349306D01*
X961210Y349972D01*
X962810Y349972D01*
X964410Y349306D01*
X965210Y347972D01*
X965210Y346639D01*
X964410Y345306D01*
X962810Y344639D01*
X964410Y343972D01*
X965210Y342639D01*
X965210Y341306D01*
X964410Y339972D01*
X962810Y339306D01*
X961210Y339306D01*
X959610Y339972D01*
X958810Y341306D01*
G54D11*
X937991Y314175D02*
X937991Y324841D01*
X941991Y324841D01*
X943591Y324175D01*
X944391Y322841D01*
X944391Y316175D01*
X943591Y314841D01*
X941991Y314175D01*
X937991Y314175D01*
G54D11*
X948124Y320841D02*
X952124Y324841D01*
X952124Y314175D01*
G54D11*
X955857Y322841D02*
X956657Y324175D01*
X958257Y324841D01*
X959856Y324841D01*
X961457Y324175D01*
X962257Y322841D01*
X962257Y321508D01*
X961457Y320175D01*
X959857Y319508D01*
X961457Y318841D01*
X962257Y317508D01*
X962257Y316175D01*
X961457Y314841D01*
X959857Y314175D01*
X958256Y314175D01*
X956657Y314841D01*
X955857Y316175D01*
G54D11*
X706130Y668021D02*
X706130Y678688D01*
G54D11*
X702930Y678688D02*
X709330Y678688D01*
G54D11*
X713063Y678688D02*
X721062Y668021D01*
G54D11*
X713063Y668021D02*
X721062Y678688D01*
G54D11*
X724796Y674688D02*
X728796Y678688D01*
X728796Y668021D01*
G54D11*
X723913Y649350D02*
X726313Y648016D01*
X727113Y646683D01*
X727112Y644016D01*
G54D11*
X720713Y644016D02*
X720712Y654683D01*
X724713Y654683D01*
X726313Y654017D01*
X727113Y652683D01*
X727113Y651350D01*
X726313Y650016D01*
X724712Y649350D01*
X720713Y649350D01*
G54D11*
X730846Y654683D02*
X738846Y644016D01*
G54D11*
X730846Y644016D02*
X738846Y654683D01*
G54D11*
X748979Y652683D02*
X748978Y646016D01*
X748179Y644683D01*
X746579Y644016D01*
X744979Y644016D01*
X743379Y644683D01*
X742579Y646016D01*
X742579Y652683D01*
X743379Y654017D01*
X744979Y654683D01*
X746579Y654683D01*
X748179Y654017D01*
X748979Y652683D01*
G54D11*
X725484Y621601D02*
X727884Y620268D01*
X728684Y618934D01*
X728684Y616268D01*
G54D11*
X722284Y616268D02*
X722284Y626935D01*
X726284Y626934D01*
X727884Y626268D01*
X728684Y624934D01*
X728684Y623601D01*
X727884Y622268D01*
X726284Y621601D01*
X722284Y621601D01*
G54D11*
X732417Y618268D02*
X733217Y616934D01*
X734816Y616268D01*
X736416Y616268D01*
X738017Y616934D01*
X738817Y618268D01*
X738817Y619601D01*
X738017Y620934D01*
X736417Y621601D01*
X734817Y621601D01*
X733217Y622268D01*
X732417Y623601D01*
X732417Y624934D01*
X733217Y626268D01*
X734817Y626935D01*
X736416Y626935D01*
X738017Y626268D01*
X738817Y624934D01*
G54D11*
X745750Y616268D02*
X745750Y626934D01*
G54D11*
X742550Y626935D02*
X748950Y626934D01*
G54D11*
X726530Y598565D02*
X729731Y598565D01*
X729731Y595232D01*
X728930Y593898D01*
X727330Y593232D01*
X725731Y593232D01*
X724131Y593898D01*
X723331Y595232D01*
X723331Y601898D01*
X724131Y603232D01*
X725731Y603898D01*
X727331Y603898D01*
X728930Y603232D01*
X729731Y601899D01*
G54D11*
X733464Y593232D02*
X733464Y603898D01*
X739864Y593232D01*
X739864Y603898D01*
G54D11*
X743597Y593232D02*
X743597Y603898D01*
X747597Y603898D01*
X749197Y603232D01*
X749997Y601898D01*
X749997Y595232D01*
X749197Y593898D01*
X747597Y593232D01*
X743597Y593232D01*
G54D11*
X729614Y566530D02*
X729614Y577196D01*
X733614Y577196D01*
X735214Y576530D01*
X736014Y575196D01*
X736014Y568530D01*
X735214Y567196D01*
X733614Y566530D01*
X729614Y566530D01*
G54D11*
X746147Y566530D02*
X739747Y566530D01*
X739747Y567196D01*
X740547Y568530D01*
X745347Y572530D01*
X746147Y573863D01*
X746147Y575196D01*
X745347Y576530D01*
X743747Y577196D01*
X742147Y577196D01*
X740547Y576530D01*
X739746Y575196D01*
G54D11*
X729731Y540043D02*
X729731Y550709D01*
X733731Y550709D01*
X735331Y550043D01*
X736131Y548709D01*
X736131Y542043D01*
X735331Y540709D01*
X733730Y540043D01*
X729731Y540043D01*
G54D11*
X739864Y548709D02*
X740664Y550043D01*
X742264Y550709D01*
X743864Y550709D01*
X745464Y550043D01*
X746264Y548709D01*
X746264Y547376D01*
X745464Y546043D01*
X743864Y545376D01*
X745464Y544709D01*
X746264Y543376D01*
X746264Y542043D01*
X745464Y540710D01*
X743864Y540043D01*
X742264Y540043D01*
X740664Y540709D01*
X739864Y542043D01*
G54D11*
X729614Y516792D02*
X729614Y527458D01*
X733613Y527458D01*
X735214Y526792D01*
X736014Y525458D01*
X736014Y518792D01*
X735214Y517458D01*
X733614Y516792D01*
X729614Y516792D01*
G54D11*
X744547Y516792D02*
X744547Y527458D01*
X739746Y520792D01*
X739747Y519458D01*
X746147Y519458D01*
G54D11*
X729090Y493232D02*
X729090Y503898D01*
X733090Y503898D01*
X734690Y503232D01*
X735490Y501898D01*
X735490Y495232D01*
X734690Y493898D01*
X733090Y493232D01*
X729090Y493232D01*
G54D11*
X745622Y503898D02*
X739223Y503898D01*
X739222Y499232D01*
X740023Y499232D01*
X741623Y499898D01*
X743222Y499898D01*
X744823Y499232D01*
X745622Y497898D01*
X745622Y495232D01*
X744823Y493898D01*
X743223Y493232D01*
X741623Y493232D01*
X740023Y493898D01*
X739223Y495232D01*
G54D11*
X731184Y467054D02*
X731184Y477720D01*
X735185Y477720D01*
X736784Y477054D01*
X737585Y475720D01*
X737585Y469054D01*
X736785Y467720D01*
X735184Y467054D01*
X731184Y467054D01*
G54D11*
X747718Y475720D02*
X746918Y477054D01*
X745318Y477720D01*
X743717Y477720D01*
X742118Y477054D01*
X741318Y475720D01*
X741318Y472387D01*
X741318Y471720D01*
X743717Y473054D01*
X745318Y473054D01*
X746918Y472387D01*
X747718Y471054D01*
X747718Y469054D01*
X746918Y467720D01*
X745318Y467054D01*
X743717Y467054D01*
X742118Y467720D01*
X741318Y469054D01*
X741318Y472387D01*
G54D11*
X732232Y439305D02*
X732232Y449971D01*
X736232Y449971D01*
X737832Y449305D01*
X738631Y447971D01*
X738632Y441305D01*
X737832Y439971D01*
X736232Y439305D01*
X732232Y439305D01*
G54D11*
X742365Y449971D02*
X748764Y449971D01*
X747964Y448638D01*
X746365Y446638D01*
X744765Y443971D01*
X743965Y441971D01*
X743965Y439305D01*
G54D11*
X732232Y414698D02*
X732232Y425364D01*
X736232Y425364D01*
X737832Y424698D01*
X738632Y423364D01*
X738632Y416698D01*
X737831Y415364D01*
X736232Y414698D01*
X732232Y414698D01*
G54D11*
X746365Y420031D02*
X744765Y420031D01*
X743165Y420698D01*
X742365Y422031D01*
X742365Y423364D01*
X743165Y424698D01*
X744765Y425364D01*
X746365Y425364D01*
X747965Y424698D01*
X748765Y423364D01*
X748765Y422031D01*
X747965Y420698D01*
X746365Y420031D01*
X747965Y419364D01*
X748764Y418031D01*
X748765Y416698D01*
X747965Y415364D01*
X746365Y414698D01*
X744765Y414698D01*
X743164Y415364D01*
X742365Y416698D01*
X742365Y418031D01*
X743165Y419364D01*
X744765Y420031D01*
G54D11*
X733802Y388520D02*
X733801Y399186D01*
X737802Y399186D01*
X739402Y398520D01*
X740202Y397186D01*
X740202Y390520D01*
X739402Y389186D01*
X737802Y388520D01*
X733802Y388520D01*
G54D11*
X743935Y390520D02*
X744735Y389186D01*
X746335Y388520D01*
X747935Y388520D01*
X749535Y389186D01*
X750335Y390520D01*
X750334Y393853D01*
X750334Y394520D01*
X747935Y393186D01*
X746334Y393186D01*
X744735Y393853D01*
X743935Y395186D01*
X743935Y397186D01*
X744735Y398520D01*
X746335Y399186D01*
X747935Y399186D01*
X749535Y398520D01*
X750335Y397186D01*
X750334Y393853D01*
G54D11*
X725425Y364959D02*
X725425Y375625D01*
X729425Y375625D01*
X731025Y374959D01*
X731825Y373625D01*
X731825Y366959D01*
X731025Y365625D01*
X729425Y364959D01*
X725425Y364959D01*
G54D11*
X735558Y371625D02*
X739558Y375625D01*
X739558Y364959D01*
G54D11*
X749691Y373625D02*
X749690Y366959D01*
X748891Y365625D01*
X747291Y364959D01*
X745691Y364959D01*
X744091Y365625D01*
X743291Y366959D01*
X743291Y373625D01*
X744090Y374959D01*
X745691Y375625D01*
X747291Y375625D01*
X748890Y374959D01*
X749691Y373625D01*
G54D11*
X725949Y339829D02*
X725948Y350495D01*
X729949Y350495D01*
X731548Y349829D01*
X732349Y348495D01*
X732349Y341829D01*
X731549Y340495D01*
X729949Y339829D01*
X725949Y339829D01*
G54D11*
X736082Y346495D02*
X740082Y350495D01*
X740082Y339829D01*
G54D11*
X743814Y346495D02*
X747814Y350495D01*
X747815Y339829D01*
G54D11*
X724378Y311556D02*
X724378Y322222D01*
X728378Y322222D01*
X729978Y321556D01*
X730778Y320222D01*
X730778Y313556D01*
X729978Y312222D01*
X728378Y311556D01*
X724378Y311556D01*
G54D11*
X734510Y318222D02*
X738511Y322222D01*
X738511Y311556D01*
G54D11*
X748644Y311556D02*
X742244Y311556D01*
X742244Y312222D01*
X743044Y313556D01*
X747844Y317556D01*
X748644Y318889D01*
X748644Y320222D01*
X747844Y321556D01*
X746244Y322222D01*
X744644Y322222D01*
X743044Y321556D01*
X742244Y320222D01*
G54D11*
X784356Y387465D02*
X784356Y398132D01*
X788356Y398132D01*
X789956Y397465D01*
X790756Y396132D01*
X790756Y394798D01*
X789956Y393465D01*
X788356Y392799D01*
X784356Y392799D01*
G54D11*
X794489Y398132D02*
X794489Y387465D01*
X798489Y394132D01*
X802489Y387465D01*
X802489Y398132D01*
G54D11*
X806222Y387465D02*
X806222Y398132D01*
X810222Y391465D01*
X814222Y398132D01*
X814222Y387465D01*
G54D11*
X784064Y364436D02*
X784064Y375102D01*
X788064Y375102D01*
X789664Y374436D01*
X790464Y373102D01*
X790464Y371769D01*
X789664Y370436D01*
X788064Y369769D01*
X784064Y369769D01*
G54D11*
X794197Y375102D02*
X794197Y364436D01*
X798197Y371102D01*
X802197Y364436D01*
X802197Y375102D01*
G54D11*
X805930Y364436D02*
X805930Y375102D01*
X809930Y368436D01*
X813930Y375102D01*
X813930Y364436D01*
G54D11*
X783017Y337734D02*
X783017Y348400D01*
X787016Y348400D01*
X788617Y347734D01*
X789416Y346400D01*
X789416Y345067D01*
X788617Y343734D01*
X787017Y343067D01*
X783017Y343067D01*
G54D11*
X793150Y348400D02*
X793150Y337734D01*
X797150Y344400D01*
X801150Y337734D01*
X801150Y348400D01*
G54D11*
X804883Y337734D02*
X804883Y348400D01*
X808883Y341734D01*
X812883Y348400D01*
X812883Y337734D01*
G54D11*
X780399Y566007D02*
X786799Y566007D01*
G54D11*
X783599Y566007D02*
X783599Y576673D01*
G54D11*
X780399Y576673D02*
X786799Y576673D01*
G54D11*
X790532Y566007D02*
X790532Y576674D01*
X796932Y566007D01*
X796932Y576673D01*
G54D11*
X803864Y566007D02*
X803864Y576673D01*
G54D11*
X800665Y576673D02*
X807064Y576673D01*
G54D11*
X817198Y574673D02*
X817198Y568007D01*
X816398Y566673D01*
X814798Y566007D01*
X813198Y566007D01*
X811598Y566673D01*
X810798Y568007D01*
X810798Y574673D01*
X811597Y576007D01*
X813198Y576673D01*
X814798Y576673D01*
X816398Y576007D01*
X817198Y574673D01*
G54D10*
X228600Y863600D02*
X508000Y863600D01*
X508000Y482600D01*
X228600Y482600D01*
X228600Y863600D01*
G54D12*
X289452Y839050D02*
X280119Y839050D01*
X280119Y856828D01*
X289452Y856828D01*
G54D12*
X280119Y847939D02*
X289452Y847939D01*
G54D12*
X294341Y842383D02*
X295674Y840161D01*
X298341Y839050D01*
X301008Y839050D01*
X303674Y840161D01*
X305008Y842383D01*
X305008Y844606D01*
X303674Y846828D01*
X301008Y847939D01*
X298341Y847939D01*
X295674Y849050D01*
X294341Y851272D01*
X294341Y853495D01*
X295674Y855717D01*
X298341Y856828D01*
X301008Y856828D01*
X303674Y855717D01*
X305008Y853495D01*
G54D12*
X309897Y839050D02*
X309897Y856828D01*
X316564Y856828D01*
X319230Y855717D01*
X320564Y853495D01*
X320564Y851272D01*
X319230Y849050D01*
X316564Y847939D01*
X309897Y847939D01*
G54D12*
X325453Y846828D02*
X336120Y846828D01*
G54D12*
X341009Y856828D02*
X341009Y839050D01*
X347676Y850161D01*
X354342Y839050D01*
X354342Y856828D01*
G54D12*
X364564Y847939D02*
X368564Y845717D01*
X369898Y843495D01*
X369898Y839050D01*
G54D12*
X359231Y839050D02*
X359231Y856828D01*
X365898Y856828D01*
X368564Y855717D01*
X369898Y853495D01*
X369898Y851272D01*
X368564Y849050D01*
X365898Y847939D01*
X359231Y847939D01*
G54D12*
X385454Y853495D02*
X385454Y842383D01*
X384120Y840161D01*
X381454Y839050D01*
X378787Y839050D01*
X376120Y840161D01*
X374787Y842383D01*
X374787Y853495D01*
X376120Y855717D01*
X378787Y856828D01*
X381454Y856828D01*
X384120Y855717D01*
X385454Y853495D01*
G54D12*
X401010Y853495D02*
X401010Y842383D01*
X399676Y840161D01*
X397010Y839050D01*
X394343Y839050D01*
X391676Y840161D01*
X390343Y842383D01*
X390343Y853495D01*
X391676Y855717D01*
X394343Y856828D01*
X397010Y856828D01*
X399676Y855717D01*
X401010Y853495D01*
G54D12*
X405899Y839050D02*
X405899Y856828D01*
X412566Y845717D01*
X419232Y856828D01*
X419232Y839050D01*
G54D12*
X424121Y846828D02*
X434788Y846828D01*
G54D12*
X439677Y853495D02*
X441010Y855717D01*
X443677Y856828D01*
X446344Y856828D01*
X449010Y855717D01*
X450344Y853495D01*
X450344Y851272D01*
X449010Y849050D01*
X446344Y847939D01*
X449010Y846828D01*
X450344Y844606D01*
X450344Y842383D01*
X449010Y840161D01*
X446344Y839050D01*
X443677Y839050D01*
X441010Y840161D01*
X439677Y842383D01*
G54D12*
X465900Y839050D02*
X455233Y839050D01*
X455233Y840161D01*
X456566Y842383D01*
X464566Y849050D01*
X465900Y851272D01*
X465900Y853495D01*
X464566Y855717D01*
X461900Y856828D01*
X459233Y856828D01*
X456566Y855717D01*
X455233Y853495D01*
G54D13*
X354983Y504467D02*
X354983Y493633D01*
X355983Y491967D01*
X357983Y491133D01*
X359983Y491133D01*
X361983Y491967D01*
X362983Y493633D01*
X362983Y504467D01*
G54D13*
X366650Y493633D02*
X367650Y491967D01*
X369650Y491133D01*
X371650Y491133D01*
X373650Y491967D01*
X374650Y493633D01*
X374650Y495300D01*
X373650Y496967D01*
X371650Y497800D01*
X369650Y497800D01*
X367650Y498633D01*
X366650Y500300D01*
X366650Y501967D01*
X367650Y503633D01*
X369650Y504467D01*
X371650Y504467D01*
X373650Y503633D01*
X374650Y501967D01*
G54D13*
X378317Y491133D02*
X378317Y504467D01*
X383317Y504467D01*
X385317Y503633D01*
X386317Y501967D01*
X386317Y500300D01*
X385317Y498633D01*
X383317Y497800D01*
X385317Y496967D01*
X386317Y495300D01*
X386317Y493633D01*
X385317Y491967D01*
X383317Y491133D01*
X378317Y491133D01*
G54D13*
X378317Y497800D02*
X383317Y497800D01*
G54D13*
X212612Y844247D02*
X205612Y844247D01*
X205612Y857580D01*
X212612Y857580D01*
G54D13*
X205612Y850913D02*
X212612Y850913D01*
G54D13*
X216279Y844247D02*
X216279Y857580D01*
X224279Y844247D01*
X224279Y857580D01*
G54D13*
X203729Y830490D02*
X208729Y817156D01*
X213729Y830490D01*
G54D13*
X217396Y817156D02*
X217396Y830490D01*
X222396Y830490D01*
X224396Y829656D01*
X225396Y827990D01*
X225396Y826323D01*
X224396Y824656D01*
X222396Y823823D01*
X217396Y823823D01*
G54D13*
X202746Y811220D02*
X207746Y797887D01*
X212746Y811220D01*
G54D13*
X216413Y797887D02*
X216413Y811220D01*
X224413Y797887D01*
X224413Y811220D01*
G54D13*
X187336Y778305D02*
X188336Y779971D01*
X190336Y780805D01*
X192336Y780805D01*
X194336Y779971D01*
X195336Y778305D01*
X195336Y776638D01*
X194336Y774971D01*
X192336Y774138D01*
X194336Y773305D01*
X195336Y771638D01*
X195336Y769971D01*
X194336Y768305D01*
X192336Y767471D01*
X190336Y767471D01*
X188336Y768305D01*
X187336Y769971D01*
G54D13*
X205003Y767471D02*
X205003Y780805D01*
X199003Y772471D01*
X199003Y770805D01*
X207003Y770805D01*
G54D13*
X186654Y752294D02*
X187654Y753961D01*
X189654Y754794D01*
X191654Y754794D01*
X193654Y753961D01*
X194654Y752294D01*
X194654Y750627D01*
X193654Y748961D01*
X191654Y748127D01*
X193654Y747294D01*
X194654Y745627D01*
X194654Y743961D01*
X193654Y742294D01*
X191654Y741461D01*
X189654Y741461D01*
X187654Y742294D01*
X186654Y743961D01*
G54D13*
X206321Y754794D02*
X198321Y754794D01*
X198321Y748961D01*
X199321Y748961D01*
X201321Y749794D01*
X203321Y749794D01*
X205321Y748961D01*
X206321Y747294D01*
X206321Y743961D01*
X205321Y742294D01*
X203321Y741461D01*
X201321Y741461D01*
X199321Y742294D01*
X198321Y743961D01*
G54D13*
X204564Y727307D02*
X205564Y728974D01*
X207564Y729807D01*
X209564Y729807D01*
X211564Y728974D01*
X212564Y727307D01*
X212564Y725641D01*
X211564Y723974D01*
X209564Y723141D01*
X211564Y722307D01*
X212564Y720641D01*
X212564Y718974D01*
X211564Y717307D01*
X209564Y716474D01*
X207564Y716474D01*
X205564Y717307D01*
X204564Y718974D01*
G54D13*
X224231Y716474D02*
X216231Y716474D01*
X216231Y717307D01*
X217231Y718974D01*
X223231Y723974D01*
X224231Y725641D01*
X224231Y727307D01*
X223231Y728974D01*
X221231Y729807D01*
X219231Y729807D01*
X217231Y728974D01*
X216231Y727307D01*
G54D13*
X205268Y701487D02*
X206268Y703154D01*
X208268Y703987D01*
X210268Y703987D01*
X212268Y703154D01*
X213268Y701487D01*
X213268Y699820D01*
X212268Y698154D01*
X210268Y697320D01*
X212268Y696487D01*
X213268Y694820D01*
X213268Y693154D01*
X212268Y691487D01*
X210268Y690654D01*
X208268Y690654D01*
X206268Y691487D01*
X205268Y693154D01*
G54D13*
X216935Y701487D02*
X217935Y703154D01*
X219935Y703987D01*
X221935Y703987D01*
X223935Y703154D01*
X224935Y701487D01*
X224935Y699820D01*
X223935Y698154D01*
X221935Y697320D01*
X223935Y696487D01*
X224935Y694820D01*
X224935Y693154D01*
X223935Y691487D01*
X221935Y690654D01*
X219935Y690654D01*
X217935Y691487D01*
X216935Y693154D01*
G54D13*
X213515Y665171D02*
X205515Y665171D01*
X205515Y666004D01*
X206515Y667671D01*
X212515Y672671D01*
X213515Y674337D01*
X213515Y676004D01*
X212515Y677671D01*
X210515Y678504D01*
X208515Y678504D01*
X206515Y677671D01*
X205515Y676004D01*
G54D13*
X225182Y678504D02*
X217182Y678504D01*
X217182Y672671D01*
X218182Y672671D01*
X220182Y673504D01*
X222182Y673504D01*
X224182Y672671D01*
X225182Y671004D01*
X225182Y667671D01*
X224182Y666004D01*
X222182Y665171D01*
X220182Y665171D01*
X218182Y666004D01*
X217182Y667671D01*
G54D13*
X213627Y641375D02*
X205627Y641375D01*
X205627Y642208D01*
X206627Y643875D01*
X212627Y648875D01*
X213627Y650542D01*
X213627Y652208D01*
X212627Y653875D01*
X210627Y654708D01*
X208627Y654708D01*
X206627Y653875D01*
X205627Y652208D01*
G54D13*
X225294Y652208D02*
X224294Y653875D01*
X222294Y654708D01*
X220294Y654708D01*
X218294Y653875D01*
X217294Y652208D01*
X217294Y648042D01*
X217294Y647208D01*
X220294Y648875D01*
X222294Y648875D01*
X224294Y648042D01*
X225294Y646375D01*
X225294Y643875D01*
X224294Y642208D01*
X222294Y641375D01*
X220294Y641375D01*
X218294Y642208D01*
X217294Y643875D01*
X217294Y648042D01*
G54D13*
X213145Y615971D02*
X205145Y615971D01*
X205145Y616805D01*
X206145Y618471D01*
X212145Y623471D01*
X213145Y625138D01*
X213145Y626805D01*
X212145Y628471D01*
X210145Y629305D01*
X208145Y629305D01*
X206145Y628471D01*
X205145Y626805D01*
G54D13*
X216812Y629305D02*
X224812Y629305D01*
X223812Y627638D01*
X221812Y625138D01*
X219812Y621805D01*
X218812Y619305D01*
X218812Y615971D01*
G54D13*
X206248Y598916D02*
X211248Y603916D01*
X211248Y590583D01*
G54D13*
X220915Y590583D02*
X220915Y603916D01*
X214915Y595583D01*
X214915Y593916D01*
X222915Y593916D01*
G54D13*
X205562Y573368D02*
X210562Y578368D01*
X210562Y565034D01*
G54D13*
X222229Y565034D02*
X214229Y565034D01*
X214229Y565868D01*
X215229Y567534D01*
X221229Y572534D01*
X222229Y574201D01*
X222229Y575868D01*
X221229Y577534D01*
X219229Y578368D01*
X217229Y578368D01*
X215229Y577534D01*
X214229Y575868D01*
G54D13*
X206242Y547748D02*
X211242Y552748D01*
X211242Y539415D01*
G54D13*
X214909Y550248D02*
X215909Y551915D01*
X217909Y552748D01*
X219909Y552748D01*
X221909Y551915D01*
X222909Y550248D01*
X222909Y548581D01*
X221909Y546915D01*
X219909Y546081D01*
X221909Y545248D01*
X222909Y543581D01*
X222909Y541915D01*
X221909Y540248D01*
X219909Y539415D01*
X217909Y539415D01*
X215909Y540248D01*
X214909Y541915D01*
G54D13*
X196500Y521806D02*
X200500Y521806D01*
X200500Y517640D01*
X199500Y515973D01*
X197500Y515140D01*
X195500Y515140D01*
X193500Y515973D01*
X192500Y517640D01*
X192500Y525973D01*
X193500Y527640D01*
X195500Y528473D01*
X197500Y528473D01*
X199500Y527640D01*
X200500Y525973D01*
G54D13*
X204167Y515140D02*
X204167Y528473D01*
X212167Y515140D01*
X212167Y528473D01*
G54D13*
X215834Y515140D02*
X215834Y528473D01*
X220834Y528473D01*
X222834Y527640D01*
X223834Y525973D01*
X223834Y517640D01*
X222834Y515973D01*
X220834Y515140D01*
X215834Y515140D01*
G54D13*
X190436Y501118D02*
X195436Y487784D01*
X200436Y501118D01*
G54D13*
X204103Y487784D02*
X212103Y487784D01*
G54D13*
X208103Y487784D02*
X208103Y501118D01*
G54D13*
X204103Y501118D02*
X212103Y501118D01*
G54D13*
X215770Y487784D02*
X215770Y501118D01*
X223770Y487784D01*
X223770Y501118D01*
G54D13*
X520072Y844528D02*
X512072Y844528D01*
X512072Y845362D01*
X513072Y847028D01*
X519072Y852028D01*
X520072Y853695D01*
X520072Y855362D01*
X519072Y857028D01*
X517072Y857862D01*
X515072Y857862D01*
X513072Y857028D01*
X512072Y855362D01*
G54D13*
X523739Y855362D02*
X524739Y857028D01*
X526739Y857862D01*
X528739Y857862D01*
X530739Y857028D01*
X531739Y855362D01*
X531739Y853695D01*
X530739Y852028D01*
X528739Y851195D01*
X530739Y850362D01*
X531739Y848695D01*
X531739Y847028D01*
X530739Y845362D01*
X528739Y844528D01*
X526739Y844528D01*
X524739Y845362D01*
X523739Y847028D01*
G54D13*
X519844Y818855D02*
X511844Y818855D01*
X511844Y819688D01*
X512844Y821355D01*
X518844Y826355D01*
X519844Y828022D01*
X519844Y829688D01*
X518844Y831355D01*
X516844Y832188D01*
X514844Y832188D01*
X512844Y831355D01*
X511844Y829688D01*
G54D13*
X531511Y818855D02*
X523511Y818855D01*
X523511Y819688D01*
X524511Y821355D01*
X530511Y826355D01*
X531511Y828022D01*
X531511Y829688D01*
X530511Y831355D01*
X528511Y832188D01*
X526511Y832188D01*
X524511Y831355D01*
X523511Y829688D01*
G54D13*
X511862Y801644D02*
X516862Y806644D01*
X516862Y793311D01*
G54D13*
X511289Y778075D02*
X512289Y779742D01*
X514289Y780575D01*
X516289Y780575D01*
X518289Y779742D01*
X519289Y778075D01*
X519289Y776408D01*
X518289Y774742D01*
X516289Y773908D01*
X518289Y773075D01*
X519289Y771408D01*
X519289Y769742D01*
X518289Y768075D01*
X516289Y767242D01*
X514289Y767242D01*
X512289Y768075D01*
X511289Y769742D01*
G54D13*
X521060Y743210D02*
X513060Y743210D01*
X513060Y744043D01*
X514060Y745710D01*
X520060Y750710D01*
X521060Y752376D01*
X521060Y754043D01*
X520060Y755710D01*
X518060Y756543D01*
X516060Y756543D01*
X514060Y755710D01*
X513060Y754043D01*
G54D13*
X524727Y751543D02*
X529727Y756543D01*
X529727Y743210D01*
G54D13*
X511394Y725064D02*
X516394Y730064D01*
X516394Y716731D01*
G54D13*
X520061Y719231D02*
X521061Y717564D01*
X523061Y716731D01*
X525061Y716731D01*
X527061Y717564D01*
X528061Y719231D01*
X528061Y723397D01*
X528061Y724231D01*
X525061Y722564D01*
X523061Y722564D01*
X521061Y723397D01*
X520061Y725064D01*
X520061Y727564D01*
X521061Y729231D01*
X523061Y730064D01*
X525061Y730064D01*
X527061Y729231D01*
X528061Y727564D01*
X528061Y723397D01*
G54D13*
X511596Y699666D02*
X516596Y704666D01*
X516596Y691332D01*
G54D13*
X525263Y697999D02*
X523263Y697999D01*
X521263Y698832D01*
X520263Y700499D01*
X520263Y702166D01*
X521263Y703832D01*
X523263Y704666D01*
X525263Y704666D01*
X527263Y703832D01*
X528263Y702166D01*
X528263Y700499D01*
X527263Y698832D01*
X525263Y697999D01*
X527263Y697166D01*
X528263Y695499D01*
X528263Y693832D01*
X527263Y692166D01*
X525263Y691332D01*
X523263Y691332D01*
X521263Y692166D01*
X520263Y693832D01*
X520263Y695499D01*
X521263Y697166D01*
X523263Y697999D01*
G54D13*
X520651Y678915D02*
X512651Y678915D01*
X512651Y673082D01*
X513651Y673082D01*
X515651Y673915D01*
X517651Y673915D01*
X519651Y673082D01*
X520651Y671415D01*
X520651Y668082D01*
X519651Y666415D01*
X517651Y665582D01*
X515651Y665582D01*
X513651Y666415D01*
X512651Y668082D01*
G54D13*
X511121Y649405D02*
X516121Y654405D01*
X516121Y641071D01*
G54D13*
X519788Y654405D02*
X527788Y654405D01*
X526788Y652738D01*
X524788Y650238D01*
X522788Y646905D01*
X521788Y644405D01*
X521788Y641071D01*
G54D13*
X522681Y626467D02*
X527681Y631467D01*
X527681Y618133D01*
G54D13*
X539348Y628967D02*
X538348Y630633D01*
X536348Y631467D01*
X534348Y631467D01*
X532348Y630633D01*
X531348Y628967D01*
X531348Y624800D01*
X531348Y623967D01*
X534348Y625633D01*
X536348Y625633D01*
X538348Y624800D01*
X539348Y623133D01*
X539348Y620633D01*
X538348Y618967D01*
X536348Y618133D01*
X534348Y618133D01*
X532348Y618967D01*
X531348Y620633D01*
X531348Y624800D01*
G54D13*
X517962Y591197D02*
X517962Y604530D01*
X511962Y596197D01*
X511962Y594530D01*
X519962Y594530D01*
G54D13*
X532626Y564337D02*
X524626Y564337D01*
X524626Y565171D01*
X525626Y566837D01*
X531626Y571837D01*
X532626Y573504D01*
X532626Y575171D01*
X531626Y576837D01*
X529626Y577671D01*
X527626Y577671D01*
X525626Y576837D01*
X524626Y575171D01*
G54D13*
X458716Y548853D02*
X463716Y553853D01*
X463716Y540520D01*
G54D13*
X475382Y553853D02*
X467382Y553853D01*
X467382Y548020D01*
X468382Y548020D01*
X470382Y548853D01*
X472382Y548853D01*
X474382Y548020D01*
X475382Y546353D01*
X475382Y543020D01*
X474382Y541353D01*
X472382Y540520D01*
X470382Y540520D01*
X468382Y541353D01*
X467382Y543020D01*
G54D13*
X460022Y519498D02*
X464022Y519498D01*
X464022Y515331D01*
X463022Y513664D01*
X461022Y512831D01*
X459022Y512831D01*
X457022Y513664D01*
X456022Y515331D01*
X456022Y523664D01*
X457022Y525331D01*
X459022Y526164D01*
X461022Y526164D01*
X463022Y525331D01*
X464022Y523664D01*
G54D13*
X467689Y512831D02*
X467689Y526164D01*
X475689Y512831D01*
X475689Y526164D01*
G54D13*
X479356Y512831D02*
X479356Y526164D01*
X484356Y526164D01*
X486356Y525331D01*
X487356Y523664D01*
X487356Y515331D01*
X486356Y513664D01*
X484356Y512831D01*
X479356Y512831D01*
G54D13*
X453413Y499504D02*
X454413Y501171D01*
X456413Y502004D01*
X458413Y502004D01*
X460413Y501171D01*
X461413Y499504D01*
X461413Y497838D01*
X460413Y496171D01*
X458413Y495338D01*
X460413Y494504D01*
X461413Y492838D01*
X461413Y491171D01*
X460413Y489504D01*
X458413Y488671D01*
X456413Y488671D01*
X454413Y489504D01*
X453413Y491171D01*
G54D13*
X465080Y502004D02*
X470080Y488671D01*
X475080Y502004D01*
G54D13*
X478747Y499504D02*
X479747Y501171D01*
X481747Y502004D01*
X483747Y502004D01*
X485747Y501171D01*
X486747Y499504D01*
X486747Y497838D01*
X485747Y496171D01*
X483747Y495338D01*
X485747Y494504D01*
X486747Y492838D01*
X486747Y491171D01*
X485747Y489504D01*
X483747Y488671D01*
X481747Y488671D01*
X479747Y489504D01*
X478747Y491171D01*
G54D13*
X420742Y806516D02*
X420742Y795682D01*
X421742Y794016D01*
X423742Y793182D01*
X425742Y793182D01*
X427742Y794016D01*
X428742Y795682D01*
X428742Y806516D01*
G54D13*
X436409Y793182D02*
X436409Y806516D01*
G54D13*
X432409Y806516D02*
X440409Y806516D01*
G54D13*
X444076Y806516D02*
X454076Y793182D01*
G54D13*
X444076Y793182D02*
X454076Y806516D01*
G54D13*
X465743Y804016D02*
X465743Y795682D01*
X464743Y794016D01*
X462743Y793182D01*
X460743Y793182D01*
X458743Y794016D01*
X457743Y795682D01*
X457743Y804016D01*
X458743Y805682D01*
X460743Y806516D01*
X462743Y806516D01*
X464743Y805682D01*
X465743Y804016D01*
G54D13*
X420150Y781073D02*
X420150Y770240D01*
X421150Y768573D01*
X423150Y767740D01*
X425150Y767740D01*
X427150Y768573D01*
X428150Y770240D01*
X428150Y781073D01*
G54D13*
X435817Y774406D02*
X438817Y772740D01*
X439817Y771073D01*
X439817Y767740D01*
G54D13*
X431817Y767740D02*
X431817Y781073D01*
X436817Y781073D01*
X438817Y780240D01*
X439817Y778573D01*
X439817Y776906D01*
X438817Y775240D01*
X436817Y774406D01*
X431817Y774406D01*
G54D13*
X443484Y781073D02*
X453484Y767740D01*
G54D13*
X443484Y767740D02*
X453484Y781073D01*
G54D13*
X465151Y778573D02*
X465151Y770240D01*
X464151Y768573D01*
X462151Y767740D01*
X460151Y767740D01*
X458151Y768573D01*
X457151Y770240D01*
X457151Y778573D01*
X458151Y780240D01*
X460151Y781073D01*
X462151Y781073D01*
X464151Y780240D01*
X465151Y778573D01*
G54D13*
X438206Y629580D02*
X438206Y618747D01*
X439206Y617080D01*
X441206Y616247D01*
X443206Y616247D01*
X445206Y617080D01*
X446206Y618747D01*
X446206Y629580D01*
G54D13*
X453873Y622914D02*
X456873Y621247D01*
X457873Y619580D01*
X457873Y616247D01*
G54D13*
X449873Y616247D02*
X449873Y629580D01*
X454873Y629580D01*
X456873Y628747D01*
X457873Y627080D01*
X457873Y625414D01*
X456873Y623747D01*
X454873Y622914D01*
X449873Y622914D01*
G54D13*
X461540Y629580D02*
X471540Y616247D01*
G54D13*
X461540Y616247D02*
X471540Y629580D01*
G54D13*
X483207Y616247D02*
X475207Y616247D01*
X475207Y617080D01*
X476207Y618747D01*
X482207Y623747D01*
X483207Y625414D01*
X483207Y627080D01*
X482207Y628747D01*
X480207Y629580D01*
X478207Y629580D01*
X476207Y628747D01*
X475207Y627080D01*
G54D13*
X437385Y652680D02*
X437385Y641847D01*
X438385Y640180D01*
X440385Y639347D01*
X442385Y639347D01*
X444385Y640180D01*
X445385Y641847D01*
X445385Y652680D01*
G54D13*
X453052Y639347D02*
X453052Y652680D01*
G54D13*
X449052Y652680D02*
X457052Y652680D01*
G54D13*
X460719Y652680D02*
X470719Y639347D01*
G54D13*
X460719Y639347D02*
X470719Y652680D01*
G54D13*
X482386Y639347D02*
X474386Y639347D01*
X474386Y640180D01*
X475386Y641847D01*
X481386Y646847D01*
X482386Y648513D01*
X482386Y650180D01*
X481386Y651847D01*
X479386Y652680D01*
X477386Y652680D01*
X475386Y651847D01*
X474386Y650180D01*
G54D13*
X412364Y817444D02*
X420364Y817444D01*
G54D13*
X416364Y817444D02*
X416364Y830777D01*
G54D13*
X412364Y830777D02*
X420364Y830777D01*
G54D13*
X432031Y817444D02*
X424031Y817444D01*
X424031Y818277D01*
X425031Y819944D01*
X431031Y824944D01*
X432031Y826610D01*
X432031Y828277D01*
X431031Y829944D01*
X429031Y830777D01*
X427031Y830777D01*
X425031Y829944D01*
X424031Y828277D01*
G54D13*
X443698Y819944D02*
X442698Y818277D01*
X440698Y817444D01*
X438698Y817444D01*
X436698Y818277D01*
X435698Y819944D01*
X435698Y828277D01*
X436698Y829944D01*
X438698Y830777D01*
X440698Y830777D01*
X442698Y829944D01*
X443698Y828277D01*
G54D13*
X447365Y819944D02*
X448365Y818277D01*
X450365Y817444D01*
X452365Y817444D01*
X454365Y818277D01*
X455365Y819944D01*
X455365Y821610D01*
X454365Y823277D01*
X452365Y824110D01*
X450365Y824110D01*
X448365Y824944D01*
X447365Y826610D01*
X447365Y828277D01*
X448365Y829944D01*
X450365Y830777D01*
X452365Y830777D01*
X454365Y829944D01*
X455365Y828277D01*
G54D13*
X467032Y819944D02*
X466032Y818277D01*
X464032Y817444D01*
X462032Y817444D01*
X460032Y818277D01*
X459032Y819944D01*
X459032Y828277D01*
X460032Y829944D01*
X462032Y830777D01*
X464032Y830777D01*
X466032Y829944D01*
X467032Y828277D01*
G54D13*
X470699Y830777D02*
X470699Y817444D01*
X477699Y817444D01*
G54D13*
X409157Y742295D02*
X417157Y742295D01*
G54D13*
X413157Y742295D02*
X413157Y755629D01*
G54D13*
X409157Y755629D02*
X417157Y755629D01*
G54D13*
X428824Y742295D02*
X420824Y742295D01*
X420824Y743129D01*
X421824Y744795D01*
X427824Y749795D01*
X428824Y751462D01*
X428824Y753129D01*
X427824Y754795D01*
X425824Y755629D01*
X423824Y755629D01*
X421824Y754795D01*
X420824Y753129D01*
G54D13*
X440491Y744795D02*
X439491Y743129D01*
X437491Y742295D01*
X435491Y742295D01*
X433491Y743129D01*
X432491Y744795D01*
X432491Y753129D01*
X433491Y754795D01*
X435491Y755629D01*
X437491Y755629D01*
X439491Y754795D01*
X440491Y753129D01*
G54D13*
X444158Y744795D02*
X445158Y743129D01*
X447158Y742295D01*
X449158Y742295D01*
X451158Y743129D01*
X452158Y744795D01*
X452158Y746462D01*
X451158Y748129D01*
X449158Y748962D01*
X447158Y748962D01*
X445158Y749795D01*
X444158Y751462D01*
X444158Y753129D01*
X445158Y754795D01*
X447158Y755629D01*
X449158Y755629D01*
X451158Y754795D01*
X452158Y753129D01*
G54D13*
X455825Y742295D02*
X455825Y755629D01*
X460825Y755629D01*
X462825Y754795D01*
X463825Y753129D01*
X463825Y744795D01*
X462825Y743129D01*
X460825Y742295D01*
X455825Y742295D01*
G54D13*
X467492Y742295D02*
X472492Y755629D01*
X477492Y742295D01*
G54D13*
X469492Y747295D02*
X475492Y747295D01*
G36*
X133400Y390500D02*
X44600Y390500D01*
X44600Y384100D01*
X133400Y384100D01*
X133400Y390500D01*
G37*
G54D14*
X133400Y390500D02*
X44600Y390500D01*
X44600Y384100D01*
X133400Y384100D01*
X133400Y390500D01*
G54D14*
X133400Y384100D02*
X133400Y422100D01*
X44400Y422100D01*
X44400Y384100D01*
X133400Y384100D01*
G54D15*
X113800Y429800D02*
X111600Y429800D01*
X111600Y432100D01*
X112200Y433000D01*
X113200Y433400D01*
X114300Y433400D01*
X115400Y433000D01*
X115900Y432100D01*
X115900Y427600D01*
X115400Y426700D01*
X114300Y426300D01*
X113200Y426300D01*
X112200Y426700D01*
X111600Y427600D01*
G54D15*
X90500Y433400D02*
X90500Y426300D01*
X87800Y426300D01*
X86800Y426700D01*
X86200Y427600D01*
X86200Y432100D01*
X86800Y433000D01*
X87800Y433400D01*
X90500Y433400D01*
G54D15*
X65100Y432100D02*
X64600Y433000D01*
X63500Y433400D01*
X62400Y433400D01*
X61400Y433000D01*
X60800Y432100D01*
X60800Y431200D01*
X61400Y430300D01*
X62400Y429800D01*
X63500Y429800D01*
X64600Y429400D01*
X65100Y428500D01*
X65100Y427600D01*
X64600Y426700D01*
X63500Y426300D01*
X62400Y426300D01*
X61400Y426700D01*
X60800Y427600D01*
G36*
X133400Y676250D02*
X44600Y676250D01*
X44600Y669850D01*
X133400Y669850D01*
X133400Y676250D01*
G37*
G54D14*
X133400Y676250D02*
X44600Y676250D01*
X44600Y669850D01*
X133400Y669850D01*
X133400Y676250D01*
G54D14*
X133400Y669850D02*
X133400Y707850D01*
X44400Y707850D01*
X44400Y669850D01*
X133400Y669850D01*
G54D15*
X113800Y715550D02*
X111600Y715550D01*
X111600Y717850D01*
X112200Y718750D01*
X113200Y719150D01*
X114300Y719150D01*
X115400Y718750D01*
X115900Y717850D01*
X115900Y713350D01*
X115400Y712450D01*
X114300Y712050D01*
X113200Y712050D01*
X112200Y712450D01*
X111600Y713350D01*
G54D15*
X90500Y719150D02*
X90500Y712050D01*
X87800Y712050D01*
X86800Y712450D01*
X86200Y713350D01*
X86200Y717850D01*
X86800Y718750D01*
X87800Y719150D01*
X90500Y719150D01*
G54D15*
X65100Y717850D02*
X64600Y718750D01*
X63500Y719150D01*
X62400Y719150D01*
X61400Y718750D01*
X60800Y717850D01*
X60800Y716950D01*
X61400Y716050D01*
X62400Y715550D01*
X63500Y715550D01*
X64600Y715150D01*
X65100Y714250D01*
X65100Y713350D01*
X64600Y712450D01*
X63500Y712050D01*
X62400Y712050D01*
X61400Y712450D01*
X60800Y713350D01*
G36*
X133400Y523850D02*
X44600Y523850D01*
X44600Y517450D01*
X133400Y517450D01*
X133400Y523850D01*
G37*
G54D14*
X133400Y523850D02*
X44600Y523850D01*
X44600Y517450D01*
X133400Y517450D01*
X133400Y523850D01*
G54D14*
X133400Y517450D02*
X133400Y555450D01*
X44400Y555450D01*
X44400Y517450D01*
X133400Y517450D01*
G54D15*
X113800Y563150D02*
X111600Y563150D01*
X111600Y565450D01*
X112200Y566350D01*
X113200Y566750D01*
X114300Y566750D01*
X115400Y566350D01*
X115900Y565450D01*
X115900Y560950D01*
X115400Y560050D01*
X114300Y559650D01*
X113200Y559650D01*
X112200Y560050D01*
X111600Y560950D01*
G54D15*
X90500Y566750D02*
X90500Y559650D01*
X87800Y559650D01*
X86800Y560050D01*
X86200Y560950D01*
X86200Y565450D01*
X86800Y566350D01*
X87800Y566750D01*
X90500Y566750D01*
G54D15*
X65100Y565450D02*
X64600Y566350D01*
X63500Y566750D01*
X62400Y566750D01*
X61400Y566350D01*
X60800Y565450D01*
X60800Y564550D01*
X61400Y563650D01*
X62400Y563150D01*
X63500Y563150D01*
X64600Y562750D01*
X65100Y561850D01*
X65100Y560950D01*
X64600Y560050D01*
X63500Y559650D01*
X62400Y559650D01*
X61400Y560050D01*
X60800Y560950D01*
G54D10*
X25400Y774700D02*
X101600Y774700D01*
X101600Y749300D01*
X25400Y749300D01*
X25400Y774700D01*
G54D10*
X25400Y628650D02*
X101600Y628650D01*
X101600Y603250D01*
X25400Y603250D01*
X25400Y628650D01*
G54D10*
X25400Y482600D02*
X101600Y482600D01*
X101600Y457200D01*
X25400Y457200D01*
X25400Y482600D01*
G54D13*
X21790Y786702D02*
X26790Y791702D01*
X26790Y778369D01*
G54D13*
X38457Y778369D02*
X30457Y778369D01*
X30457Y779202D01*
X31457Y780869D01*
X37457Y785869D01*
X38457Y787536D01*
X38457Y789202D01*
X37457Y790869D01*
X35457Y791702D01*
X33457Y791702D01*
X31457Y790869D01*
X30457Y789202D01*
G54D13*
X42124Y791702D02*
X47124Y778369D01*
X52124Y791702D01*
G54D13*
X74604Y784928D02*
X78604Y784928D01*
X78604Y780762D01*
X77604Y779095D01*
X75604Y778262D01*
X73604Y778262D01*
X71604Y779095D01*
X70604Y780762D01*
X70604Y789095D01*
X71604Y790762D01*
X73604Y791595D01*
X75604Y791595D01*
X77604Y790762D01*
X78604Y789095D01*
G54D13*
X82271Y778262D02*
X82271Y791595D01*
X90271Y778262D01*
X90271Y791595D01*
G54D13*
X93938Y778262D02*
X93938Y791595D01*
X98938Y791595D01*
X100938Y790762D01*
X101938Y789095D01*
X101938Y780762D01*
X100938Y779095D01*
X98938Y778262D01*
X93938Y778262D01*
G54D13*
X21538Y639647D02*
X26538Y644647D01*
X26538Y631314D01*
G54D13*
X38205Y631314D02*
X30205Y631314D01*
X30205Y632147D01*
X31205Y633814D01*
X37205Y638814D01*
X38205Y640481D01*
X38205Y642147D01*
X37205Y643814D01*
X35205Y644647D01*
X33205Y644647D01*
X31205Y643814D01*
X30205Y642147D01*
G54D13*
X41872Y644647D02*
X46872Y631314D01*
X51872Y644647D01*
G54D13*
X73056Y638879D02*
X77056Y638879D01*
X77056Y634712D01*
X76056Y633045D01*
X74056Y632212D01*
X72056Y632212D01*
X70056Y633045D01*
X69056Y634712D01*
X69056Y643045D01*
X70056Y644712D01*
X72056Y645545D01*
X74056Y645545D01*
X76056Y644712D01*
X77056Y643045D01*
G54D13*
X80723Y632212D02*
X80723Y645545D01*
X88723Y632212D01*
X88723Y645545D01*
G54D13*
X92390Y632212D02*
X92390Y645545D01*
X97390Y645545D01*
X99390Y644712D01*
X100390Y643045D01*
X100390Y634712D01*
X99390Y633045D01*
X97390Y632212D01*
X92390Y632212D01*
G54D13*
X21538Y495105D02*
X26538Y500105D01*
X26538Y486772D01*
G54D13*
X38205Y486772D02*
X30205Y486772D01*
X30205Y487605D01*
X31205Y489272D01*
X37205Y494272D01*
X38205Y495939D01*
X38205Y497605D01*
X37205Y499272D01*
X35205Y500105D01*
X33205Y500105D01*
X31205Y499272D01*
X30205Y497605D01*
G54D13*
X41872Y500105D02*
X46872Y486772D01*
X51872Y500105D01*
G54D13*
X75377Y492829D02*
X79377Y492829D01*
X79377Y488663D01*
X78377Y486996D01*
X76377Y486163D01*
X74377Y486163D01*
X72377Y486996D01*
X71377Y488663D01*
X71377Y496996D01*
X72377Y498663D01*
X74377Y499496D01*
X76377Y499496D01*
X78377Y498663D01*
X79377Y496996D01*
G54D13*
X83044Y486163D02*
X83044Y499496D01*
X91044Y486163D01*
X91044Y499496D01*
G54D13*
X94711Y486163D02*
X94711Y499496D01*
X99711Y499496D01*
X101711Y498663D01*
X102711Y496996D01*
X102711Y488663D01*
X101711Y486996D01*
X99711Y486163D01*
X94711Y486163D01*
G54D10*
X121242Y996950D02*
X146642Y996950D01*
X146642Y920750D01*
X121242Y920750D01*
X121242Y996950D01*
G54D10*
X210142Y996950D02*
X235542Y996950D01*
X235542Y920750D01*
X210142Y920750D01*
X210142Y996950D01*
G54D10*
X299042Y996950D02*
X324442Y996950D01*
X324442Y920750D01*
X299042Y920750D01*
X299042Y996950D01*
G54D10*
X387942Y996950D02*
X413342Y996950D01*
X413342Y920750D01*
X387942Y920750D01*
X387942Y996950D01*
G54D13*
X121619Y901799D02*
X120619Y900132D01*
X118619Y899299D01*
X116619Y899299D01*
X114619Y900132D01*
X113619Y901799D01*
X113619Y910132D01*
X114619Y911799D01*
X116619Y912632D01*
X118619Y912632D01*
X120619Y911799D01*
X121619Y910132D01*
G54D13*
X125286Y912632D02*
X125286Y901799D01*
X126286Y900132D01*
X128286Y899299D01*
X130286Y899299D01*
X132286Y900132D01*
X133286Y901799D01*
X133286Y912632D01*
G54D13*
X136953Y899299D02*
X136953Y912632D01*
X141953Y912632D01*
X143953Y911799D01*
X144953Y910132D01*
X144953Y908466D01*
X143953Y906799D01*
X141953Y905966D01*
X143953Y905132D01*
X144953Y903466D01*
X144953Y901799D01*
X143953Y900132D01*
X141953Y899299D01*
X136953Y899299D01*
G54D13*
X136953Y905966D02*
X141953Y905966D01*
G54D13*
X155620Y899299D02*
X148620Y899299D01*
X148620Y912632D01*
X155620Y912632D01*
G54D13*
X148620Y905966D02*
X155620Y905966D01*
G54D13*
X183887Y900167D02*
X183887Y913500D01*
G54D13*
X179887Y913500D02*
X187887Y913500D01*
G54D13*
X191554Y902667D02*
X192554Y901000D01*
X194554Y900167D01*
X196554Y900167D01*
X198554Y901000D01*
X199554Y902667D01*
X199554Y904333D01*
X198554Y906000D01*
X196554Y906833D01*
X194554Y906833D01*
X192554Y907667D01*
X191554Y909333D01*
X191554Y911000D01*
X192554Y912667D01*
X194554Y913500D01*
X196554Y913500D01*
X198554Y912667D01*
X199554Y911000D01*
G54D13*
X203221Y900167D02*
X208221Y913500D01*
X213221Y900167D01*
G54D13*
X205221Y905167D02*
X211221Y905167D01*
G54D13*
X220888Y906833D02*
X223888Y905167D01*
X224888Y903500D01*
X224888Y900167D01*
G54D13*
X216888Y900167D02*
X216888Y913500D01*
X221888Y913500D01*
X223888Y912667D01*
X224888Y911000D01*
X224888Y909333D01*
X223888Y907667D01*
X221888Y906833D01*
X216888Y906833D01*
G54D13*
X232555Y906833D02*
X236555Y906833D01*
X236555Y902667D01*
X235555Y901000D01*
X233555Y900167D01*
X231555Y900167D01*
X229555Y901000D01*
X228555Y902667D01*
X228555Y911000D01*
X229555Y912667D01*
X231555Y913500D01*
X233555Y913500D01*
X235555Y912667D01*
X236555Y911000D01*
G54D13*
X240222Y900167D02*
X248222Y913500D01*
G54D13*
X251889Y913500D02*
X251889Y902667D01*
X252889Y901000D01*
X254889Y900167D01*
X256889Y900167D01*
X258889Y901000D01*
X259889Y902667D01*
X259889Y913500D01*
G54D13*
X271556Y911000D02*
X271556Y902667D01*
X270556Y901000D01*
X268556Y900167D01*
X266556Y900167D01*
X264556Y901000D01*
X263556Y902667D01*
X263556Y911000D01*
X264556Y912667D01*
X266556Y913500D01*
X268556Y913500D01*
X270556Y912667D01*
X271556Y911000D01*
G54D13*
X298754Y900872D02*
X298754Y914206D01*
G54D13*
X294754Y914206D02*
X302754Y914206D01*
G54D13*
X306421Y903372D02*
X307421Y901706D01*
X309421Y900872D01*
X311421Y900872D01*
X313421Y901706D01*
X314421Y903372D01*
X314421Y905039D01*
X313421Y906706D01*
X311421Y907539D01*
X309421Y907539D01*
X307421Y908372D01*
X306421Y910039D01*
X306421Y911706D01*
X307421Y913372D01*
X309421Y914206D01*
X311421Y914206D01*
X313421Y913372D01*
X314421Y911706D01*
G54D13*
X318088Y900872D02*
X323088Y914206D01*
X328088Y900872D01*
G54D13*
X320088Y905872D02*
X326088Y905872D01*
G54D13*
X361300Y904717D02*
X362300Y903050D01*
X364300Y902217D01*
X366300Y902217D01*
X368300Y903050D01*
X369300Y904717D01*
X369300Y906383D01*
X368300Y908050D01*
X366300Y908883D01*
X364300Y908883D01*
X362300Y909717D01*
X361300Y911383D01*
X361300Y913050D01*
X362300Y914717D01*
X364300Y915550D01*
X366300Y915550D01*
X368300Y914717D01*
X369300Y913050D01*
G54D13*
X372967Y902217D02*
X380967Y902217D01*
G54D13*
X376967Y902217D02*
X376967Y915550D01*
G54D13*
X372967Y915550D02*
X380967Y915550D01*
G54D13*
X384634Y902217D02*
X384634Y915550D01*
X389634Y907217D01*
X394634Y915550D01*
X394634Y902217D01*
G54D13*
X398301Y902217D02*
X398301Y915550D01*
X403301Y907217D01*
X408301Y915550D01*
X408301Y902217D01*
G54D13*
X341465Y986103D02*
X345465Y986103D01*
X345465Y981936D01*
X344465Y980270D01*
X342465Y979436D01*
X340465Y979436D01*
X338465Y980270D01*
X337465Y981936D01*
X337465Y990270D01*
X338465Y991936D01*
X340465Y992770D01*
X342465Y992770D01*
X344465Y991936D01*
X345465Y990270D01*
G54D13*
X349132Y979436D02*
X349132Y992770D01*
X357132Y979436D01*
X357132Y992770D01*
G54D13*
X360799Y979436D02*
X360799Y992770D01*
X365799Y992770D01*
X367799Y991936D01*
X368799Y990270D01*
X368799Y981936D01*
X367799Y980270D01*
X365799Y979436D01*
X360799Y979436D01*
G54D13*
X338203Y963141D02*
X339203Y964808D01*
X341203Y965641D01*
X343203Y965641D01*
X345203Y964808D01*
X346203Y963141D01*
X346203Y961475D01*
X345203Y959808D01*
X343203Y958975D01*
X345203Y958141D01*
X346203Y956475D01*
X346203Y954808D01*
X345203Y953141D01*
X343203Y952308D01*
X341203Y952308D01*
X339203Y953141D01*
X338203Y954808D01*
G54D13*
X349870Y965641D02*
X354870Y952308D01*
X359870Y965641D01*
G54D13*
X363537Y963141D02*
X364537Y964808D01*
X366537Y965641D01*
X368537Y965641D01*
X370537Y964808D01*
X371537Y963141D01*
X371537Y961475D01*
X370537Y959808D01*
X368537Y958975D01*
X370537Y958141D01*
X371537Y956475D01*
X371537Y954808D01*
X370537Y953141D01*
X368537Y952308D01*
X366537Y952308D01*
X364537Y953141D01*
X363537Y954808D01*
G54D13*
X332941Y926368D02*
X332941Y939701D01*
X337941Y939701D01*
X339941Y938868D01*
X340941Y937201D01*
X340941Y928868D01*
X339941Y927201D01*
X337941Y926368D01*
X332941Y926368D01*
G54D13*
X344608Y926368D02*
X349608Y939701D01*
X354608Y926368D01*
G54D13*
X346608Y931368D02*
X352608Y931368D01*
G54D13*
X362275Y926368D02*
X362275Y939701D01*
G54D13*
X358275Y939701D02*
X366275Y939701D01*
G54D13*
X369942Y926368D02*
X374942Y939701D01*
X379942Y926368D01*
G54D13*
X371942Y931368D02*
X377942Y931368D01*
G54D14*
X298500Y612800D02*
X298500Y631800D01*
X336500Y631800D01*
X336500Y612800D01*
X298500Y612800D01*
G54D14*
X298400Y622300D02*
X277800Y622300D01*
G54D14*
X357200Y622300D02*
X336600Y622300D01*
G54D14*
X298500Y587400D02*
X298500Y606400D01*
X336500Y606400D01*
X336500Y587400D01*
X298500Y587400D01*
G54D14*
X298400Y596900D02*
X277800Y596900D01*
G54D14*
X357200Y596900D02*
X336600Y596900D01*
G54D14*
X298500Y562000D02*
X298500Y581000D01*
X336500Y581000D01*
X336500Y562000D01*
X298500Y562000D01*
G54D14*
X298400Y571500D02*
X277800Y571500D01*
G54D14*
X357200Y571500D02*
X336600Y571500D01*
G54D14*
X298500Y536600D02*
X298500Y555600D01*
X336500Y555600D01*
X336500Y536600D01*
X298500Y536600D01*
G54D14*
X298400Y546100D02*
X277800Y546100D01*
G54D14*
X357200Y546100D02*
X336600Y546100D01*
G54D14*
X298500Y638200D02*
X298500Y657200D01*
X336500Y657200D01*
X336500Y638200D01*
X298500Y638200D01*
G54D14*
X298400Y647700D02*
X277800Y647700D01*
G54D14*
X357200Y647700D02*
X336600Y647700D01*
G54D14*
X298500Y663600D02*
X298500Y682600D01*
X336500Y682600D01*
X336500Y663600D01*
X298500Y663600D01*
G54D14*
X298400Y673100D02*
X277800Y673100D01*
G54D14*
X357200Y673100D02*
X336600Y673100D01*
G54D14*
X298500Y689000D02*
X298500Y708000D01*
X336500Y708000D01*
X336500Y689000D01*
X298500Y689000D01*
G54D14*
X298400Y698500D02*
X277800Y698500D01*
G54D14*
X357200Y698500D02*
X336600Y698500D01*
G54D14*
X298500Y727100D02*
X298500Y746100D01*
X336500Y746100D01*
X336500Y727100D01*
X298500Y727100D01*
G54D14*
X298400Y736600D02*
X277800Y736600D01*
G54D14*
X357200Y736600D02*
X336600Y736600D01*
G54D16*
X308124Y547142D02*
X311457Y550475D01*
X311457Y541586D01*
G54D16*
X319234Y548808D02*
X319234Y543253D01*
X318568Y542142D01*
X317234Y541586D01*
X315901Y541586D01*
X314568Y542142D01*
X313901Y543253D01*
X313901Y548808D01*
X314568Y549919D01*
X315901Y550475D01*
X317234Y550475D01*
X318568Y549919D01*
X319234Y548808D01*
G54D16*
X321678Y541586D02*
X321678Y550475D01*
G54D16*
X323678Y544919D02*
X325678Y541586D01*
G54D16*
X321678Y543808D02*
X325678Y546586D01*
G54D16*
X308898Y572674D02*
X312231Y576007D01*
X312231Y567118D01*
G54D16*
X320008Y574340D02*
X320008Y568785D01*
X319342Y567674D01*
X318008Y567118D01*
X316675Y567118D01*
X315342Y567674D01*
X314675Y568785D01*
X314675Y574340D01*
X315342Y575451D01*
X316675Y576007D01*
X318008Y576007D01*
X319342Y575451D01*
X320008Y574340D01*
G54D16*
X322452Y567118D02*
X322452Y576007D01*
G54D16*
X324452Y570451D02*
X326452Y567118D01*
G54D16*
X322452Y569340D02*
X326452Y572118D01*
G54D16*
X308704Y598593D02*
X312037Y601926D01*
X312037Y593037D01*
G54D16*
X319814Y600259D02*
X319814Y594704D01*
X319148Y593593D01*
X317814Y593037D01*
X316481Y593037D01*
X315148Y593593D01*
X314481Y594704D01*
X314481Y600259D01*
X315148Y601370D01*
X316481Y601926D01*
X317814Y601926D01*
X319148Y601370D01*
X319814Y600259D01*
G54D16*
X322258Y593037D02*
X322258Y601926D01*
G54D16*
X324258Y596370D02*
X326258Y593037D01*
G54D16*
X322258Y595259D02*
X326258Y598037D01*
G54D16*
X308317Y623738D02*
X311650Y627071D01*
X311650Y618182D01*
G54D16*
X319427Y625404D02*
X319427Y619849D01*
X318761Y618738D01*
X317427Y618182D01*
X316094Y618182D01*
X314761Y618738D01*
X314094Y619849D01*
X314094Y625404D01*
X314761Y626515D01*
X316094Y627071D01*
X317427Y627071D01*
X318761Y626515D01*
X319427Y625404D01*
G54D16*
X321871Y618182D02*
X321871Y627071D01*
G54D16*
X323871Y621515D02*
X325871Y618182D01*
G54D16*
X321871Y620404D02*
X325871Y623182D01*
G54D16*
X311157Y643133D02*
X311157Y652022D01*
X307157Y646466D01*
X307157Y645355D01*
X312490Y645355D01*
G54D16*
X315467Y643133D02*
X314934Y643133D01*
X314934Y643577D01*
X315467Y643577D01*
X315467Y643133D01*
X314934Y643133D01*
G54D16*
X317911Y652022D02*
X323244Y652022D01*
X322578Y650911D01*
X321244Y649244D01*
X319911Y647022D01*
X319244Y645355D01*
X319244Y643133D01*
G54D16*
X325688Y643133D02*
X325688Y652022D01*
G54D16*
X327688Y646466D02*
X329688Y643133D01*
G54D16*
X325688Y645355D02*
X329688Y648133D01*
G54D16*
X310770Y668085D02*
X310770Y676974D01*
X306770Y671418D01*
X306770Y670307D01*
X312103Y670307D01*
G54D16*
X315080Y668085D02*
X314547Y668085D01*
X314547Y668529D01*
X315080Y668529D01*
X315080Y668085D01*
X314547Y668085D01*
G54D16*
X317524Y676974D02*
X322857Y676974D01*
X322191Y675863D01*
X320857Y674196D01*
X319524Y671974D01*
X318857Y670307D01*
X318857Y668085D01*
G54D16*
X325301Y668085D02*
X325301Y676974D01*
G54D16*
X327301Y671418D02*
X329301Y668085D01*
G54D16*
X325301Y670307D02*
X329301Y673085D01*
G54D16*
X310382Y693423D02*
X310382Y702312D01*
X306382Y696756D01*
X306382Y695645D01*
X311715Y695645D01*
G54D16*
X314692Y693423D02*
X314159Y693423D01*
X314159Y693867D01*
X314692Y693867D01*
X314692Y693423D01*
X314159Y693423D01*
G54D16*
X317136Y702312D02*
X322469Y702312D01*
X321803Y701201D01*
X320469Y699534D01*
X319136Y697312D01*
X318469Y695645D01*
X318469Y693423D01*
G54D16*
X324913Y693423D02*
X324913Y702312D01*
G54D16*
X326913Y696756D02*
X328913Y693423D01*
G54D16*
X324913Y695645D02*
X328913Y698423D01*
G54D16*
X310189Y731721D02*
X310189Y740610D01*
X306189Y735054D01*
X306189Y733943D01*
X311522Y733943D01*
G54D16*
X314499Y731721D02*
X313966Y731721D01*
X313966Y732165D01*
X314499Y732165D01*
X314499Y731721D01*
X313966Y731721D01*
G54D16*
X316943Y740610D02*
X322276Y740610D01*
X321610Y739499D01*
X320276Y737832D01*
X318943Y735610D01*
X318276Y733943D01*
X318276Y731721D01*
G54D16*
X324720Y731721D02*
X324720Y740610D01*
G54D16*
X326720Y735054D02*
X328720Y731721D01*
G54D16*
X324720Y733943D02*
X328720Y736721D01*
G54D10*
X685800Y482600D02*
X711200Y482600D01*
X711200Y381000D01*
X685800Y381000D01*
X685800Y482600D01*
G54D16*
X667320Y477900D02*
X672653Y477900D01*
X667320Y469011D01*
X672653Y469011D01*
G54D16*
X680430Y470678D02*
X679764Y469567D01*
X678430Y469011D01*
X677097Y469011D01*
X675764Y469567D01*
X675097Y470678D01*
X675097Y476233D01*
X675764Y477344D01*
X677097Y477900D01*
X678430Y477900D01*
X679764Y477344D01*
X680430Y476233D01*
G54D16*
X658824Y384370D02*
X658824Y393259D01*
X662157Y393259D01*
X663491Y392703D01*
X664157Y391592D01*
X664157Y386037D01*
X663491Y384926D01*
X662157Y384370D01*
X658824Y384370D01*
G54D16*
X666601Y384370D02*
X671934Y384370D01*
G54D16*
X669268Y384370D02*
X669268Y393259D01*
G54D16*
X666601Y393259D02*
X671934Y393259D01*
G54D16*
X674378Y384370D02*
X674378Y393259D01*
X677711Y387703D01*
X681045Y393259D01*
X681045Y384370D01*
G54D16*
X672327Y448815D02*
X666994Y448815D01*
X666994Y444926D01*
X667661Y444926D01*
X668994Y445482D01*
X670327Y445482D01*
X671661Y444926D01*
X672327Y443815D01*
X672327Y441593D01*
X671661Y440482D01*
X670327Y439926D01*
X668994Y439926D01*
X667661Y440482D01*
X666994Y441593D01*
G54D16*
X674771Y448815D02*
X678104Y439926D01*
X681438Y448815D01*
G54D16*
X661164Y418553D02*
X663830Y418553D01*
X663830Y415776D01*
X663164Y414665D01*
X661830Y414109D01*
X660497Y414109D01*
X659164Y414665D01*
X658497Y415776D01*
X658497Y421331D01*
X659164Y422442D01*
X660497Y422998D01*
X661830Y422998D01*
X663164Y422442D01*
X663830Y421331D01*
G54D16*
X666274Y414109D02*
X666274Y422998D01*
X671607Y414109D01*
X671607Y422998D01*
G54D16*
X674051Y414109D02*
X674051Y422998D01*
X677384Y422998D01*
X678718Y422442D01*
X679384Y421331D01*
X679384Y415776D01*
X678718Y414665D01*
X677384Y414109D01*
X674051Y414109D01*
G54D13*
X641296Y359126D02*
X641296Y372459D01*
X646296Y372459D01*
X648296Y371626D01*
X649296Y369959D01*
X649296Y361626D01*
X648296Y359959D01*
X646296Y359126D01*
X641296Y359126D01*
G54D13*
X652963Y359126D02*
X660963Y359126D01*
G54D13*
X656963Y359126D02*
X656963Y372459D01*
G54D13*
X652963Y372459D02*
X660963Y372459D01*
G54D13*
X664630Y359126D02*
X664630Y372459D01*
X669630Y364126D01*
X674630Y372459D01*
X674630Y359126D01*
G54D13*
X678297Y359126D02*
X678297Y372459D01*
X683297Y364126D01*
X688297Y372459D01*
X688297Y359126D01*
G54D13*
X698964Y359126D02*
X691964Y359126D01*
X691964Y372459D01*
X698964Y372459D01*
G54D13*
X691964Y365792D02*
X698964Y365792D01*
G54D13*
X706631Y365792D02*
X709631Y364126D01*
X710631Y362459D01*
X710631Y359126D01*
G54D13*
X702631Y359126D02*
X702631Y372459D01*
X707631Y372459D01*
X709631Y371626D01*
X710631Y369959D01*
X710631Y368292D01*
X709631Y366626D01*
X707631Y365792D01*
X702631Y365792D01*
G54D14*
X457200Y312700D02*
X457200Y304800D01*
G54D14*
X457200Y322200D02*
X457200Y330200D01*
G54D14*
X469900Y316000D02*
X444500Y316000D01*
X444500Y322300D01*
X469900Y322300D01*
X469900Y316000D01*
G54D14*
X477900Y342900D02*
X484200Y342900D01*
G54D14*
X481100Y339700D02*
X481100Y346100D01*
G54D14*
X444500Y312800D02*
X469900Y312800D01*
G54D14*
G75*
G01X507200Y317300D02*
G03X507200Y317300I-50000J0D01*
G01*
G54D14*
X577850Y312700D02*
X577850Y304800D01*
G54D14*
X577850Y322200D02*
X577850Y330200D01*
G54D14*
X590550Y316000D02*
X565150Y316000D01*
X565150Y322300D01*
X590550Y322300D01*
X590550Y316000D01*
G54D14*
X598550Y342900D02*
X604850Y342900D01*
G54D14*
X601750Y339700D02*
X601750Y346100D01*
G54D14*
X565150Y312800D02*
X590550Y312800D01*
G54D14*
G75*
G01X627850Y317300D02*
G03X627850Y317300I-50000J0D01*
G01*
G54D17*
G75*
G01X285650Y304250D02*
G03X285650Y331750I0J13750D01*
G01*
G54D17*
G75*
G01X285650Y329650D02*
G03X285650Y357150I0J13750D01*
G01*
G54D17*
G75*
G01X285650Y355050D02*
G03X285650Y382550I0J13750D01*
G01*
G54D18*
X286323Y348827D02*
X286323Y339049D01*
X291456Y339049D01*
G54D18*
X72745Y259731D02*
X76412Y263397D01*
X76412Y253619D01*
G54D18*
X85701Y253619D02*
X79834Y253619D01*
X79834Y254231D01*
X80567Y255453D01*
X84967Y259119D01*
X85701Y260342D01*
X85701Y261564D01*
X84967Y262786D01*
X83501Y263397D01*
X82034Y263397D01*
X80567Y262786D01*
X79834Y261564D01*
G54D18*
X89123Y263397D02*
X92790Y253619D01*
X96456Y263397D01*
G54D18*
X127593Y258189D02*
X130526Y258189D01*
X130526Y255133D01*
X129793Y253911D01*
X128326Y253300D01*
X126860Y253300D01*
X125393Y253911D01*
X124660Y255133D01*
X124660Y261244D01*
X125393Y262467D01*
X126860Y263078D01*
X128326Y263078D01*
X129793Y262467D01*
X130526Y261244D01*
G54D18*
X133949Y253300D02*
X133949Y263078D01*
X139815Y253300D01*
X139815Y263078D01*
G54D18*
X143238Y253300D02*
X143238Y263078D01*
X146904Y263078D01*
X148371Y262467D01*
X149104Y261244D01*
X149104Y255133D01*
X148371Y253911D01*
X146904Y253300D01*
X143238Y253300D01*
G54D18*
X187186Y262078D02*
X181319Y262078D01*
X181319Y257800D01*
X182052Y257800D01*
X183519Y258412D01*
X184986Y258412D01*
X186452Y257800D01*
X187186Y256578D01*
X187186Y254134D01*
X186452Y252912D01*
X184986Y252300D01*
X183519Y252300D01*
X182052Y252912D01*
X181319Y254134D01*
G54D18*
X190608Y262078D02*
X194275Y252300D01*
X197942Y262078D01*
G54D13*
X252565Y986103D02*
X256565Y986103D01*
X256565Y981936D01*
X255565Y980270D01*
X253565Y979436D01*
X251565Y979436D01*
X249565Y980270D01*
X248565Y981936D01*
X248565Y990270D01*
X249565Y991936D01*
X251565Y992770D01*
X253565Y992770D01*
X255565Y991936D01*
X256565Y990270D01*
G54D13*
X260232Y979436D02*
X260232Y992770D01*
X268232Y979436D01*
X268232Y992770D01*
G54D13*
X271899Y979436D02*
X271899Y992770D01*
X276899Y992770D01*
X278899Y991936D01*
X279899Y990270D01*
X279899Y981936D01*
X278899Y980270D01*
X276899Y979436D01*
X271899Y979436D01*
G54D13*
X249303Y963141D02*
X250303Y964808D01*
X252303Y965641D01*
X254303Y965641D01*
X256303Y964808D01*
X257303Y963141D01*
X257303Y961475D01*
X256303Y959808D01*
X254303Y958975D01*
X256303Y958141D01*
X257303Y956475D01*
X257303Y954808D01*
X256303Y953141D01*
X254303Y952308D01*
X252303Y952308D01*
X250303Y953141D01*
X249303Y954808D01*
G54D13*
X260970Y965641D02*
X265970Y952308D01*
X270970Y965641D01*
G54D13*
X274637Y963141D02*
X275637Y964808D01*
X277637Y965641D01*
X279637Y965641D01*
X281637Y964808D01*
X282637Y963141D01*
X282637Y961475D01*
X281637Y959808D01*
X279637Y958975D01*
X281637Y958141D01*
X282637Y956475D01*
X282637Y954808D01*
X281637Y953141D01*
X279637Y952308D01*
X277637Y952308D01*
X275637Y953141D01*
X274637Y954808D01*
G54D13*
X244041Y926368D02*
X244041Y939701D01*
X249041Y939701D01*
X251041Y938868D01*
X252041Y937201D01*
X252041Y928868D01*
X251041Y927201D01*
X249041Y926368D01*
X244041Y926368D01*
G54D13*
X255708Y926368D02*
X260708Y939701D01*
X265708Y926368D01*
G54D13*
X257708Y931368D02*
X263708Y931368D01*
G54D13*
X273375Y926368D02*
X273375Y939701D01*
G54D13*
X269375Y939701D02*
X277375Y939701D01*
G54D13*
X281042Y926368D02*
X286042Y939701D01*
X291042Y926368D01*
G54D13*
X283042Y931368D02*
X289042Y931368D01*
G54D13*
X163665Y986103D02*
X167665Y986103D01*
X167665Y981936D01*
X166665Y980270D01*
X164665Y979436D01*
X162665Y979436D01*
X160665Y980270D01*
X159665Y981936D01*
X159665Y990270D01*
X160665Y991936D01*
X162665Y992770D01*
X164665Y992770D01*
X166665Y991936D01*
X167665Y990270D01*
G54D13*
X171332Y979436D02*
X171332Y992770D01*
X179332Y979436D01*
X179332Y992770D01*
G54D13*
X182999Y979436D02*
X182999Y992770D01*
X187999Y992770D01*
X189999Y991936D01*
X190999Y990270D01*
X190999Y981936D01*
X189999Y980270D01*
X187999Y979436D01*
X182999Y979436D01*
G54D13*
X160403Y963141D02*
X161403Y964808D01*
X163403Y965641D01*
X165403Y965641D01*
X167403Y964808D01*
X168403Y963141D01*
X168403Y961475D01*
X167403Y959808D01*
X165403Y958975D01*
X167403Y958141D01*
X168403Y956475D01*
X168403Y954808D01*
X167403Y953141D01*
X165403Y952308D01*
X163403Y952308D01*
X161403Y953141D01*
X160403Y954808D01*
G54D13*
X172070Y965641D02*
X177070Y952308D01*
X182070Y965641D01*
G54D13*
X185737Y963141D02*
X186737Y964808D01*
X188737Y965641D01*
X190737Y965641D01*
X192737Y964808D01*
X193737Y963141D01*
X193737Y961475D01*
X192737Y959808D01*
X190737Y958975D01*
X192737Y958141D01*
X193737Y956475D01*
X193737Y954808D01*
X192737Y953141D01*
X190737Y952308D01*
X188737Y952308D01*
X186737Y953141D01*
X185737Y954808D01*
G54D13*
X155141Y926368D02*
X155141Y939701D01*
X160141Y939701D01*
X162141Y938868D01*
X163141Y937201D01*
X163141Y928868D01*
X162141Y927201D01*
X160141Y926368D01*
X155141Y926368D01*
G54D13*
X166808Y926368D02*
X171808Y939701D01*
X176808Y926368D01*
G54D13*
X168808Y931368D02*
X174808Y931368D01*
G54D13*
X184475Y926368D02*
X184475Y939701D01*
G54D13*
X180475Y939701D02*
X188475Y939701D01*
G54D13*
X192142Y926368D02*
X197142Y939701D01*
X202142Y926368D01*
G54D13*
X194142Y931368D02*
X200142Y931368D01*
G36*
X133400Y822300D02*
X44600Y822300D01*
X44600Y815900D01*
X133400Y815900D01*
X133400Y822300D01*
G37*
G54D14*
X133400Y822300D02*
X44600Y822300D01*
X44600Y815900D01*
X133400Y815900D01*
X133400Y822300D01*
G54D14*
X133400Y815900D02*
X133400Y853900D01*
X44400Y853900D01*
X44400Y815900D01*
X133400Y815900D01*
G54D15*
X113800Y861600D02*
X111600Y861600D01*
X111600Y863900D01*
X112200Y864800D01*
X113200Y865200D01*
X114300Y865200D01*
X115400Y864800D01*
X115900Y863900D01*
X115900Y859400D01*
X115400Y858500D01*
X114300Y858100D01*
X113200Y858100D01*
X112200Y858500D01*
X111600Y859400D01*
G54D15*
X90500Y865200D02*
X90500Y858100D01*
X87800Y858100D01*
X86800Y858500D01*
X86200Y859400D01*
X86200Y863900D01*
X86800Y864800D01*
X87800Y865200D01*
X90500Y865200D01*
G54D15*
X65100Y863900D02*
X64600Y864800D01*
X63500Y865200D01*
X62400Y865200D01*
X61400Y864800D01*
X60800Y863900D01*
X60800Y863000D01*
X61400Y862100D01*
X62400Y861600D01*
X63500Y861600D01*
X64600Y861200D01*
X65100Y860300D01*
X65100Y859400D01*
X64600Y858500D01*
X63500Y858100D01*
X62400Y858100D01*
X61400Y858500D01*
X60800Y859400D01*
G54D10*
X25400Y933450D02*
X101600Y933450D01*
X101600Y908050D01*
X25400Y908050D01*
X25400Y933450D01*
G54D13*
X22041Y944196D02*
X27041Y949196D01*
X27041Y935863D01*
G54D13*
X38708Y935863D02*
X30708Y935863D01*
X30708Y936696D01*
X31708Y938363D01*
X37708Y943363D01*
X38708Y945029D01*
X38708Y946696D01*
X37708Y948363D01*
X35708Y949196D01*
X33708Y949196D01*
X31708Y948363D01*
X30708Y946696D01*
G54D13*
X42375Y949196D02*
X47375Y935863D01*
X52375Y949196D01*
G54D13*
X74410Y943485D02*
X78410Y943485D01*
X78410Y939318D01*
X77410Y937651D01*
X75410Y936818D01*
X73410Y936818D01*
X71410Y937651D01*
X70410Y939318D01*
X70410Y947651D01*
X71410Y949318D01*
X73410Y950151D01*
X75410Y950151D01*
X77410Y949318D01*
X78410Y947651D01*
G54D13*
X82077Y936818D02*
X82077Y950151D01*
X90077Y936818D01*
X90077Y950151D01*
G54D13*
X93744Y936818D02*
X93744Y950151D01*
X98744Y950151D01*
X100744Y949318D01*
X101744Y947651D01*
X101744Y939318D01*
X100744Y937651D01*
X98744Y936818D01*
X93744Y936818D01*
G54D10*
X63500Y342900D02*
X215900Y342900D01*
X215900Y266700D01*
X63500Y266700D01*
X63500Y342900D01*
G54D13*
X106847Y460465D02*
X106847Y473798D01*
G54D13*
X106847Y464631D02*
X114847Y473798D01*
G54D13*
X109847Y467131D02*
X114847Y460465D01*
G54D13*
X118514Y468798D02*
X123514Y473798D01*
X123514Y460465D01*
G54D13*
X105261Y607737D02*
X105261Y621071D01*
G54D13*
X105261Y611904D02*
X113261Y621071D01*
G54D13*
X108261Y614404D02*
X113261Y607737D01*
G54D13*
X124928Y607737D02*
X116928Y607737D01*
X116928Y608571D01*
X117928Y610237D01*
X123928Y615237D01*
X124928Y616904D01*
X124928Y618571D01*
X123928Y620237D01*
X121928Y621071D01*
X119928Y621071D01*
X117928Y620237D01*
X116928Y618571D01*
G54D13*
X105571Y752959D02*
X105571Y766293D01*
G54D13*
X105571Y757126D02*
X113571Y766293D01*
G54D13*
X108571Y759626D02*
X113571Y752959D01*
G54D13*
X117238Y763793D02*
X118238Y765459D01*
X120238Y766293D01*
X122238Y766293D01*
X124238Y765459D01*
X125238Y763793D01*
X125238Y762126D01*
X124238Y760459D01*
X122238Y759626D01*
X124238Y758793D01*
X125238Y757126D01*
X125238Y755459D01*
X124238Y753793D01*
X122238Y752959D01*
X120238Y752959D01*
X118238Y753793D01*
X117238Y755459D01*
G54D13*
X63330Y894007D02*
X62330Y892340D01*
X60330Y891507D01*
X58330Y891507D01*
X56330Y892340D01*
X55330Y894007D01*
X55330Y902340D01*
X56330Y904007D01*
X58330Y904840D01*
X60330Y904840D01*
X62330Y904007D01*
X63330Y902340D01*
G54D13*
X74997Y902340D02*
X74997Y894007D01*
X73997Y892340D01*
X71997Y891507D01*
X69997Y891507D01*
X67997Y892340D01*
X66997Y894007D01*
X66997Y902340D01*
X67997Y904007D01*
X69997Y904840D01*
X71997Y904840D01*
X73997Y904007D01*
X74997Y902340D01*
G54D13*
X78664Y891507D02*
X78664Y904840D01*
X86664Y891507D01*
X86664Y904840D01*
G54D13*
X94331Y891507D02*
X94331Y904840D01*
G54D13*
X90331Y904840D02*
X98331Y904840D01*
G54D13*
X831640Y323591D02*
X831640Y312758D01*
X832640Y311091D01*
X834640Y310258D01*
X836640Y310258D01*
X838640Y311091D01*
X839640Y312758D01*
X839640Y323591D01*
G54D13*
X843307Y312758D02*
X844307Y311091D01*
X846307Y310258D01*
X848307Y310258D01*
X850307Y311091D01*
X851307Y312758D01*
X851307Y314424D01*
X850307Y316091D01*
X848307Y316924D01*
X846307Y316924D01*
X844307Y317758D01*
X843307Y319424D01*
X843307Y321091D01*
X844307Y322758D01*
X846307Y323591D01*
X848307Y323591D01*
X850307Y322758D01*
X851307Y321091D01*
G54D13*
X854974Y310258D02*
X854974Y323591D01*
X859974Y323591D01*
X861974Y322758D01*
X862974Y321091D01*
X862974Y319424D01*
X861974Y317758D01*
X859974Y316924D01*
X861974Y316091D01*
X862974Y314424D01*
X862974Y312758D01*
X861974Y311091D01*
X859974Y310258D01*
X854974Y310258D01*
G54D13*
X854974Y316924D02*
X859974Y316924D01*
G54D14*
X809600Y450900D02*
X790600Y450900D01*
X790600Y488900D01*
X809600Y488900D01*
X809600Y450900D01*
G54D14*
X800100Y450800D02*
X800100Y430200D01*
G54D14*
X800100Y509600D02*
X800100Y489000D01*
G54D16*
X798662Y460717D02*
X795329Y464050D01*
X804218Y464050D01*
G54D16*
X796996Y471827D02*
X802551Y471827D01*
X803662Y471161D01*
X804218Y469827D01*
X804218Y468494D01*
X803662Y467161D01*
X802551Y466494D01*
X796996Y466494D01*
X795885Y467161D01*
X795329Y468494D01*
X795329Y469827D01*
X795885Y471161D01*
X796996Y471827D01*
G54D16*
X804218Y474271D02*
X795329Y474271D01*
G54D16*
X800885Y476271D02*
X804218Y478271D01*
G54D16*
X801996Y474271D02*
X799218Y478271D01*
G54D14*
X577850Y458750D02*
X577850Y450850D01*
G54D14*
X577850Y468250D02*
X577850Y476250D01*
G54D14*
X590550Y462050D02*
X565150Y462050D01*
X565150Y468350D01*
X590550Y468350D01*
X590550Y462050D01*
G54D14*
X598550Y488950D02*
X604850Y488950D01*
G54D14*
X601750Y485750D02*
X601750Y492150D01*
G54D14*
X565150Y458850D02*
X590550Y458850D01*
G54D14*
G75*
G01X627850Y463350D02*
G03X627850Y463350I-50000J0D01*
G01*
G54D10*
X495300Y996950D02*
X520700Y996950D01*
X520700Y895350D01*
X495300Y895350D01*
X495300Y996950D01*
G54D10*
X571500Y996950D02*
X596900Y996950D01*
X596900Y895350D01*
X571500Y895350D01*
X571500Y996950D01*
G54D10*
X736600Y996950D02*
X762000Y996950D01*
X762000Y895350D01*
X736600Y895350D01*
X736600Y996950D01*
G54D10*
X774700Y996950D02*
X800100Y996950D01*
X800100Y895350D01*
X774700Y895350D01*
X774700Y996950D01*
G54D10*
X838200Y996950D02*
X863600Y996950D01*
X863600Y895350D01*
X838200Y895350D01*
X838200Y996950D01*
G54D10*
X876300Y996950D02*
X901700Y996950D01*
X901700Y895350D01*
X876300Y895350D01*
X876300Y996950D01*
G54D13*
X462115Y986103D02*
X466115Y986103D01*
X466115Y981936D01*
X465115Y980270D01*
X463115Y979436D01*
X461115Y979436D01*
X459115Y980270D01*
X458115Y981936D01*
X458115Y990270D01*
X459115Y991936D01*
X461115Y992770D01*
X463115Y992770D01*
X465115Y991936D01*
X466115Y990270D01*
G54D13*
X469782Y979436D02*
X469782Y992770D01*
X477782Y979436D01*
X477782Y992770D01*
G54D13*
X481449Y979436D02*
X481449Y992770D01*
X486449Y992770D01*
X488449Y991936D01*
X489449Y990270D01*
X489449Y981936D01*
X488449Y980270D01*
X486449Y979436D01*
X481449Y979436D01*
G54D13*
X541352Y985223D02*
X545352Y985223D01*
X545352Y981056D01*
X544352Y979389D01*
X542352Y978556D01*
X540352Y978556D01*
X538352Y979389D01*
X537352Y981056D01*
X537352Y989389D01*
X538352Y991056D01*
X540352Y991889D01*
X542352Y991889D01*
X544352Y991056D01*
X545352Y989389D01*
G54D13*
X549019Y978556D02*
X549019Y991889D01*
X557019Y978556D01*
X557019Y991889D01*
G54D13*
X560686Y978556D02*
X560686Y991889D01*
X565686Y991889D01*
X567686Y991056D01*
X568686Y989389D01*
X568686Y981056D01*
X567686Y979389D01*
X565686Y978556D01*
X560686Y978556D01*
G54D13*
X703415Y986103D02*
X707415Y986103D01*
X707415Y981936D01*
X706415Y980270D01*
X704415Y979436D01*
X702415Y979436D01*
X700415Y980270D01*
X699415Y981936D01*
X699415Y990270D01*
X700415Y991936D01*
X702415Y992770D01*
X704415Y992770D01*
X706415Y991936D01*
X707415Y990270D01*
G54D13*
X711082Y979436D02*
X711082Y992770D01*
X719082Y979436D01*
X719082Y992770D01*
G54D13*
X722749Y979436D02*
X722749Y992770D01*
X727749Y992770D01*
X729749Y991936D01*
X730749Y990270D01*
X730749Y981936D01*
X729749Y980270D01*
X727749Y979436D01*
X722749Y979436D01*
G54D13*
X912965Y986103D02*
X916965Y986103D01*
X916965Y981936D01*
X915965Y980270D01*
X913965Y979436D01*
X911965Y979436D01*
X909965Y980270D01*
X908965Y981936D01*
X908965Y990270D01*
X909965Y991936D01*
X911965Y992770D01*
X913965Y992770D01*
X915965Y991936D01*
X916965Y990270D01*
G54D13*
X920632Y979436D02*
X920632Y992770D01*
X928632Y979436D01*
X928632Y992770D01*
G54D13*
X932299Y979436D02*
X932299Y992770D01*
X937299Y992770D01*
X939299Y991936D01*
X940299Y990270D01*
X940299Y981936D01*
X939299Y980270D01*
X937299Y979436D01*
X932299Y979436D01*
G54D13*
X471366Y959007D02*
X474366Y957340D01*
X475366Y955673D01*
X475366Y952340D01*
G54D13*
X467366Y952340D02*
X467366Y965673D01*
X472366Y965673D01*
X474366Y964840D01*
X475366Y963173D01*
X475366Y961507D01*
X474366Y959840D01*
X472366Y959007D01*
X467366Y959007D01*
G54D13*
X479033Y965673D02*
X489033Y952340D01*
G54D13*
X479033Y952340D02*
X489033Y965673D01*
G54D13*
X471366Y927660D02*
X471366Y940993D01*
G54D13*
X467366Y940993D02*
X475366Y940993D01*
G54D13*
X479033Y940993D02*
X489033Y927660D01*
G54D13*
X479033Y927660D02*
X489033Y940993D01*
G54D13*
X456008Y898655D02*
X457008Y900322D01*
X459008Y901155D01*
X461008Y901155D01*
X463008Y900322D01*
X464008Y898655D01*
X464008Y896989D01*
X463008Y895322D01*
X461008Y894489D01*
X463008Y893655D01*
X464008Y891989D01*
X464008Y890322D01*
X463008Y888655D01*
X461008Y887822D01*
X459008Y887822D01*
X457008Y888655D01*
X456008Y890322D01*
G54D13*
X467675Y901155D02*
X472675Y887822D01*
X477675Y901155D01*
G54D13*
X481342Y898655D02*
X482342Y900322D01*
X484342Y901155D01*
X486342Y901155D01*
X488342Y900322D01*
X489342Y898655D01*
X489342Y896989D01*
X488342Y895322D01*
X486342Y894489D01*
X488342Y893655D01*
X489342Y891989D01*
X489342Y890322D01*
X488342Y888655D01*
X486342Y887822D01*
X484342Y887822D01*
X482342Y888655D01*
X481342Y890322D01*
G54D13*
X554268Y913423D02*
X546268Y913423D01*
X546268Y907589D01*
X547268Y907589D01*
X549268Y908423D01*
X551268Y908423D01*
X553268Y907589D01*
X554268Y905923D01*
X554268Y902589D01*
X553268Y900923D01*
X551268Y900089D01*
X549268Y900089D01*
X547268Y900923D01*
X546268Y902589D01*
G54D13*
X557935Y913423D02*
X562935Y900089D01*
X567935Y913423D01*
G54D13*
X716085Y966099D02*
X708085Y966099D01*
X708085Y960266D01*
X709085Y960266D01*
X711085Y961099D01*
X713085Y961099D01*
X715085Y960266D01*
X716085Y958599D01*
X716085Y955266D01*
X715085Y953599D01*
X713085Y952766D01*
X711085Y952766D01*
X709085Y953599D01*
X708085Y955266D01*
G54D13*
X719752Y966099D02*
X724752Y952766D01*
X729752Y966099D01*
G54D13*
X908085Y963173D02*
X909085Y964840D01*
X911085Y965673D01*
X913085Y965673D01*
X915085Y964840D01*
X916085Y963173D01*
X916085Y961507D01*
X915085Y959840D01*
X913085Y959007D01*
X915085Y958173D01*
X916085Y956507D01*
X916085Y954840D01*
X915085Y953173D01*
X913085Y952340D01*
X911085Y952340D01*
X909085Y953173D01*
X908085Y954840D01*
G54D13*
X919752Y965673D02*
X924752Y952340D01*
X929752Y965673D01*
G54D13*
X933419Y963173D02*
X934419Y964840D01*
X936419Y965673D01*
X938419Y965673D01*
X940419Y964840D01*
X941419Y963173D01*
X941419Y961507D01*
X940419Y959840D01*
X938419Y959007D01*
X940419Y958173D01*
X941419Y956507D01*
X941419Y954840D01*
X940419Y953173D01*
X938419Y952340D01*
X936419Y952340D01*
X934419Y953173D01*
X933419Y954840D01*
G54D13*
X906809Y929309D02*
X907809Y927642D01*
X909809Y926809D01*
X911809Y926809D01*
X913809Y927642D01*
X914809Y929309D01*
X914809Y930976D01*
X913809Y932642D01*
X911809Y933476D01*
X909809Y933476D01*
X907809Y934309D01*
X906809Y935976D01*
X906809Y937642D01*
X907809Y939309D01*
X909809Y940142D01*
X911809Y940142D01*
X913809Y939309D01*
X914809Y937642D01*
G54D13*
X918476Y926809D02*
X918476Y940142D01*
X923476Y940142D01*
X925476Y939309D01*
X926476Y937642D01*
X926476Y929309D01*
X925476Y927642D01*
X923476Y926809D01*
X918476Y926809D01*
G54D13*
X930143Y926809D02*
X935143Y940142D01*
X940143Y926809D01*
G54D13*
X932143Y931809D02*
X938143Y931809D01*
G54D13*
X676170Y929309D02*
X677170Y927642D01*
X679170Y926809D01*
X681170Y926809D01*
X683170Y927642D01*
X684170Y929309D01*
X684170Y930976D01*
X683170Y932642D01*
X681170Y933476D01*
X679170Y933476D01*
X677170Y934309D01*
X676170Y935976D01*
X676170Y937642D01*
X677170Y939309D01*
X679170Y940142D01*
X681170Y940142D01*
X683170Y939309D01*
X684170Y937642D01*
G54D13*
X687837Y926809D02*
X687837Y940142D01*
X692837Y940142D01*
X694837Y939309D01*
X695837Y937642D01*
X695837Y929309D01*
X694837Y927642D01*
X692837Y926809D01*
X687837Y926809D01*
G54D13*
X699504Y926809D02*
X704504Y940142D01*
X709504Y926809D01*
G54D13*
X701504Y931809D02*
X707504Y931809D01*
G54D13*
X675539Y903777D02*
X676539Y902111D01*
X678539Y901277D01*
X680539Y901277D01*
X682539Y902111D01*
X683539Y903777D01*
X683539Y905444D01*
X682539Y907111D01*
X680539Y907944D01*
X678539Y907944D01*
X676539Y908777D01*
X675539Y910444D01*
X675539Y912111D01*
X676539Y913777D01*
X678539Y914611D01*
X680539Y914611D01*
X682539Y913777D01*
X683539Y912111D01*
G54D13*
X695206Y903777D02*
X694206Y902111D01*
X692206Y901277D01*
X690206Y901277D01*
X688206Y902111D01*
X687206Y903777D01*
X687206Y912111D01*
X688206Y913777D01*
X690206Y914611D01*
X692206Y914611D01*
X694206Y913777D01*
X695206Y912111D01*
G54D13*
X698873Y914611D02*
X698873Y901277D01*
X705873Y901277D01*
G54D13*
X906383Y903777D02*
X907383Y902110D01*
X909383Y901277D01*
X911383Y901277D01*
X913383Y902110D01*
X914383Y903777D01*
X914383Y905444D01*
X913383Y907110D01*
X911383Y907944D01*
X909383Y907944D01*
X907383Y908777D01*
X906383Y910444D01*
X906383Y912110D01*
X907383Y913777D01*
X909383Y914610D01*
X911383Y914610D01*
X913383Y913777D01*
X914383Y912110D01*
G54D13*
X926050Y903777D02*
X925050Y902110D01*
X923050Y901277D01*
X921050Y901277D01*
X919050Y902110D01*
X918050Y903777D01*
X918050Y912110D01*
X919050Y913777D01*
X921050Y914610D01*
X923050Y914610D01*
X925050Y913777D01*
X926050Y912110D01*
G54D13*
X929717Y914610D02*
X929717Y901277D01*
X936717Y901277D01*
G54D14*
X641400Y841400D02*
X641400Y860400D01*
X679400Y860400D01*
X679400Y841400D01*
X641400Y841400D01*
G54D14*
X641300Y850900D02*
X620700Y850900D01*
G54D14*
X700100Y850900D02*
X679500Y850900D01*
G54D16*
X656550Y846782D02*
X651217Y846782D01*
X651217Y847338D01*
X651884Y848449D01*
X655884Y851782D01*
X656550Y852893D01*
X656550Y854004D01*
X655884Y855115D01*
X654550Y855671D01*
X653217Y855671D01*
X651884Y855115D01*
X651217Y854004D01*
G54D16*
X664327Y846782D02*
X658994Y846782D01*
X658994Y847338D01*
X659661Y848449D01*
X663661Y851782D01*
X664327Y852893D01*
X664327Y854004D01*
X663661Y855115D01*
X662327Y855671D01*
X660994Y855671D01*
X659661Y855115D01*
X658994Y854004D01*
G54D16*
X672104Y854004D02*
X672104Y848449D01*
X671438Y847338D01*
X670104Y846782D01*
X668771Y846782D01*
X667438Y847338D01*
X666771Y848449D01*
X666771Y854004D01*
X667438Y855115D01*
X668771Y855671D01*
X670104Y855671D01*
X671438Y855115D01*
X672104Y854004D01*
G54D10*
X831850Y863600D02*
X908050Y863600D01*
X908050Y838200D01*
X831850Y838200D01*
X831850Y863600D01*
G54D13*
X793383Y843806D02*
X793383Y857139D01*
X798383Y848806D01*
X803383Y857139D01*
X803383Y843806D01*
G54D13*
X811050Y846306D02*
X816050Y843806D01*
G54D13*
X815050Y854639D02*
X815050Y846306D01*
X814050Y844639D01*
X812050Y843806D01*
X810050Y843806D01*
X808050Y844639D01*
X807050Y846306D01*
X807050Y854639D01*
X808050Y856306D01*
X810050Y857139D01*
X812050Y857139D01*
X814050Y856306D01*
X815050Y854639D01*
G54D13*
X819717Y854639D02*
X820717Y856306D01*
X822717Y857139D01*
X824717Y857139D01*
X826717Y856306D01*
X827717Y854639D01*
X827717Y852973D01*
X826717Y851306D01*
X824717Y850473D01*
X826717Y849639D01*
X827717Y847973D01*
X827717Y846306D01*
X826717Y844639D01*
X824717Y843806D01*
X822717Y843806D01*
X820717Y844639D01*
X819717Y846306D01*
G54D13*
X870354Y804851D02*
X870354Y808851D01*
X874521Y808851D01*
X876188Y807851D01*
X877021Y805851D01*
X877021Y803851D01*
X876188Y801851D01*
X874521Y800851D01*
X866188Y800851D01*
X864521Y801851D01*
X863688Y803851D01*
X863688Y805851D01*
X864521Y807851D01*
X866188Y808851D01*
G54D13*
X877021Y812518D02*
X863688Y812518D01*
X877021Y820518D01*
X863688Y820518D01*
G54D13*
X877021Y824185D02*
X863688Y824185D01*
X863688Y829185D01*
X864521Y831185D01*
X866188Y832185D01*
X874521Y832185D01*
X876188Y831185D01*
X877021Y829185D01*
X877021Y824185D01*
G54D13*
X890071Y817362D02*
X890071Y809362D01*
X895904Y809362D01*
X895904Y810362D01*
X895071Y812362D01*
X895071Y814362D01*
X895904Y816362D01*
X897571Y817362D01*
X900904Y817362D01*
X902571Y816362D01*
X903404Y814362D01*
X903404Y812362D01*
X902571Y810362D01*
X900904Y809362D01*
G54D13*
X890071Y821029D02*
X903404Y826029D01*
X890071Y831029D01*
G54D13*
X850638Y813617D02*
X837305Y813617D01*
X837305Y818617D01*
X838138Y820617D01*
X839805Y821617D01*
X848138Y821617D01*
X849805Y820617D01*
X850638Y818617D01*
X850638Y813617D01*
G54D13*
X839805Y833284D02*
X848138Y833284D01*
X849805Y832284D01*
X850638Y830284D01*
X850638Y828284D01*
X849805Y826284D01*
X848138Y825284D01*
X839805Y825284D01*
X838138Y826284D01*
X837305Y828284D01*
X837305Y830284D01*
X838138Y832284D01*
X839805Y833284D01*
G54D10*
X717550Y749300D02*
X844550Y749300D01*
X844550Y723900D01*
X717550Y723900D01*
X717550Y749300D01*
G54D13*
X725599Y753015D02*
X723932Y754015D01*
X723099Y756015D01*
X723099Y758015D01*
X723932Y760015D01*
X725599Y761015D01*
X727265Y761015D01*
X728932Y760015D01*
X729765Y758015D01*
X730599Y760015D01*
X732265Y761015D01*
X733932Y761015D01*
X735599Y760015D01*
X736432Y758015D01*
X736432Y756015D01*
X735599Y754015D01*
X733932Y753015D01*
G54D13*
X723099Y764682D02*
X736432Y769682D01*
X723099Y774682D01*
G54D13*
X725599Y778349D02*
X723932Y779349D01*
X723099Y781349D01*
X723099Y783349D01*
X723932Y785349D01*
X725599Y786349D01*
X727265Y786349D01*
X728932Y785349D01*
X729765Y783349D01*
X730599Y785349D01*
X732265Y786349D01*
X733932Y786349D01*
X735599Y785349D01*
X736432Y783349D01*
X736432Y781349D01*
X735599Y779349D01*
X733932Y778349D01*
G54D13*
X833534Y757015D02*
X833534Y761015D01*
X837701Y761015D01*
X839368Y760015D01*
X840201Y758015D01*
X840201Y756015D01*
X839368Y754015D01*
X837701Y753015D01*
X829368Y753015D01*
X827701Y754015D01*
X826868Y756015D01*
X826868Y758015D01*
X827701Y760015D01*
X829368Y761015D01*
G54D13*
X840201Y764682D02*
X826868Y764682D01*
X840201Y772682D01*
X826868Y772682D01*
G54D13*
X840201Y776349D02*
X826868Y776349D01*
X826868Y781349D01*
X827701Y783349D01*
X829368Y784349D01*
X837701Y784349D01*
X839368Y783349D01*
X840201Y781349D01*
X840201Y776349D01*
G54D13*
X811068Y755025D02*
X812735Y756025D01*
X813568Y758025D01*
X813568Y760025D01*
X812735Y762025D01*
X811068Y763025D01*
X809401Y763025D01*
X807735Y762025D01*
X806901Y760025D01*
X806901Y758025D01*
X806068Y756025D01*
X804401Y755025D01*
X802735Y755025D01*
X801068Y756025D01*
X800235Y758025D01*
X800235Y760025D01*
X801068Y762025D01*
X802735Y763025D01*
G54D13*
X805235Y766692D02*
X800235Y771692D01*
X813568Y771692D01*
G54D13*
X784938Y753015D02*
X786605Y754015D01*
X787438Y756015D01*
X787438Y758015D01*
X786605Y760015D01*
X784938Y761015D01*
X783271Y761015D01*
X781605Y760015D01*
X780771Y758015D01*
X780771Y756015D01*
X779938Y754015D01*
X778271Y753015D01*
X776605Y753015D01*
X774938Y754015D01*
X774105Y756015D01*
X774105Y758015D01*
X774938Y760015D01*
X776605Y761015D01*
G54D13*
X787438Y772682D02*
X787438Y764682D01*
X786605Y764682D01*
X784938Y765682D01*
X779938Y771682D01*
X778271Y772682D01*
X776605Y772682D01*
X774938Y771682D01*
X774105Y769682D01*
X774105Y767682D01*
X774938Y765682D01*
X776605Y764682D01*
G54D13*
X762563Y753015D02*
X749230Y753015D01*
G54D13*
X758396Y753015D02*
X749230Y761015D01*
G54D13*
X755896Y756015D02*
X762563Y761015D01*
G54D13*
X762563Y771682D02*
X762563Y764682D01*
X749230Y764682D01*
X749230Y771682D01*
G54D13*
X755896Y764682D02*
X755896Y771682D01*
G54D13*
X749230Y775349D02*
X755896Y780349D01*
X762563Y780349D01*
G54D13*
X755896Y780349D02*
X749230Y785349D01*
G54D13*
X749950Y704850D02*
X742950Y704850D01*
X742950Y718183D01*
X749950Y718183D01*
G54D13*
X742950Y711517D02*
X749950Y711517D01*
G54D13*
X753617Y704850D02*
X753617Y718183D01*
X761617Y704850D01*
X761617Y718183D01*
G54D13*
X773284Y707350D02*
X772284Y705683D01*
X770284Y704850D01*
X768284Y704850D01*
X766284Y705683D01*
X765284Y707350D01*
X765284Y715683D01*
X766284Y717350D01*
X768284Y718183D01*
X770284Y718183D01*
X772284Y717350D01*
X773284Y715683D01*
G54D13*
X784951Y715683D02*
X784951Y707350D01*
X783951Y705683D01*
X781951Y704850D01*
X779951Y704850D01*
X777951Y705683D01*
X776951Y707350D01*
X776951Y715683D01*
X777951Y717350D01*
X779951Y718183D01*
X781951Y718183D01*
X783951Y717350D01*
X784951Y715683D01*
G54D13*
X788618Y704850D02*
X788618Y718183D01*
X793618Y718183D01*
X795618Y717350D01*
X796618Y715683D01*
X796618Y707350D01*
X795618Y705683D01*
X793618Y704850D01*
X788618Y704850D01*
G54D13*
X807285Y704850D02*
X800285Y704850D01*
X800285Y718183D01*
X807285Y718183D01*
G54D13*
X800285Y711517D02*
X807285Y711517D01*
G54D13*
X814952Y711517D02*
X817952Y709850D01*
X818952Y708183D01*
X818952Y704850D01*
G54D13*
X810952Y704850D02*
X810952Y718183D01*
X815952Y718183D01*
X817952Y717350D01*
X818952Y715683D01*
X818952Y714017D01*
X817952Y712350D01*
X815952Y711517D01*
X810952Y711517D01*
G54D13*
X663988Y594488D02*
X664988Y596155D01*
X666988Y596988D01*
X668988Y596988D01*
X670988Y596155D01*
X671988Y594488D01*
X671988Y592821D01*
X670988Y591155D01*
X668988Y590321D01*
X670988Y589488D01*
X671988Y587821D01*
X671988Y586155D01*
X670988Y584488D01*
X668988Y583655D01*
X666988Y583655D01*
X664988Y584488D01*
X663988Y586155D01*
G54D13*
X675655Y596988D02*
X680655Y583655D01*
X685655Y596988D01*
G54D13*
X689322Y594488D02*
X690322Y596155D01*
X692322Y596988D01*
X694322Y596988D01*
X696322Y596155D01*
X697322Y594488D01*
X697322Y592821D01*
X696322Y591155D01*
X694322Y590321D01*
X696322Y589488D01*
X697322Y587821D01*
X697322Y586155D01*
X696322Y584488D01*
X694322Y583655D01*
X692322Y583655D01*
X690322Y584488D01*
X689322Y586155D01*
G54D13*
X517659Y885347D02*
X517659Y874514D01*
X518659Y872847D01*
X520659Y872014D01*
X522659Y872014D01*
X524659Y872847D01*
X525659Y874514D01*
X525659Y885347D01*
G54D13*
X529326Y872014D02*
X534326Y885347D01*
X539326Y872014D01*
G54D13*
X531326Y877014D02*
X537326Y877014D01*
G54D13*
X546993Y878681D02*
X549993Y877014D01*
X550993Y875347D01*
X550993Y872014D01*
G54D13*
X542993Y872014D02*
X542993Y885347D01*
X547993Y885347D01*
X549993Y884514D01*
X550993Y882847D01*
X550993Y881181D01*
X549993Y879514D01*
X547993Y878681D01*
X542993Y878681D01*
G54D13*
X558660Y872014D02*
X558660Y885347D01*
G54D13*
X554660Y885347D02*
X562660Y885347D01*
G54D13*
X574327Y882847D02*
X574327Y874514D01*
X573327Y872847D01*
X571327Y872014D01*
X569327Y872014D01*
X567327Y872847D01*
X566327Y874514D01*
X566327Y882847D01*
X567327Y884514D01*
X569327Y885347D01*
X571327Y885347D01*
X573327Y884514D01*
X574327Y882847D01*
G54D13*
X751773Y870473D02*
X759773Y870473D01*
G54D13*
X755773Y870473D02*
X755773Y883807D01*
G54D13*
X751773Y883807D02*
X759773Y883807D01*
G54D13*
X771440Y870473D02*
X763440Y870473D01*
X763440Y871307D01*
X764440Y872973D01*
X770440Y877973D01*
X771440Y879640D01*
X771440Y881307D01*
X770440Y882973D01*
X768440Y883807D01*
X766440Y883807D01*
X764440Y882973D01*
X763440Y881307D01*
G54D13*
X783107Y872973D02*
X782107Y871307D01*
X780107Y870473D01*
X778107Y870473D01*
X776107Y871307D01*
X775107Y872973D01*
X775107Y881307D01*
X776107Y882973D01*
X778107Y883807D01*
X780107Y883807D01*
X782107Y882973D01*
X783107Y881307D01*
G54D14*
X884950Y793750D02*
X884950Y768350D01*
X956550Y768350D01*
X956550Y793750D01*
X884950Y793750D01*
G54D14*
X919150Y789050D02*
X919150Y773050D01*
G54D14*
X922350Y789050D02*
X922350Y773050D01*
G54D14*
X906450Y781050D02*
X919150Y781050D01*
G54D14*
X922350Y781050D02*
X935050Y781050D01*
G54D14*
X630950Y971550D02*
X630950Y946150D01*
X702550Y946150D01*
X702550Y971550D01*
X630950Y971550D01*
G54D14*
X665150Y966850D02*
X665150Y950850D01*
G54D14*
X668350Y966850D02*
X668350Y950850D01*
G54D14*
X652450Y958850D02*
X665150Y958850D01*
G54D14*
X668350Y958850D02*
X681050Y958850D01*
G54D14*
X444500Y556500D02*
X419100Y556500D01*
X419100Y484900D01*
X444500Y484900D01*
X444500Y556500D01*
G54D14*
X439800Y522300D02*
X423800Y522300D01*
G54D14*
X439800Y519100D02*
X423800Y519100D01*
G54D14*
X431800Y535000D02*
X431800Y522300D01*
G54D14*
X431800Y519100D02*
X431800Y506400D01*
G54D16*
X424941Y569313D02*
X424941Y563758D01*
X424275Y562647D01*
X422941Y562091D01*
X421608Y562091D01*
X420275Y562647D01*
X419608Y563758D01*
X419608Y569313D01*
X420275Y570424D01*
X421608Y570980D01*
X422941Y570980D01*
X424275Y570424D01*
X424941Y569313D01*
G54D16*
X427918Y562091D02*
X427385Y562091D01*
X427385Y562535D01*
X427918Y562535D01*
X427918Y562091D01*
X427385Y562091D01*
G54D16*
X430362Y567647D02*
X433695Y570980D01*
X433695Y562091D01*
G54D16*
X436139Y567091D02*
X436139Y559869D01*
G54D16*
X440139Y567091D02*
X440139Y562091D01*
G54D16*
X440139Y563202D02*
X439472Y562313D01*
X438139Y562091D01*
X436806Y562313D01*
X436139Y563202D01*
X436139Y567091D01*
G54D16*
X442672Y562091D02*
X442672Y570980D01*
X447472Y570980D01*
G54D16*
X442672Y566535D02*
X447472Y566535D01*
G54D16*
X660562Y982712D02*
X660562Y977157D01*
X659896Y976046D01*
X658562Y975490D01*
X657229Y975490D01*
X655896Y976046D01*
X655229Y977157D01*
X655229Y982712D01*
X655896Y983823D01*
X657229Y984379D01*
X658562Y984379D01*
X659896Y983823D01*
X660562Y982712D01*
G54D16*
X663539Y975490D02*
X663006Y975490D01*
X663006Y975934D01*
X663539Y975934D01*
X663539Y975490D01*
X663006Y975490D01*
G54D16*
X665983Y981046D02*
X669316Y984379D01*
X669316Y975490D01*
G54D16*
X671760Y980490D02*
X671760Y973268D01*
G54D16*
X675760Y980490D02*
X675760Y975490D01*
G54D16*
X675760Y976601D02*
X675093Y975712D01*
X673760Y975490D01*
X672427Y975712D01*
X671760Y976601D01*
X671760Y980490D01*
G54D16*
X678293Y975490D02*
X678293Y984379D01*
X683093Y984379D01*
G54D16*
X678293Y979934D02*
X683093Y979934D01*
G54D16*
X914483Y762124D02*
X914483Y756569D01*
X913817Y755458D01*
X912483Y754902D01*
X911150Y754902D01*
X909817Y755458D01*
X909150Y756569D01*
X909150Y762124D01*
X909817Y763235D01*
X911150Y763791D01*
X912483Y763791D01*
X913817Y763235D01*
X914483Y762124D01*
G54D16*
X917460Y754902D02*
X916927Y754902D01*
X916927Y755346D01*
X917460Y755346D01*
X917460Y754902D01*
X916927Y754902D01*
G54D16*
X919904Y760458D02*
X923237Y763791D01*
X923237Y754902D01*
G54D16*
X925681Y759902D02*
X925681Y752680D01*
G54D16*
X929681Y759902D02*
X929681Y754902D01*
G54D16*
X929681Y756013D02*
X929014Y755124D01*
X927681Y754902D01*
X926348Y755124D01*
X925681Y756013D01*
X925681Y759902D01*
G54D16*
X932214Y754902D02*
X932214Y763791D01*
X937014Y763791D01*
G54D16*
X932214Y759346D02*
X937014Y759346D01*
G54D16*
X333704Y402609D02*
X333704Y397053D01*
X333037Y395942D01*
X331704Y395387D01*
X330371Y395387D01*
X329037Y395942D01*
X328371Y397053D01*
X328371Y402609D01*
X329037Y403720D01*
X330371Y404276D01*
X331704Y404276D01*
X333037Y403720D01*
X333704Y402609D01*
G54D16*
X336681Y395387D02*
X336148Y395387D01*
X336148Y395831D01*
X336681Y395831D01*
X336681Y395387D01*
X336148Y395387D01*
G54D16*
X339125Y400942D02*
X342458Y404276D01*
X342458Y395387D01*
G54D16*
X344902Y400387D02*
X344902Y393164D01*
G54D16*
X348902Y400387D02*
X348902Y395387D01*
G54D16*
X348902Y396498D02*
X348235Y395609D01*
X346902Y395387D01*
X345568Y395609D01*
X344902Y396498D01*
X344902Y400387D01*
G54D16*
X351435Y395387D02*
X351435Y404276D01*
X356235Y404276D01*
G54D16*
X351435Y399831D02*
X356235Y399831D01*
G54D10*
X584200Y558800D02*
X635000Y558800D01*
X635000Y533400D01*
X584200Y533400D01*
X584200Y558800D01*
G54D13*
X567297Y539702D02*
X560297Y539702D01*
X560297Y553035D01*
X567297Y553035D01*
G54D13*
X560297Y546369D02*
X567297Y546369D01*
G54D13*
X570964Y539702D02*
X570964Y553035D01*
X578964Y539702D01*
X578964Y553035D01*
G54D13*
X588215Y516018D02*
X588215Y529351D01*
X593215Y529351D01*
X595215Y528518D01*
X596215Y526851D01*
X596215Y525185D01*
X595215Y523518D01*
X593215Y522685D01*
X588215Y522685D01*
G54D13*
X599882Y529351D02*
X599882Y518518D01*
X600882Y516851D01*
X602882Y516018D01*
X604882Y516018D01*
X606882Y516851D01*
X607882Y518518D01*
X607882Y529351D01*
G54D13*
X611549Y516018D02*
X611549Y529351D01*
X616549Y521018D01*
X621549Y529351D01*
X621549Y516018D01*
G54D13*
X625216Y516018D02*
X625216Y529351D01*
X630216Y529351D01*
X632216Y528518D01*
X633216Y526851D01*
X633216Y525185D01*
X632216Y523518D01*
X630216Y522685D01*
X625216Y522685D01*
G54D10*
X584200Y603250D02*
X660400Y603250D01*
X660400Y577850D01*
X584200Y577850D01*
X584200Y603250D01*
G54D13*
X630402Y608292D02*
X630402Y616292D01*
G54D13*
X630402Y612292D02*
X617069Y612292D01*
G54D13*
X617069Y608292D02*
X617069Y616292D01*
G54D13*
X630402Y619959D02*
X617069Y627959D01*
G54D13*
X619569Y639626D02*
X627902Y639626D01*
X629569Y638626D01*
X630402Y636626D01*
X630402Y634626D01*
X629569Y632626D01*
X627902Y631626D01*
X619569Y631626D01*
X617902Y632626D01*
X617069Y634626D01*
X617069Y636626D01*
X617902Y638626D01*
X619569Y639626D01*
G54D13*
X595595Y612292D02*
X595595Y616292D01*
X599762Y616292D01*
X601429Y615292D01*
X602262Y613292D01*
X602262Y611292D01*
X601429Y609292D01*
X599762Y608292D01*
X591429Y608292D01*
X589762Y609292D01*
X588929Y611292D01*
X588929Y613292D01*
X589762Y615292D01*
X591429Y616292D01*
G54D13*
X602262Y619959D02*
X588929Y619959D01*
X602262Y627959D01*
X588929Y627959D01*
G54D13*
X602262Y631626D02*
X588929Y631626D01*
X588929Y636626D01*
X589762Y638626D01*
X591429Y639626D01*
X599762Y639626D01*
X601429Y638626D01*
X602262Y636626D01*
X602262Y631626D01*
G54D14*
X536600Y590500D02*
X555600Y590500D01*
X555600Y552500D01*
X536600Y552500D01*
X536600Y590500D01*
G54D14*
X546100Y590600D02*
X546100Y611200D01*
G54D14*
X546100Y531800D02*
X546100Y552400D01*
G54D13*
X566079Y577822D02*
X566079Y585822D01*
X579412Y577822D01*
X579412Y585822D01*
G54D13*
X568579Y597489D02*
X576912Y597489D01*
X578579Y596489D01*
X579412Y594489D01*
X579412Y592489D01*
X578579Y590489D01*
X576912Y589489D01*
X568579Y589489D01*
X566912Y590489D01*
X566079Y592489D01*
X566079Y594489D01*
X566912Y596489D01*
X568579Y597489D01*
G54D13*
X568579Y609156D02*
X576912Y609156D01*
X578579Y608156D01*
X579412Y606156D01*
X579412Y604156D01*
X578579Y602156D01*
X576912Y601156D01*
X568579Y601156D01*
X566912Y602156D01*
X566079Y604156D01*
X566079Y606156D01*
X566912Y608156D01*
X568579Y609156D01*
G54D13*
X579412Y612823D02*
X566079Y612823D01*
X574412Y617823D01*
X566079Y622823D01*
X579412Y622823D01*
G54D13*
X579412Y633490D02*
X579412Y626490D01*
X566079Y626490D01*
X566079Y633490D01*
G54D13*
X572745Y626490D02*
X572745Y633490D01*
G54D13*
X572745Y641157D02*
X574412Y644157D01*
X576079Y645157D01*
X579412Y645157D01*
G54D13*
X579412Y637157D02*
X566079Y637157D01*
X566079Y642157D01*
X566912Y644157D01*
X568579Y645157D01*
X570245Y645157D01*
X571912Y644157D01*
X572745Y642157D01*
X572745Y637157D01*
G54D13*
X854564Y871020D02*
X862564Y871020D01*
G54D13*
X858564Y871020D02*
X858564Y884354D01*
G54D13*
X854564Y884354D02*
X862564Y884354D01*
G54D13*
X874231Y871020D02*
X866231Y871020D01*
X866231Y871854D01*
X867231Y873520D01*
X873231Y878520D01*
X874231Y880187D01*
X874231Y881854D01*
X873231Y883520D01*
X871231Y884354D01*
X869231Y884354D01*
X867231Y883520D01*
X866231Y881854D01*
G54D13*
X885898Y873520D02*
X884898Y871854D01*
X882898Y871020D01*
X880898Y871020D01*
X878898Y871854D01*
X877898Y873520D01*
X877898Y881854D01*
X878898Y883520D01*
X880898Y884354D01*
X882898Y884354D01*
X884898Y883520D01*
X885898Y881854D01*
G54D16*
X544708Y563288D02*
X541375Y566622D01*
X550264Y566622D01*
G54D16*
X543042Y574399D02*
X548597Y574399D01*
X549708Y573732D01*
X550264Y572399D01*
X550264Y571065D01*
X549708Y569732D01*
X548597Y569065D01*
X543042Y569065D01*
X541931Y569732D01*
X541375Y571065D01*
X541375Y572399D01*
X541931Y573732D01*
X543042Y574399D01*
G54D16*
X550264Y576842D02*
X541375Y576842D01*
G54D16*
X546931Y578842D02*
X550264Y580842D01*
G54D16*
X548042Y576842D02*
X545264Y580842D01*
G54D13*
X819477Y619813D02*
X819477Y633146D01*
X827477Y619813D01*
X827477Y633146D01*
G54D13*
X831144Y619813D02*
X836144Y633146D01*
X841144Y619813D01*
G54D13*
X833144Y624813D02*
X839144Y624813D01*
G54D13*
X844811Y619813D02*
X844811Y633146D01*
X852811Y619813D01*
X852811Y633146D01*
G54D13*
X864478Y630646D02*
X864478Y622313D01*
X863478Y620646D01*
X861478Y619813D01*
X859478Y619813D01*
X857478Y620646D01*
X856478Y622313D01*
X856478Y630646D01*
X857478Y632313D01*
X859478Y633146D01*
X861478Y633146D01*
X863478Y632313D01*
X864478Y630646D01*
G54D13*
X801669Y638298D02*
X806669Y651631D01*
X811669Y638298D01*
G54D13*
X803669Y643298D02*
X809669Y643298D01*
G54D13*
X819336Y644965D02*
X822336Y643298D01*
X823336Y641631D01*
X823336Y638298D01*
G54D13*
X815336Y638298D02*
X815336Y651631D01*
X820336Y651631D01*
X822336Y650798D01*
X823336Y649131D01*
X823336Y647465D01*
X822336Y645798D01*
X820336Y644965D01*
X815336Y644965D01*
G54D13*
X827003Y638298D02*
X827003Y651631D01*
X832003Y651631D01*
X834003Y650798D01*
X835003Y649131D01*
X835003Y640798D01*
X834003Y639131D01*
X832003Y638298D01*
X827003Y638298D01*
G54D13*
X838670Y651631D02*
X838670Y640798D01*
X839670Y639131D01*
X841670Y638298D01*
X843670Y638298D01*
X845670Y639131D01*
X846670Y640798D01*
X846670Y651631D01*
G54D13*
X850337Y638298D02*
X858337Y638298D01*
G54D13*
X854337Y638298D02*
X854337Y651631D01*
G54D13*
X850337Y651631D02*
X858337Y651631D01*
G54D13*
X862004Y638298D02*
X862004Y651631D01*
X870004Y638298D01*
X870004Y651631D01*
G54D13*
X881671Y649131D02*
X881671Y640798D01*
X880671Y639131D01*
X878671Y638298D01*
X876671Y638298D01*
X874671Y639131D01*
X873671Y640798D01*
X873671Y649131D01*
X874671Y650798D01*
X876671Y651631D01*
X878671Y651631D01*
X880671Y650798D01*
X881671Y649131D01*
G54D10*
X342900Y482600D02*
X393700Y482600D01*
X393700Y508000D01*
X342900Y508000D01*
X342900Y482600D01*
G54D10*
X825500Y304800D02*
X869950Y304800D01*
X869950Y330200D01*
X825500Y330200D01*
X825500Y304800D01*
G54D14*
X600100Y939750D02*
X619100Y939750D01*
X619100Y901750D01*
X600100Y901750D01*
X600100Y939750D01*
G54D14*
X609600Y939850D02*
X609600Y960450D01*
G54D14*
X609600Y881050D02*
X609600Y901650D01*
G54D16*
X608208Y912538D02*
X604875Y915872D01*
X613764Y915872D01*
G54D16*
X606542Y923649D02*
X612097Y923649D01*
X613208Y922982D01*
X613764Y921649D01*
X613764Y920315D01*
X613208Y918982D01*
X612097Y918315D01*
X606542Y918315D01*
X605431Y918982D01*
X604875Y920315D01*
X604875Y921649D01*
X605431Y922982D01*
X606542Y923649D01*
G54D16*
X613764Y926092D02*
X604875Y926092D01*
G54D16*
X610431Y928092D02*
X613764Y930092D01*
G54D16*
X611542Y926092D02*
X608764Y930092D01*
G54D13*
X548769Y958721D02*
X551769Y957054D01*
X552769Y955387D01*
X552769Y952054D01*
G54D13*
X544769Y952054D02*
X544769Y965387D01*
X549769Y965387D01*
X551769Y964554D01*
X552769Y962887D01*
X552769Y961221D01*
X551769Y959554D01*
X549769Y958721D01*
X544769Y958721D01*
G54D13*
X556436Y965387D02*
X566436Y952054D01*
G54D13*
X556436Y952054D02*
X566436Y965387D01*
G54D13*
X548411Y925550D02*
X548411Y938883D01*
G54D13*
X544411Y938883D02*
X552411Y938883D01*
G54D13*
X556078Y938883D02*
X566078Y925550D01*
G54D13*
X556078Y925550D02*
X566078Y938883D01*
G54D13*
X144567Y878617D02*
X144567Y891950D01*
G54D13*
X140567Y891950D02*
X148567Y891950D01*
G54D13*
X159234Y878617D02*
X152234Y878617D01*
X152234Y891950D01*
X159234Y891950D01*
G54D13*
X152234Y885284D02*
X159234Y885284D01*
G54D13*
X166901Y885284D02*
X169901Y883617D01*
X170901Y881950D01*
X170901Y878617D01*
G54D13*
X162901Y878617D02*
X162901Y891950D01*
X167901Y891950D01*
X169901Y891117D01*
X170901Y889450D01*
X170901Y887784D01*
X169901Y886117D01*
X167901Y885284D01*
X162901Y885284D01*
G54D13*
X174568Y878617D02*
X174568Y891950D01*
X179568Y883617D01*
X184568Y891950D01*
X184568Y878617D01*
G54D13*
X196235Y889450D02*
X196235Y881117D01*
X195235Y879450D01*
X193235Y878617D01*
X191235Y878617D01*
X189235Y879450D01*
X188235Y881117D01*
X188235Y889450D01*
X189235Y891117D01*
X191235Y891950D01*
X193235Y891950D01*
X195235Y891117D01*
X196235Y889450D01*
G54D13*
X203769Y881117D02*
X204769Y879450D01*
X206769Y878617D01*
X208769Y878617D01*
X210769Y879450D01*
X211769Y881117D01*
X211769Y882784D01*
X210769Y884450D01*
X208769Y885284D01*
X206769Y885284D01*
X204769Y886117D01*
X203769Y887784D01*
X203769Y889450D01*
X204769Y891117D01*
X206769Y891950D01*
X208769Y891950D01*
X210769Y891117D01*
X211769Y889450D01*
G54D13*
X222436Y878617D02*
X215436Y878617D01*
X215436Y891950D01*
X222436Y891950D01*
G54D13*
X215436Y885284D02*
X222436Y885284D01*
G54D13*
X226103Y878617D02*
X226103Y891950D01*
X234103Y878617D01*
X234103Y891950D01*
G54D13*
X237770Y881117D02*
X238770Y879450D01*
X240770Y878617D01*
X242770Y878617D01*
X244770Y879450D01*
X245770Y881117D01*
X245770Y882784D01*
X244770Y884450D01*
X242770Y885284D01*
X240770Y885284D01*
X238770Y886117D01*
X237770Y887784D01*
X237770Y889450D01*
X238770Y891117D01*
X240770Y891950D01*
X242770Y891950D01*
X244770Y891117D01*
X245770Y889450D01*
G54D13*
X257437Y889450D02*
X257437Y881117D01*
X256437Y879450D01*
X254437Y878617D01*
X252437Y878617D01*
X250437Y879450D01*
X249437Y881117D01*
X249437Y889450D01*
X250437Y891117D01*
X252437Y891950D01*
X254437Y891950D01*
X256437Y891117D01*
X257437Y889450D01*
G54D13*
X265104Y885284D02*
X268104Y883617D01*
X269104Y881950D01*
X269104Y878617D01*
G54D13*
X261104Y878617D02*
X261104Y891950D01*
X266104Y891950D01*
X268104Y891117D01*
X269104Y889450D01*
X269104Y887784D01*
X268104Y886117D01*
X266104Y885284D01*
X261104Y885284D01*
G54D13*
X272771Y881117D02*
X273771Y879450D01*
X275771Y878617D01*
X277771Y878617D01*
X279771Y879450D01*
X280771Y881117D01*
X280771Y882784D01*
X279771Y884450D01*
X277771Y885284D01*
X275771Y885284D01*
X273771Y886117D01*
X272771Y887784D01*
X272771Y889450D01*
X273771Y891117D01*
X275771Y891950D01*
X277771Y891950D01*
X279771Y891117D01*
X280771Y889450D01*
G54D13*
X288305Y884450D02*
X296305Y884450D01*
G54D13*
X303839Y878617D02*
X303839Y891950D01*
X308839Y891950D01*
X310839Y891117D01*
X311839Y889450D01*
X311839Y881117D01*
X310839Y879450D01*
X308839Y878617D01*
X303839Y878617D01*
G54D13*
X315506Y881117D02*
X316506Y879450D01*
X318506Y878617D01*
X320506Y878617D01*
X322506Y879450D01*
X323506Y881117D01*
X323506Y882784D01*
X322506Y884450D01*
X320506Y885284D01*
X318506Y885284D01*
X316506Y886117D01*
X315506Y887784D01*
X315506Y889450D01*
X316506Y891117D01*
X318506Y891950D01*
X320506Y891950D01*
X322506Y891117D01*
X323506Y889450D01*
G54D13*
X327173Y886950D02*
X332173Y891950D01*
X332173Y878617D01*
G54D13*
X340840Y885284D02*
X338840Y885284D01*
X336840Y886117D01*
X335840Y887784D01*
X335840Y889450D01*
X336840Y891117D01*
X338840Y891950D01*
X340840Y891950D01*
X342840Y891117D01*
X343840Y889450D01*
X343840Y887784D01*
X342840Y886117D01*
X340840Y885284D01*
X342840Y884450D01*
X343840Y882784D01*
X343840Y881117D01*
X342840Y879450D01*
X340840Y878617D01*
X338840Y878617D01*
X336840Y879450D01*
X335840Y881117D01*
X335840Y882784D01*
X336840Y884450D01*
X338840Y885284D01*
G54D13*
X347507Y878617D02*
X347507Y891950D01*
X352507Y891950D01*
X354507Y891117D01*
X355507Y889450D01*
X355507Y887784D01*
X354507Y886117D01*
X352507Y885284D01*
X354507Y884450D01*
X355507Y882784D01*
X355507Y881117D01*
X354507Y879450D01*
X352507Y878617D01*
X347507Y878617D01*
G54D13*
X347507Y885284D02*
X352507Y885284D01*
G54D13*
X367174Y878617D02*
X359174Y878617D01*
X359174Y879450D01*
X360174Y881117D01*
X366174Y886117D01*
X367174Y887784D01*
X367174Y889450D01*
X366174Y891117D01*
X364174Y891950D01*
X362174Y891950D01*
X360174Y891117D01*
X359174Y889450D01*
G54D13*
X378841Y889450D02*
X378841Y881117D01*
X377841Y879450D01*
X375841Y878617D01*
X373841Y878617D01*
X371841Y879450D01*
X370841Y881117D01*
X370841Y889450D01*
X371841Y891117D01*
X373841Y891950D01*
X375841Y891950D01*
X377841Y891117D01*
X378841Y889450D01*
G54D19*
X263000Y346500D02*
X266100Y351800D01*
G54D19*
X262300Y360900D02*
X245500Y360800D01*
X254600Y346400D01*
X262200Y360900D01*
G54D19*
X263400Y346400D02*
X245900Y346300D01*
G54D19*
X254400Y304600D02*
X253900Y406000D01*
G54D19*
X242600Y340900D02*
X245700Y346200D01*
G54D14*
X219900Y340400D02*
X237300Y340400D01*
X237300Y370800D01*
X219900Y370800D01*
X219900Y340400D01*
G36*
X220000Y340500D02*
X236700Y340500D01*
X236700Y347700D01*
X220000Y347700D01*
X220000Y340500D01*
G37*
G54D14*
X220000Y340500D02*
X236700Y340500D01*
X236700Y347700D01*
X220000Y347700D01*
X220000Y340500D01*
G54D14*
X228600Y316700D02*
X228600Y340500D01*
G54D14*
X228600Y370700D02*
X228600Y394500D01*
G54D14*
X73700Y364300D02*
X73700Y346900D01*
X104100Y346900D01*
X104100Y364300D01*
X73700Y364300D01*
G36*
X73800Y364200D02*
X73800Y347500D01*
X81000Y347500D01*
X81000Y364200D01*
X73800Y364200D01*
G37*
G54D14*
X73800Y364200D02*
X73800Y347500D01*
X81000Y347500D01*
X81000Y364200D01*
X73800Y364200D01*
G54D14*
X50000Y355600D02*
X73800Y355600D01*
G54D14*
X104000Y355600D02*
X127800Y355600D01*
G54D13*
X247518Y424170D02*
X247518Y416170D01*
X253351Y416170D01*
X253351Y417170D01*
X252518Y419170D01*
X252518Y421170D01*
X253351Y423170D01*
X255018Y424170D01*
X258351Y424170D01*
X260018Y423170D01*
X260851Y421170D01*
X260851Y419170D01*
X260018Y417170D01*
X258351Y416170D01*
G54D13*
X247518Y427837D02*
X260851Y432837D01*
X247518Y437837D01*
G54D13*
X343699Y536064D02*
X346699Y534397D01*
X347699Y532730D01*
X347699Y529397D01*
G54D13*
X339699Y529397D02*
X339699Y542730D01*
X344699Y542730D01*
X346699Y541897D01*
X347699Y540230D01*
X347699Y538564D01*
X346699Y536897D01*
X344699Y536064D01*
X339699Y536064D01*
G54D13*
X351366Y537730D02*
X356366Y542730D01*
X356366Y529397D01*
G54D13*
X343447Y561189D02*
X346447Y559522D01*
X347447Y557855D01*
X347447Y554522D01*
G54D13*
X339447Y554522D02*
X339447Y567855D01*
X344447Y567855D01*
X346447Y567022D01*
X347447Y565355D01*
X347447Y563689D01*
X346447Y562022D01*
X344447Y561189D01*
X339447Y561189D01*
G54D13*
X359114Y554522D02*
X351114Y554522D01*
X351114Y555355D01*
X352114Y557022D01*
X358114Y562022D01*
X359114Y563689D01*
X359114Y565355D01*
X358114Y567022D01*
X356114Y567855D01*
X354114Y567855D01*
X352114Y567022D01*
X351114Y565355D01*
G54D13*
X343950Y585812D02*
X346950Y584145D01*
X347950Y582478D01*
X347950Y579145D01*
G54D13*
X339950Y579145D02*
X339950Y592478D01*
X344950Y592478D01*
X346950Y591645D01*
X347950Y589978D01*
X347950Y588312D01*
X346950Y586645D01*
X344950Y585812D01*
X339950Y585812D01*
G54D13*
X351617Y589978D02*
X352617Y591645D01*
X354617Y592478D01*
X356617Y592478D01*
X358617Y591645D01*
X359617Y589978D01*
X359617Y588312D01*
X358617Y586645D01*
X356617Y585812D01*
X358617Y584978D01*
X359617Y583312D01*
X359617Y581645D01*
X358617Y579978D01*
X356617Y579145D01*
X354617Y579145D01*
X352617Y579978D01*
X351617Y581645D01*
G54D13*
X344955Y611441D02*
X347955Y609774D01*
X348955Y608107D01*
X348955Y604774D01*
G54D13*
X340955Y604774D02*
X340955Y618107D01*
X345955Y618107D01*
X347955Y617274D01*
X348955Y615607D01*
X348955Y613941D01*
X347955Y612274D01*
X345955Y611441D01*
X340955Y611441D01*
G54D13*
X358622Y604774D02*
X358622Y618107D01*
X352622Y609774D01*
X352622Y608107D01*
X360622Y608107D01*
G54D13*
X344201Y637320D02*
X347201Y635653D01*
X348201Y633986D01*
X348201Y630653D01*
G54D13*
X340201Y630653D02*
X340201Y643986D01*
X345201Y643986D01*
X347201Y643153D01*
X348201Y641486D01*
X348201Y639820D01*
X347201Y638153D01*
X345201Y637320D01*
X340201Y637320D01*
G54D13*
X359868Y643986D02*
X351868Y643986D01*
X351868Y638153D01*
X352868Y638153D01*
X354868Y638986D01*
X356868Y638986D01*
X358868Y638153D01*
X359868Y636486D01*
X359868Y633153D01*
X358868Y631486D01*
X356868Y630653D01*
X354868Y630653D01*
X352868Y631486D01*
X351868Y633153D01*
G54D13*
X343950Y662948D02*
X346950Y661281D01*
X347950Y659614D01*
X347950Y656281D01*
G54D13*
X339950Y656281D02*
X339950Y669614D01*
X344950Y669614D01*
X346950Y668781D01*
X347950Y667114D01*
X347950Y665448D01*
X346950Y663781D01*
X344950Y662948D01*
X339950Y662948D01*
G54D13*
X359617Y667114D02*
X358617Y668781D01*
X356617Y669614D01*
X354617Y669614D01*
X352617Y668781D01*
X351617Y667114D01*
X351617Y662948D01*
X351617Y662114D01*
X354617Y663781D01*
X356617Y663781D01*
X358617Y662948D01*
X359617Y661281D01*
X359617Y658781D01*
X358617Y657114D01*
X356617Y656281D01*
X354617Y656281D01*
X352617Y657114D01*
X351617Y658781D01*
X351617Y662948D01*
G54D13*
X344201Y686817D02*
X347201Y685150D01*
X348201Y683483D01*
X348201Y680150D01*
G54D13*
X340201Y680150D02*
X340201Y693483D01*
X345201Y693483D01*
X347201Y692650D01*
X348201Y690983D01*
X348201Y689317D01*
X347201Y687650D01*
X345201Y686817D01*
X340201Y686817D01*
G54D13*
X351868Y693483D02*
X359868Y693483D01*
X358868Y691817D01*
X356868Y689317D01*
X354868Y685983D01*
X353868Y683483D01*
X353868Y680150D01*
G54D13*
X343950Y726265D02*
X346950Y724598D01*
X347950Y722931D01*
X347950Y719598D01*
G54D13*
X339950Y719598D02*
X339950Y732931D01*
X344950Y732931D01*
X346950Y732098D01*
X347950Y730431D01*
X347950Y728765D01*
X346950Y727098D01*
X344950Y726265D01*
X339950Y726265D01*
G54D13*
X356617Y726265D02*
X354617Y726265D01*
X352617Y727098D01*
X351617Y728765D01*
X351617Y730431D01*
X352617Y732098D01*
X354617Y732931D01*
X356617Y732931D01*
X358617Y732098D01*
X359617Y730431D01*
X359617Y728765D01*
X358617Y727098D01*
X356617Y726265D01*
X358617Y725431D01*
X359617Y723765D01*
X359617Y722098D01*
X358617Y720431D01*
X356617Y719598D01*
X354617Y719598D01*
X352617Y720431D01*
X351617Y722098D01*
X351617Y723765D01*
X352617Y725431D01*
X354617Y726265D01*
G54D13*
X341843Y305753D02*
X340843Y304086D01*
X338843Y303253D01*
X336843Y303253D01*
X334843Y304086D01*
X333843Y305753D01*
X333843Y314086D01*
X334843Y315753D01*
X336843Y316586D01*
X338843Y316586D01*
X340843Y315753D01*
X341843Y314086D01*
G54D13*
X345510Y311586D02*
X350510Y316586D01*
X350510Y303253D01*
G54D13*
X468851Y375691D02*
X467851Y374024D01*
X465851Y373191D01*
X463851Y373191D01*
X461851Y374024D01*
X460851Y375691D01*
X460851Y384024D01*
X461851Y385691D01*
X463851Y386524D01*
X465851Y386524D01*
X467851Y385691D01*
X468851Y384024D01*
G54D13*
X480518Y373191D02*
X472518Y373191D01*
X472518Y374024D01*
X473518Y375691D01*
X479518Y380691D01*
X480518Y382358D01*
X480518Y384024D01*
X479518Y385691D01*
X477518Y386524D01*
X475518Y386524D01*
X473518Y385691D01*
X472518Y384024D01*
G54D13*
X575234Y375266D02*
X574234Y373599D01*
X572234Y372766D01*
X570234Y372766D01*
X568234Y373599D01*
X567234Y375266D01*
X567234Y383599D01*
X568234Y385266D01*
X570234Y386099D01*
X572234Y386099D01*
X574234Y385266D01*
X575234Y383599D01*
G54D13*
X578901Y383599D02*
X579901Y385266D01*
X581901Y386099D01*
X583901Y386099D01*
X585901Y385266D01*
X586901Y383599D01*
X586901Y381932D01*
X585901Y380266D01*
X583901Y379432D01*
X585901Y378599D01*
X586901Y376932D01*
X586901Y375266D01*
X585901Y373599D01*
X583901Y372766D01*
X581901Y372766D01*
X579901Y373599D01*
X578901Y375266D01*
G54D13*
X509277Y457819D02*
X508277Y456152D01*
X506277Y455319D01*
X504277Y455319D01*
X502277Y456152D01*
X501277Y457819D01*
X501277Y466152D01*
X502277Y467819D01*
X504277Y468652D01*
X506277Y468652D01*
X508277Y467819D01*
X509277Y466152D01*
G54D13*
X518944Y455319D02*
X518944Y468652D01*
X512944Y460319D01*
X512944Y458652D01*
X520944Y458652D01*
G54D13*
X400340Y542500D02*
X399340Y540833D01*
X397340Y540000D01*
X395340Y540000D01*
X393340Y540833D01*
X392340Y542500D01*
X392340Y550833D01*
X393340Y552500D01*
X395340Y553333D01*
X397340Y553333D01*
X399340Y552500D01*
X400340Y550833D01*
G54D13*
X412007Y553333D02*
X404007Y553333D01*
X404007Y547500D01*
X405007Y547500D01*
X407007Y548333D01*
X409007Y548333D01*
X411007Y547500D01*
X412007Y545833D01*
X412007Y542500D01*
X411007Y540833D01*
X409007Y540000D01*
X407007Y540000D01*
X405007Y540833D01*
X404007Y542500D01*
G54D13*
X918213Y799947D02*
X917213Y798280D01*
X915213Y797447D01*
X913213Y797447D01*
X911213Y798280D01*
X910213Y799947D01*
X910213Y808280D01*
X911213Y809947D01*
X913213Y810780D01*
X915213Y810780D01*
X917213Y809947D01*
X918213Y808280D01*
G54D13*
X929880Y808280D02*
X928880Y809947D01*
X926880Y810780D01*
X924880Y810780D01*
X922880Y809947D01*
X921880Y808280D01*
X921880Y804114D01*
X921880Y803280D01*
X924880Y804947D01*
X926880Y804947D01*
X928880Y804114D01*
X929880Y802447D01*
X929880Y799947D01*
X928880Y798280D01*
X926880Y797447D01*
X924880Y797447D01*
X922880Y798280D01*
X921880Y799947D01*
X921880Y804114D01*
G54D13*
X640340Y930585D02*
X639340Y928918D01*
X637340Y928085D01*
X635340Y928085D01*
X633340Y928918D01*
X632340Y930585D01*
X632340Y938918D01*
X633340Y940585D01*
X635340Y941418D01*
X637340Y941418D01*
X639340Y940585D01*
X640340Y938918D01*
G54D13*
X644007Y941418D02*
X652007Y941418D01*
X651007Y939752D01*
X649007Y937252D01*
X647007Y933918D01*
X646007Y931418D01*
X646007Y928085D01*
G54D13*
X526553Y541986D02*
X529553Y540319D01*
X530553Y538652D01*
X530553Y535319D01*
G54D13*
X522553Y535319D02*
X522553Y548652D01*
X527553Y548652D01*
X529553Y547819D01*
X530553Y546152D01*
X530553Y544486D01*
X529553Y542819D01*
X527553Y541986D01*
X522553Y541986D01*
G54D13*
X534220Y537819D02*
X535220Y536152D01*
X537220Y535319D01*
X539220Y535319D01*
X541220Y536152D01*
X542220Y537819D01*
X542220Y541986D01*
X542220Y542819D01*
X539220Y541152D01*
X537220Y541152D01*
X535220Y541986D01*
X534220Y543652D01*
X534220Y546152D01*
X535220Y547819D01*
X537220Y548652D01*
X539220Y548652D01*
X541220Y547819D01*
X542220Y546152D01*
X542220Y541986D01*
G54D13*
X619319Y890922D02*
X622319Y889255D01*
X623319Y887588D01*
X623319Y884255D01*
G54D13*
X615319Y884255D02*
X615319Y897588D01*
X620319Y897588D01*
X622319Y896755D01*
X623319Y895088D01*
X623319Y893422D01*
X622319Y891755D01*
X620319Y890922D01*
X615319Y890922D01*
G54D13*
X626986Y892588D02*
X631986Y897588D01*
X631986Y884255D01*
G54D13*
X643653Y895088D02*
X643653Y886755D01*
X642653Y885088D01*
X640653Y884255D01*
X638653Y884255D01*
X636653Y885088D01*
X635653Y886755D01*
X635653Y895088D01*
X636653Y896755D01*
X638653Y897588D01*
X640653Y897588D01*
X642653Y896755D01*
X643653Y895088D01*
G54D13*
X651660Y829646D02*
X654660Y827979D01*
X655660Y826312D01*
X655660Y822979D01*
G54D13*
X647660Y822979D02*
X647660Y836312D01*
X652660Y836312D01*
X654660Y835479D01*
X655660Y833812D01*
X655660Y832146D01*
X654660Y830479D01*
X652660Y829646D01*
X647660Y829646D01*
G54D13*
X659327Y831312D02*
X664327Y836312D01*
X664327Y822979D01*
G54D13*
X667994Y831312D02*
X672994Y836312D01*
X672994Y822979D01*
G54D13*
X818468Y470497D02*
X821468Y468830D01*
X822468Y467163D01*
X822468Y463830D01*
G54D13*
X814468Y463830D02*
X814468Y477163D01*
X819468Y477163D01*
X821468Y476330D01*
X822468Y474663D01*
X822468Y472997D01*
X821468Y471330D01*
X819468Y470497D01*
X814468Y470497D01*
G54D13*
X826135Y472163D02*
X831135Y477163D01*
X831135Y463830D01*
G54D13*
X842802Y463830D02*
X834802Y463830D01*
X834802Y464663D01*
X835802Y466330D01*
X841802Y471330D01*
X842802Y472997D01*
X842802Y474663D01*
X841802Y476330D01*
X839802Y477163D01*
X837802Y477163D01*
X835802Y476330D01*
X834802Y474663D01*
G54D13*
X190213Y388652D02*
X195213Y375319D01*
X200213Y388652D01*
G54D13*
X203880Y375319D02*
X203880Y388652D01*
X208880Y388652D01*
X210880Y387819D01*
X211880Y386152D01*
X211880Y377819D01*
X210880Y376152D01*
X208880Y375319D01*
X203880Y375319D01*
G54D13*
X215547Y383652D02*
X220547Y388652D01*
X220547Y375319D01*
G54D13*
X108936Y374610D02*
X113936Y361277D01*
X118936Y374610D01*
G54D13*
X122603Y361277D02*
X122603Y374610D01*
X127603Y374610D01*
X129603Y373777D01*
X130603Y372110D01*
X130603Y363777D01*
X129603Y362110D01*
X127603Y361277D01*
X122603Y361277D01*
G54D13*
X142270Y361277D02*
X134270Y361277D01*
X134270Y362110D01*
X135270Y363777D01*
X141270Y368777D01*
X142270Y370444D01*
X142270Y372110D01*
X141270Y373777D01*
X139270Y374610D01*
X137270Y374610D01*
X135270Y373777D01*
X134270Y372110D01*
G54D13*
X236596Y289078D02*
X241596Y275745D01*
X246596Y289078D01*
G54D13*
X250263Y275745D02*
X250263Y289078D01*
X255263Y289078D01*
X257263Y288245D01*
X258263Y286578D01*
X258263Y278245D01*
X257263Y276578D01*
X255263Y275745D01*
X250263Y275745D01*
G54D13*
X261930Y286578D02*
X262930Y288245D01*
X264930Y289078D01*
X266930Y289078D01*
X268930Y288245D01*
X269930Y286578D01*
X269930Y284912D01*
X268930Y283245D01*
X266930Y282412D01*
X268930Y281578D01*
X269930Y279912D01*
X269930Y278245D01*
X268930Y276578D01*
X266930Y275745D01*
X264930Y275745D01*
X262930Y276578D01*
X261930Y278245D01*
G54D13*
X284255Y289078D02*
X284255Y275745D01*
X291255Y275745D01*
G54D13*
X294922Y284078D02*
X299922Y289078D01*
X299922Y275745D01*
G54D13*
X138298Y409078D02*
X143298Y395745D01*
X148298Y409078D01*
G54D13*
X155965Y395745D02*
X155965Y409078D01*
G54D13*
X151965Y409078D02*
X159965Y409078D01*
G54D13*
X163632Y404078D02*
X168632Y409078D01*
X168632Y395745D01*
G54D13*
X137872Y542269D02*
X142872Y528936D01*
X147872Y542269D01*
G54D13*
X155539Y528936D02*
X155539Y542269D01*
G54D13*
X151539Y542269D02*
X159539Y542269D01*
G54D13*
X171206Y528936D02*
X163206Y528936D01*
X163206Y529769D01*
X164206Y531436D01*
X170206Y536436D01*
X171206Y538103D01*
X171206Y539769D01*
X170206Y541436D01*
X168206Y542269D01*
X166206Y542269D01*
X164206Y541436D01*
X163206Y539769D01*
G54D13*
X137021Y694184D02*
X142021Y680851D01*
X147021Y694184D01*
G54D13*
X154688Y680851D02*
X154688Y694184D01*
G54D13*
X150688Y694184D02*
X158688Y694184D01*
G54D13*
X162355Y691684D02*
X163355Y693351D01*
X165355Y694184D01*
X167355Y694184D01*
X169355Y693351D01*
X170355Y691684D01*
X170355Y690018D01*
X169355Y688351D01*
X167355Y687518D01*
X169355Y686684D01*
X170355Y685018D01*
X170355Y683351D01*
X169355Y681684D01*
X167355Y680851D01*
X165355Y680851D01*
X163355Y681684D01*
X162355Y683351D01*
G54D13*
X138298Y840567D02*
X143298Y827234D01*
X148298Y840567D01*
G54D13*
X155965Y827234D02*
X155965Y840567D01*
G54D13*
X151965Y840567D02*
X159965Y840567D01*
G54D13*
X169632Y827234D02*
X169632Y840567D01*
X163632Y832234D01*
X163632Y830567D01*
X171632Y830567D01*
G54D20*
X717550Y933450D02*
X717550Y882650D01*
G54D20*
X425450Y908050D02*
X476250Y908050D01*
G54D20*
X647700Y622300D02*
X647700Y673100D01*
G54D20*
X869950Y673100D02*
X869950Y730250D01*
G54D20*
X946150Y857250D02*
X946150Y908050D01*
G54D20*
X819150Y882650D02*
X819150Y958850D01*
G54D20*
X647700Y495300D02*
X647700Y546100D01*
G54D14*
X355600Y391400D02*
X330200Y391400D01*
X330200Y319800D01*
X355600Y319800D01*
X355600Y391400D01*
G54D14*
X350900Y357200D02*
X334900Y357200D01*
G54D14*
X350900Y354000D02*
X334900Y354000D01*
G54D14*
X342900Y369900D02*
X342900Y357200D01*
G54D14*
X342900Y354000D02*
X342900Y341300D01*
G54D20*
X952500Y571500D02*
X952500Y622300D01*
G54D10*
X965200Y584200D02*
X990600Y584200D01*
X990600Y482600D01*
X965200Y482600D01*
X965200Y584200D01*
G54D16*
X976248Y599739D02*
X970915Y599739D01*
X970915Y595850D01*
X971582Y595850D01*
X972915Y596406D01*
X974248Y596406D01*
X975582Y595850D01*
X976248Y594739D01*
X976248Y592517D01*
X975582Y591406D01*
X974248Y590850D01*
X972915Y590850D01*
X971582Y591406D01*
X970915Y592517D01*
G54D16*
X978692Y599739D02*
X982025Y590850D01*
X985359Y599739D01*
G54D16*
X940668Y544601D02*
X943335Y544601D01*
X943335Y541823D01*
X942668Y540712D01*
X941335Y540156D01*
X940001Y540156D01*
X938668Y540712D01*
X938001Y541823D01*
X938001Y547379D01*
X938668Y548490D01*
X940001Y549045D01*
X941335Y549045D01*
X942668Y548490D01*
X943335Y547379D01*
G54D16*
X945778Y540156D02*
X945778Y549045D01*
X951112Y540156D01*
X951112Y549045D01*
G54D16*
X953555Y540156D02*
X953555Y549045D01*
X956889Y549045D01*
X958222Y548490D01*
X958889Y547379D01*
X958889Y541823D01*
X958222Y540712D01*
X956889Y540156D01*
X953555Y540156D01*
G54D16*
X938889Y490556D02*
X939556Y489445D01*
X940889Y488889D01*
X942222Y488889D01*
X943556Y489445D01*
X944222Y490556D01*
X944222Y491667D01*
X943556Y492778D01*
X942222Y493333D01*
X940889Y493333D01*
X939556Y493889D01*
X938889Y495000D01*
X938889Y496111D01*
X939556Y497222D01*
X940889Y497778D01*
X942222Y497778D01*
X943556Y497222D01*
X944222Y496111D01*
G54D16*
X946666Y488889D02*
X946666Y497778D01*
X949999Y497778D01*
X951333Y497222D01*
X951999Y496111D01*
X951999Y490556D01*
X951333Y489445D01*
X949999Y488889D01*
X946666Y488889D01*
G54D16*
X954443Y488889D02*
X957776Y497778D01*
X961110Y488889D01*
G54D16*
X955776Y492222D02*
X959776Y492222D01*
G54D16*
X940196Y517353D02*
X940863Y516242D01*
X942196Y515686D01*
X943529Y515686D01*
X944863Y516242D01*
X945529Y517353D01*
X945529Y518464D01*
X944863Y519575D01*
X943529Y520130D01*
X942196Y520130D01*
X940863Y520686D01*
X940196Y521797D01*
X940196Y522908D01*
X940863Y524019D01*
X942196Y524575D01*
X943529Y524575D01*
X944863Y524019D01*
X945529Y522908D01*
G54D16*
X953306Y517353D02*
X952640Y516242D01*
X951306Y515686D01*
X949973Y515686D01*
X948640Y516242D01*
X947973Y517353D01*
X947973Y522908D01*
X948640Y524019D01*
X949973Y524575D01*
X951306Y524575D01*
X952640Y524019D01*
X953306Y522908D01*
G54D16*
X955750Y524575D02*
X955750Y515686D01*
X960417Y515686D01*
G54D16*
X983987Y395098D02*
X975098Y398431D01*
X983987Y401765D01*
G54D16*
X980654Y396431D02*
X980654Y400431D01*
G54D16*
X979543Y406876D02*
X980654Y408876D01*
X981765Y409542D01*
X983987Y409542D01*
G54D16*
X983987Y404209D02*
X975098Y404209D01*
X975098Y407542D01*
X975654Y408876D01*
X976765Y409542D01*
X977876Y409542D01*
X978987Y408876D01*
X979543Y407542D01*
X979543Y404209D01*
G54D16*
X983987Y411986D02*
X975098Y411986D01*
X975098Y415319D01*
X975654Y416653D01*
X976765Y417319D01*
X982320Y417319D01*
X983431Y416653D01*
X983987Y415319D01*
X983987Y411986D01*
G54D16*
X975098Y419763D02*
X982320Y419763D01*
X983431Y420430D01*
X983987Y421763D01*
X983987Y423096D01*
X983431Y424430D01*
X982320Y425096D01*
X975098Y425096D01*
G54D16*
X983987Y427540D02*
X983987Y432873D01*
G54D16*
X983987Y430207D02*
X975098Y430207D01*
G54D16*
X975098Y427540D02*
X975098Y432873D01*
G54D16*
X983987Y435317D02*
X975098Y435317D01*
X983987Y440650D01*
X975098Y440650D01*
G54D16*
X976765Y448427D02*
X982320Y448427D01*
X983431Y447761D01*
X983987Y446427D01*
X983987Y445094D01*
X983431Y443761D01*
X982320Y443094D01*
X976765Y443094D01*
X975654Y443761D01*
X975098Y445094D01*
X975098Y446427D01*
X975654Y447761D01*
X976765Y448427D01*
G54D16*
X983987Y453448D02*
X983987Y458781D01*
G54D16*
X983987Y456115D02*
X975098Y456115D01*
G54D16*
X975098Y453448D02*
X975098Y458781D01*
G54D16*
X983987Y466558D02*
X983987Y461225D01*
X983431Y461225D01*
X982320Y461892D01*
X978987Y465892D01*
X977876Y466558D01*
X976765Y466558D01*
X975654Y465892D01*
X975098Y464558D01*
X975098Y463225D01*
X975654Y461892D01*
X976765Y461225D01*
G54D16*
X982320Y474335D02*
X983431Y473669D01*
X983987Y472335D01*
X983987Y471002D01*
X983431Y469669D01*
X982320Y469002D01*
X976765Y469002D01*
X975654Y469669D01*
X975098Y471002D01*
X975098Y472335D01*
X975654Y473669D01*
X976765Y474335D01*
G54D10*
X107950Y908050D02*
X107950Y895350D01*
X412750Y895350D01*
X412750Y908050D01*
G54D10*
X495300Y889000D02*
X596900Y889000D01*
G54D10*
X736270Y889130D02*
X800229Y889130D01*
X800458Y888902D01*
G54D10*
X838200Y889000D02*
X901700Y889000D01*
G54D16*
X255506Y822024D02*
X255506Y827024D01*
G54D16*
X255506Y828691D02*
X255506Y828691D01*
G54D16*
X257950Y822024D02*
X257950Y827024D01*
G54D16*
X257950Y825913D02*
X258617Y826691D01*
X259950Y827024D01*
X261283Y826691D01*
X261950Y825913D01*
X261950Y822024D01*
G54D16*
X264394Y827024D02*
X264394Y819802D01*
G54D16*
X264394Y823691D02*
X265061Y822246D01*
X266394Y822024D01*
X267727Y822246D01*
X268394Y823357D01*
X268394Y825580D01*
X267727Y826691D01*
X266394Y827024D01*
X265061Y826691D01*
X264394Y825357D01*
G54D16*
X274838Y827024D02*
X274838Y822024D01*
G54D16*
X274838Y823135D02*
X274171Y822246D01*
X272838Y822024D01*
X271505Y822246D01*
X270838Y823135D01*
X270838Y827024D01*
G54D16*
X278615Y830913D02*
X278615Y822580D01*
X279282Y822024D01*
X279949Y822246D01*
G54D16*
X277282Y827024D02*
X279949Y827024D01*
G54D16*
X255077Y796375D02*
X255077Y801375D01*
G54D16*
X255077Y803042D02*
X255077Y803042D01*
G54D16*
X257521Y796375D02*
X257521Y801375D01*
G54D16*
X257521Y800264D02*
X258188Y801042D01*
X259521Y801375D01*
X260855Y801042D01*
X261521Y800264D01*
X261521Y796375D01*
G54D16*
X263965Y801375D02*
X263965Y794153D01*
G54D16*
X263965Y798042D02*
X264632Y796597D01*
X265965Y796375D01*
X267299Y796597D01*
X267965Y797709D01*
X267965Y799931D01*
X267299Y801042D01*
X265965Y801375D01*
X264632Y801042D01*
X263965Y799709D01*
G54D16*
X274409Y801375D02*
X274409Y796375D01*
G54D16*
X274409Y797486D02*
X273743Y796597D01*
X272409Y796375D01*
X271076Y796597D01*
X270409Y797486D01*
X270409Y801375D01*
G54D16*
X278187Y805264D02*
X278187Y796931D01*
X278853Y796375D01*
X279520Y796597D01*
G54D16*
X276853Y801375D02*
X279520Y801375D01*
G54D16*
X254631Y771673D02*
X254631Y776673D01*
G54D16*
X254631Y778339D02*
X254631Y778339D01*
G54D16*
X257075Y771673D02*
X257075Y776673D01*
G54D16*
X257075Y775562D02*
X257742Y776339D01*
X259075Y776673D01*
X260408Y776339D01*
X261075Y775562D01*
X261075Y771673D01*
G54D16*
X263519Y776673D02*
X263519Y769451D01*
G54D16*
X263519Y773339D02*
X264186Y771895D01*
X265519Y771673D01*
X266852Y771895D01*
X267519Y773006D01*
X267519Y775228D01*
X266852Y776339D01*
X265519Y776673D01*
X264186Y776339D01*
X263519Y775006D01*
G54D16*
X273963Y776673D02*
X273963Y771673D01*
G54D16*
X273963Y772784D02*
X273296Y771895D01*
X271963Y771673D01*
X270630Y771895D01*
X269963Y772784D01*
X269963Y776673D01*
G54D16*
X277740Y780562D02*
X277740Y772228D01*
X278407Y771673D01*
X279074Y771895D01*
G54D16*
X276407Y776673D02*
X279074Y776673D01*
G54D16*
X255226Y746078D02*
X255226Y751078D01*
G54D16*
X255226Y752744D02*
X255226Y752744D01*
G54D16*
X257670Y746078D02*
X257670Y751078D01*
G54D16*
X257670Y749966D02*
X258337Y750744D01*
X259670Y751078D01*
X261003Y750744D01*
X261670Y749966D01*
X261670Y746078D01*
G54D16*
X264114Y751078D02*
X264114Y743855D01*
G54D16*
X264114Y747744D02*
X264781Y746300D01*
X266114Y746078D01*
X267448Y746300D01*
X268114Y747411D01*
X268114Y749633D01*
X267448Y750744D01*
X266114Y751078D01*
X264781Y750744D01*
X264114Y749411D01*
G54D16*
X274558Y751078D02*
X274558Y746078D01*
G54D16*
X274558Y747189D02*
X273892Y746300D01*
X272558Y746078D01*
X271225Y746300D01*
X270558Y747189D01*
X270558Y751078D01*
G54D16*
X278336Y754966D02*
X278336Y746633D01*
X279002Y746078D01*
X279669Y746300D01*
G54D16*
X277002Y751078D02*
X279669Y751078D01*
M02*
