%FSLAX34Y34*%
%MOMM*%
%LNCOPPER_BOTTOM*%
G71*
G01*
%ADD10C, 1.80*%
%ADD11C, 2.00*%
%ADD12C, 2.00*%
%ADD13C, 2.00*%
%ADD14C, 4.00*%
%ADD15C, 2.50*%
%ADD16C, 1.80*%
%ADD17C, 0.32*%
%LPD*%
G36*
X757831Y677543D02*
X763681Y683393D01*
X771981Y683393D01*
X777831Y677543D01*
X777831Y669243D01*
X771981Y663393D01*
X763681Y663393D01*
X757831Y669243D01*
X757831Y677543D01*
G37*
G36*
X757831Y652142D02*
X763681Y657992D01*
X771981Y657992D01*
X777831Y652142D01*
X777831Y643842D01*
X771981Y637992D01*
X763681Y637992D01*
X757831Y643842D01*
X757831Y652142D01*
G37*
G36*
X757831Y626743D02*
X763681Y632593D01*
X771981Y632593D01*
X777831Y626743D01*
X777831Y618443D01*
X771981Y612593D01*
X763681Y612593D01*
X757831Y618443D01*
X757831Y626743D01*
G37*
G36*
X757831Y601343D02*
X763681Y607193D01*
X771981Y607193D01*
X777831Y601343D01*
X777831Y593043D01*
X771981Y587193D01*
X763681Y587193D01*
X757831Y593043D01*
X757831Y601343D01*
G37*
G36*
X757831Y575943D02*
X763681Y581793D01*
X771981Y581793D01*
X777831Y575943D01*
X777831Y567643D01*
X771981Y561793D01*
X763681Y561793D01*
X757831Y567643D01*
X757831Y575943D01*
G37*
G36*
X757831Y550543D02*
X763681Y556393D01*
X771981Y556393D01*
X777831Y550543D01*
X777831Y542243D01*
X771981Y536393D01*
X763681Y536393D01*
X757831Y542243D01*
X757831Y550543D01*
G37*
G36*
X757831Y525143D02*
X763681Y530993D01*
X771981Y530993D01*
X777831Y525143D01*
X777831Y516843D01*
X771981Y510993D01*
X763681Y510993D01*
X757831Y516843D01*
X757831Y525143D01*
G37*
G36*
X757831Y499743D02*
X763681Y505593D01*
X771981Y505593D01*
X777831Y499743D01*
X777831Y491443D01*
X771981Y485593D01*
X763681Y485593D01*
X757831Y491443D01*
X757831Y499743D01*
G37*
G36*
X757831Y474343D02*
X763681Y480193D01*
X771981Y480193D01*
X777831Y474343D01*
X777831Y466043D01*
X771981Y460193D01*
X763681Y460193D01*
X757831Y466043D01*
X757831Y474343D01*
G37*
G36*
X757831Y448943D02*
X763681Y454793D01*
X771981Y454793D01*
X777831Y448943D01*
X777831Y440643D01*
X771981Y434793D01*
X763681Y434793D01*
X757831Y440643D01*
X757831Y448943D01*
G37*
G36*
X757831Y423543D02*
X763681Y429393D01*
X771981Y429393D01*
X777831Y423543D01*
X777831Y415243D01*
X771981Y409393D01*
X763681Y409393D01*
X757831Y415243D01*
X757831Y423543D01*
G37*
G36*
X757831Y398143D02*
X763681Y403993D01*
X771981Y403993D01*
X777831Y398143D01*
X777831Y389843D01*
X771981Y383993D01*
X763681Y383993D01*
X757831Y389843D01*
X757831Y398143D01*
G37*
G36*
X757830Y372743D02*
X763680Y378593D01*
X771980Y378593D01*
X777830Y372743D01*
X777830Y364443D01*
X771980Y358593D01*
X763680Y358593D01*
X757830Y364443D01*
X757830Y372743D01*
G37*
G36*
X757831Y347343D02*
X763681Y353193D01*
X771981Y353193D01*
X777831Y347343D01*
X777831Y339043D01*
X771981Y333193D01*
X763681Y333193D01*
X757831Y339043D01*
X757831Y347343D01*
G37*
G36*
X757831Y321943D02*
X763681Y327793D01*
X771981Y327793D01*
X777831Y321943D01*
X777831Y313643D01*
X771981Y307793D01*
X763681Y307793D01*
X757831Y313643D01*
X757831Y321943D01*
G37*
G36*
X910231Y321943D02*
X916081Y327793D01*
X924381Y327793D01*
X930231Y321943D01*
X930231Y313643D01*
X924381Y307793D01*
X916081Y307793D01*
X910231Y313643D01*
X910231Y321943D01*
G37*
G36*
X910231Y677543D02*
X916081Y683393D01*
X924381Y683393D01*
X930231Y677543D01*
X930231Y669243D01*
X924381Y663393D01*
X916081Y663393D01*
X910231Y669243D01*
X910231Y677543D01*
G37*
G36*
X910231Y652142D02*
X916081Y657992D01*
X924381Y657992D01*
X930231Y652142D01*
X930231Y643842D01*
X924381Y637992D01*
X916081Y637992D01*
X910231Y643842D01*
X910231Y652142D01*
G37*
G36*
X910231Y626743D02*
X916081Y632593D01*
X924381Y632593D01*
X930231Y626743D01*
X930231Y618443D01*
X924381Y612593D01*
X916081Y612593D01*
X910231Y618443D01*
X910231Y626743D01*
G37*
G36*
X910230Y601343D02*
X916080Y607193D01*
X924380Y607193D01*
X930230Y601343D01*
X930230Y593043D01*
X924380Y587193D01*
X916080Y587193D01*
X910230Y593043D01*
X910230Y601343D01*
G37*
G36*
X910231Y575943D02*
X916081Y581793D01*
X924381Y581793D01*
X930231Y575943D01*
X930231Y567643D01*
X924381Y561793D01*
X916081Y561793D01*
X910231Y567643D01*
X910231Y575943D01*
G37*
G36*
X910231Y550543D02*
X916081Y556393D01*
X924381Y556393D01*
X930231Y550543D01*
X930231Y542243D01*
X924381Y536393D01*
X916081Y536393D01*
X910231Y542243D01*
X910231Y550543D01*
G37*
G36*
X910231Y525143D02*
X916081Y530993D01*
X924381Y530993D01*
X930231Y525143D01*
X930231Y516843D01*
X924381Y510993D01*
X916081Y510993D01*
X910231Y516843D01*
X910231Y525143D01*
G37*
G36*
X910231Y499743D02*
X916081Y505593D01*
X924381Y505593D01*
X930231Y499743D01*
X930231Y491443D01*
X924381Y485593D01*
X916081Y485593D01*
X910231Y491443D01*
X910231Y499743D01*
G37*
G36*
X910230Y474343D02*
X916080Y480193D01*
X924380Y480193D01*
X930230Y474343D01*
X930230Y466043D01*
X924380Y460193D01*
X916080Y460193D01*
X910230Y466043D01*
X910230Y474343D01*
G37*
G36*
X910231Y448943D02*
X916081Y454793D01*
X924381Y454793D01*
X930231Y448943D01*
X930231Y440643D01*
X924381Y434793D01*
X916081Y434793D01*
X910231Y440643D01*
X910231Y448943D01*
G37*
G36*
X910230Y423543D02*
X916080Y429393D01*
X924380Y429393D01*
X930230Y423543D01*
X930230Y415243D01*
X924380Y409393D01*
X916080Y409393D01*
X910230Y415243D01*
X910230Y423543D01*
G37*
G36*
X910230Y398143D02*
X916080Y403993D01*
X924380Y403993D01*
X930230Y398143D01*
X930230Y389843D01*
X924380Y383993D01*
X916080Y383993D01*
X910230Y389843D01*
X910230Y398143D01*
G37*
G36*
X910231Y372743D02*
X916081Y378593D01*
X924381Y378593D01*
X930231Y372743D01*
X930231Y364443D01*
X924381Y358593D01*
X916081Y358593D01*
X910231Y364443D01*
X910231Y372743D01*
G37*
G36*
X910231Y347343D02*
X916081Y353193D01*
X924381Y353193D01*
X930231Y347343D01*
X930231Y339043D01*
X924381Y333193D01*
X916081Y333193D01*
X910231Y339043D01*
X910231Y347343D01*
G37*
G36*
X231300Y855050D02*
X237150Y860900D01*
X245450Y860900D01*
X251300Y855050D01*
X251300Y846750D01*
X245450Y840900D01*
X237150Y840900D01*
X231300Y846750D01*
X231300Y855050D01*
G37*
G36*
X231300Y829650D02*
X237150Y835500D01*
X245450Y835500D01*
X251300Y829650D01*
X251300Y821350D01*
X245450Y815500D01*
X237150Y815500D01*
X231300Y821350D01*
X231300Y829650D01*
G37*
G36*
X231300Y804250D02*
X237150Y810100D01*
X245450Y810100D01*
X251300Y804250D01*
X251300Y795950D01*
X245450Y790100D01*
X237150Y790100D01*
X231300Y795950D01*
X231300Y804250D01*
G37*
G36*
X231300Y778850D02*
X237150Y784700D01*
X245450Y784700D01*
X251300Y778850D01*
X251300Y770550D01*
X245450Y764700D01*
X237150Y764700D01*
X231300Y770550D01*
X231300Y778850D01*
G37*
G36*
X231300Y753450D02*
X237150Y759300D01*
X245450Y759300D01*
X251300Y753450D01*
X251300Y745150D01*
X245450Y739300D01*
X237150Y739300D01*
X231300Y745150D01*
X231300Y753450D01*
G37*
G36*
X231300Y728050D02*
X237150Y733900D01*
X245450Y733900D01*
X251300Y728050D01*
X251300Y719750D01*
X245450Y713900D01*
X237150Y713900D01*
X231300Y719750D01*
X231300Y728050D01*
G37*
G36*
X231300Y702650D02*
X237150Y708500D01*
X245450Y708500D01*
X251300Y702650D01*
X251300Y694350D01*
X245450Y688500D01*
X237150Y688500D01*
X231300Y694350D01*
X231300Y702650D01*
G37*
G36*
X231300Y677250D02*
X237150Y683100D01*
X245450Y683100D01*
X251300Y677250D01*
X251300Y668950D01*
X245450Y663100D01*
X237150Y663100D01*
X231300Y668950D01*
X231300Y677250D01*
G37*
G36*
X231300Y651850D02*
X237150Y657700D01*
X245450Y657700D01*
X251300Y651850D01*
X251300Y643550D01*
X245450Y637700D01*
X237150Y637700D01*
X231300Y643550D01*
X231300Y651850D01*
G37*
G36*
X231300Y626450D02*
X237150Y632300D01*
X245450Y632300D01*
X251300Y626450D01*
X251300Y618150D01*
X245450Y612300D01*
X237150Y612300D01*
X231300Y618150D01*
X231300Y626450D01*
G37*
G36*
X231300Y601050D02*
X237150Y606900D01*
X245450Y606900D01*
X251300Y601050D01*
X251300Y592750D01*
X245450Y586900D01*
X237150Y586900D01*
X231300Y592750D01*
X231300Y601050D01*
G37*
G36*
X231300Y575650D02*
X237150Y581500D01*
X245450Y581500D01*
X251300Y575650D01*
X251300Y567350D01*
X245450Y561500D01*
X237150Y561500D01*
X231300Y567350D01*
X231300Y575650D01*
G37*
G36*
X231300Y550250D02*
X237150Y556100D01*
X245450Y556100D01*
X251300Y550250D01*
X251300Y541950D01*
X245450Y536100D01*
X237150Y536100D01*
X231300Y541950D01*
X231300Y550250D01*
G37*
G36*
X231300Y524850D02*
X237150Y530700D01*
X245450Y530700D01*
X251300Y524850D01*
X251300Y516550D01*
X245450Y510700D01*
X237150Y510700D01*
X231300Y516550D01*
X231300Y524850D01*
G37*
G36*
X231300Y499450D02*
X237150Y505300D01*
X245450Y505300D01*
X251300Y499450D01*
X251300Y491150D01*
X245450Y485300D01*
X237150Y485300D01*
X231300Y491150D01*
X231300Y499450D01*
G37*
G36*
X485300Y499450D02*
X491150Y505300D01*
X499450Y505300D01*
X505300Y499450D01*
X505300Y491150D01*
X499450Y485300D01*
X491150Y485300D01*
X485300Y491150D01*
X485300Y499450D01*
G37*
G36*
X485300Y524850D02*
X491150Y530700D01*
X499450Y530700D01*
X505300Y524850D01*
X505300Y516550D01*
X499450Y510700D01*
X491150Y510700D01*
X485300Y516550D01*
X485300Y524850D01*
G37*
G36*
X485300Y550250D02*
X491150Y556100D01*
X499450Y556100D01*
X505300Y550250D01*
X505300Y541950D01*
X499450Y536100D01*
X491150Y536100D01*
X485300Y541950D01*
X485300Y550250D01*
G37*
G36*
X485300Y575650D02*
X491150Y581500D01*
X499450Y581500D01*
X505300Y575650D01*
X505300Y567350D01*
X499450Y561500D01*
X491150Y561500D01*
X485300Y567350D01*
X485300Y575650D01*
G37*
G36*
X485300Y601050D02*
X491150Y606900D01*
X499450Y606900D01*
X505300Y601050D01*
X505300Y592750D01*
X499450Y586900D01*
X491150Y586900D01*
X485300Y592750D01*
X485300Y601050D01*
G37*
G36*
X485300Y626450D02*
X491150Y632300D01*
X499450Y632300D01*
X505300Y626450D01*
X505300Y618150D01*
X499450Y612300D01*
X491150Y612300D01*
X485300Y618150D01*
X485300Y626450D01*
G37*
G36*
X485300Y651850D02*
X491150Y657700D01*
X499450Y657700D01*
X505300Y651850D01*
X505300Y643550D01*
X499450Y637700D01*
X491150Y637700D01*
X485300Y643550D01*
X485300Y651850D01*
G37*
G36*
X485300Y677250D02*
X491150Y683100D01*
X499450Y683100D01*
X505300Y677250D01*
X505300Y668950D01*
X499450Y663100D01*
X491150Y663100D01*
X485300Y668950D01*
X485300Y677250D01*
G37*
G36*
X485300Y702650D02*
X491150Y708500D01*
X499450Y708500D01*
X505300Y702650D01*
X505300Y694350D01*
X499450Y688500D01*
X491150Y688500D01*
X485300Y694350D01*
X485300Y702650D01*
G37*
G36*
X485300Y728050D02*
X491150Y733900D01*
X499450Y733900D01*
X505300Y728050D01*
X505300Y719750D01*
X499450Y713900D01*
X491150Y713900D01*
X485300Y719750D01*
X485300Y728050D01*
G37*
G36*
X485300Y753450D02*
X491150Y759300D01*
X499450Y759300D01*
X505300Y753450D01*
X505300Y745150D01*
X499450Y739300D01*
X491150Y739300D01*
X485300Y745150D01*
X485300Y753450D01*
G37*
G36*
X485300Y778850D02*
X491150Y784700D01*
X499450Y784700D01*
X505300Y778850D01*
X505300Y770550D01*
X499450Y764700D01*
X491150Y764700D01*
X485300Y770550D01*
X485300Y778850D01*
G37*
G36*
X485300Y804250D02*
X491150Y810100D01*
X499450Y810100D01*
X505300Y804250D01*
X505300Y795950D01*
X499450Y790100D01*
X491150Y790100D01*
X485300Y795950D01*
X485300Y804250D01*
G37*
G36*
X485300Y829650D02*
X491150Y835500D01*
X499450Y835500D01*
X505300Y829650D01*
X505300Y821350D01*
X499450Y815500D01*
X491150Y815500D01*
X485300Y821350D01*
X485300Y829650D01*
G37*
G36*
X485300Y855050D02*
X491150Y860900D01*
X499450Y860900D01*
X505300Y855050D01*
X505300Y846750D01*
X499450Y840900D01*
X491150Y840900D01*
X485300Y846750D01*
X485300Y855050D01*
G37*
X114300Y406400D02*
G54D10*
D03*
X88900Y406400D02*
G54D10*
D03*
X63500Y406400D02*
G54D10*
D03*
X114300Y692150D02*
G54D10*
D03*
X88900Y692150D02*
G54D10*
D03*
X63500Y692150D02*
G54D10*
D03*
X114300Y539750D02*
G54D10*
D03*
X88900Y539750D02*
G54D10*
D03*
X63500Y539750D02*
G54D10*
D03*
G36*
X78900Y474050D02*
X84750Y479900D01*
X93050Y479900D01*
X98900Y474050D01*
X98900Y465750D01*
X93050Y459900D01*
X84750Y459900D01*
X78900Y465750D01*
X78900Y474050D01*
G37*
G36*
X78900Y620100D02*
X84750Y625950D01*
X93050Y625950D01*
X98900Y620100D01*
X98900Y611800D01*
X93050Y605950D01*
X84750Y605950D01*
X78900Y611800D01*
X78900Y620100D01*
G37*
G36*
X78900Y766150D02*
X84750Y772000D01*
X93050Y772000D01*
X98900Y766150D01*
X98900Y757850D01*
X93050Y752000D01*
X84750Y752000D01*
X78900Y757850D01*
X78900Y766150D01*
G37*
G36*
X28100Y766150D02*
X33950Y772000D01*
X42250Y772000D01*
X48100Y766150D01*
X48100Y757850D01*
X42250Y752000D01*
X33950Y752000D01*
X28100Y757850D01*
X28100Y766150D01*
G37*
G36*
X28100Y620100D02*
X33950Y625950D01*
X42250Y625950D01*
X48100Y620100D01*
X48100Y611800D01*
X42250Y605950D01*
X33950Y605950D01*
X28100Y611800D01*
X28100Y620100D01*
G37*
G36*
X28100Y474050D02*
X33950Y479900D01*
X42250Y479900D01*
X48100Y474050D01*
X48100Y465750D01*
X42250Y459900D01*
X33950Y459900D01*
X28100Y465750D01*
X28100Y474050D01*
G37*
G36*
X390642Y937600D02*
X396492Y943450D01*
X404792Y943450D01*
X410642Y937600D01*
X410642Y929300D01*
X404792Y923450D01*
X396492Y923450D01*
X390642Y929300D01*
X390642Y937600D01*
G37*
G36*
X390642Y963000D02*
X396492Y968850D01*
X404792Y968850D01*
X410642Y963000D01*
X410642Y954700D01*
X404792Y948850D01*
X396492Y948850D01*
X390642Y954700D01*
X390642Y963000D01*
G37*
G36*
X390642Y988400D02*
X396492Y994250D01*
X404792Y994250D01*
X410642Y988400D01*
X410642Y980100D01*
X404792Y974250D01*
X396492Y974250D01*
X390642Y980100D01*
X390642Y988400D01*
G37*
G36*
X301742Y988400D02*
X307592Y994250D01*
X315892Y994250D01*
X321742Y988400D01*
X321742Y980100D01*
X315892Y974250D01*
X307592Y974250D01*
X301742Y980100D01*
X301742Y988400D01*
G37*
G36*
X301742Y963000D02*
X307592Y968850D01*
X315892Y968850D01*
X321742Y963000D01*
X321742Y954700D01*
X315892Y948850D01*
X307592Y948850D01*
X301742Y954700D01*
X301742Y963000D01*
G37*
G36*
X301742Y937600D02*
X307592Y943450D01*
X315892Y943450D01*
X321742Y937600D01*
X321742Y929300D01*
X315892Y923450D01*
X307592Y923450D01*
X301742Y929300D01*
X301742Y937600D01*
G37*
G36*
X212842Y988400D02*
X218692Y994250D01*
X226992Y994250D01*
X232842Y988400D01*
X232842Y980100D01*
X226992Y974250D01*
X218692Y974250D01*
X212842Y980100D01*
X212842Y988400D01*
G37*
G36*
X212842Y963000D02*
X218692Y968850D01*
X226992Y968850D01*
X232842Y963000D01*
X232842Y954700D01*
X226992Y948850D01*
X218692Y948850D01*
X212842Y954700D01*
X212842Y963000D01*
G37*
G36*
X212842Y937600D02*
X218692Y943450D01*
X226992Y943450D01*
X232842Y937600D01*
X232842Y929300D01*
X226992Y923450D01*
X218692Y923450D01*
X212842Y929300D01*
X212842Y937600D01*
G37*
G36*
X123942Y988400D02*
X129792Y994250D01*
X138092Y994250D01*
X143942Y988400D01*
X143942Y980100D01*
X138092Y974250D01*
X129792Y974250D01*
X123942Y980100D01*
X123942Y988400D01*
G37*
G36*
X123942Y963000D02*
X129792Y968850D01*
X138092Y968850D01*
X143942Y963000D01*
X143942Y954700D01*
X138092Y948850D01*
X129792Y948850D01*
X123942Y954700D01*
X123942Y963000D01*
G37*
G36*
X123942Y937600D02*
X129792Y943450D01*
X138092Y943450D01*
X143942Y937600D01*
X143942Y929300D01*
X138092Y923450D01*
X129792Y923450D01*
X123942Y929300D01*
X123942Y937600D01*
G37*
G54D11*
X133942Y958850D02*
X400642Y958850D01*
X266700Y622300D02*
G54D12*
D03*
X368300Y622300D02*
G54D12*
D03*
X266700Y596900D02*
G54D12*
D03*
X368300Y596900D02*
G54D12*
D03*
X266700Y571500D02*
G54D12*
D03*
X368300Y571500D02*
G54D12*
D03*
X266700Y546100D02*
G54D12*
D03*
X368300Y546100D02*
G54D12*
D03*
G54D11*
X241300Y546100D02*
X266700Y546100D01*
G54D11*
X241300Y571500D02*
X266700Y571500D01*
G54D11*
X241300Y596900D02*
X266700Y596900D01*
G54D11*
X241300Y622300D02*
X266700Y622300D01*
G54D11*
X241300Y520700D02*
X368300Y520700D01*
X368300Y546100D01*
X368300Y622300D01*
G54D11*
X133942Y984250D02*
X400642Y984250D01*
X266700Y647700D02*
G54D12*
D03*
X368300Y647700D02*
G54D12*
D03*
X266700Y673100D02*
G54D12*
D03*
X368300Y673100D02*
G54D12*
D03*
X266700Y698500D02*
G54D12*
D03*
X368300Y698500D02*
G54D12*
D03*
G54D11*
X241300Y647700D02*
X266700Y647700D01*
X266700Y736600D02*
G54D12*
D03*
X368300Y736600D02*
G54D12*
D03*
G54D11*
X368300Y647700D02*
X368300Y736600D01*
G54D11*
X368300Y647700D02*
X393700Y647700D01*
X406400Y635000D01*
X406400Y508000D01*
X419100Y495300D01*
X495300Y495300D01*
G36*
X688500Y474050D02*
X694350Y479900D01*
X702650Y479900D01*
X708500Y474050D01*
X708500Y465750D01*
X702650Y459900D01*
X694350Y459900D01*
X688500Y465750D01*
X688500Y474050D01*
G37*
G36*
X688500Y448650D02*
X694350Y454500D01*
X702650Y454500D01*
X708500Y448650D01*
X708500Y440350D01*
X702650Y434500D01*
X694350Y434500D01*
X688500Y440350D01*
X688500Y448650D01*
G37*
G36*
X688500Y423250D02*
X694350Y429100D01*
X702650Y429100D01*
X708500Y423250D01*
X708500Y414950D01*
X702650Y409100D01*
X694350Y409100D01*
X688500Y414950D01*
X688500Y423250D01*
G37*
G36*
X688500Y397850D02*
X694350Y403700D01*
X702650Y403700D01*
X708500Y397850D01*
X708500Y389550D01*
X702650Y383700D01*
X694350Y383700D01*
X688500Y389550D01*
X688500Y397850D01*
G37*
G36*
X368300Y622300D02*
X342900Y622300D01*
X342900Y685800D01*
X304800Y647700D01*
X292100Y647700D01*
X292100Y520700D01*
X368300Y520700D01*
X368300Y622300D01*
G37*
G54D11*
X368300Y622300D02*
X342900Y622300D01*
X342900Y685800D01*
X304800Y647700D01*
X292100Y647700D01*
X292100Y520700D01*
X368300Y520700D01*
X368300Y622300D01*
X457200Y292100D02*
G54D12*
D03*
X457200Y342900D02*
G54D12*
D03*
X577850Y292100D02*
G54D12*
D03*
X577850Y342900D02*
G54D12*
D03*
X285750Y381000D02*
G54D13*
D03*
X285750Y304800D02*
G54D13*
D03*
G36*
X170500Y313100D02*
X182200Y324800D01*
X198800Y324800D01*
X210500Y313100D01*
X210500Y296500D01*
X198800Y284800D01*
X182200Y284800D01*
X170500Y296500D01*
X170500Y313100D01*
G37*
G36*
X119700Y313100D02*
X131400Y324800D01*
X148000Y324800D01*
X159700Y313100D01*
X159700Y296500D01*
X148000Y284800D01*
X131400Y284800D01*
X119700Y296500D01*
X119700Y313100D01*
G37*
G36*
X68900Y313100D02*
X80600Y324800D01*
X97200Y324800D01*
X108900Y313100D01*
X108900Y296500D01*
X97200Y284800D01*
X80600Y284800D01*
X68900Y296500D01*
X68900Y313100D01*
G37*
X971550Y971550D02*
G54D14*
D03*
X971550Y279400D02*
G54D14*
D03*
X31750Y279400D02*
G54D14*
D03*
X31750Y971550D02*
G54D14*
D03*
G54D15*
X190500Y304800D02*
X285750Y304800D01*
X114300Y838200D02*
G54D10*
D03*
X88900Y838200D02*
G54D10*
D03*
X63500Y838200D02*
G54D10*
D03*
G36*
X78900Y924900D02*
X84750Y930750D01*
X93050Y930750D01*
X98900Y924900D01*
X98900Y916600D01*
X93050Y910750D01*
X84750Y910750D01*
X78900Y916600D01*
X78900Y924900D01*
G37*
G36*
X28100Y924900D02*
X33950Y930750D01*
X42250Y930750D01*
X48100Y924900D01*
X48100Y916600D01*
X42250Y910750D01*
X33950Y910750D01*
X28100Y916600D01*
X28100Y924900D01*
G37*
G54D11*
X38100Y469900D02*
X38100Y920750D01*
G54D11*
X63500Y400050D02*
X63500Y838200D01*
G54D11*
X88900Y838200D02*
X88900Y920750D01*
G54D11*
X88900Y692150D02*
X88900Y762000D01*
G54D11*
X88900Y539750D02*
X88900Y615950D01*
G54D11*
X88900Y406400D02*
X88900Y469900D01*
G54D11*
X241300Y622300D02*
X196850Y622300D01*
X184150Y635000D01*
X184150Y692150D01*
X165100Y711200D01*
X165100Y787400D01*
X114300Y838200D01*
G54D11*
X241300Y596900D02*
X184150Y596900D01*
X152400Y628650D01*
X152400Y679450D01*
X139700Y692150D01*
X114300Y692150D01*
G54D11*
X241300Y571500D02*
X146050Y571500D01*
X114300Y539750D01*
G54D11*
X241300Y546100D02*
X184150Y546100D01*
X114300Y476250D01*
X114300Y406400D01*
G54D11*
X38100Y469900D02*
X38100Y355600D01*
X88900Y304800D01*
G54D11*
X63500Y400050D02*
X63500Y381000D01*
X101600Y342900D01*
X139700Y342900D01*
X139700Y304800D01*
G54D11*
X368300Y736600D02*
X368300Y908050D01*
X425450Y908050D01*
X425450Y958850D01*
X400642Y958850D01*
G54D11*
X241300Y647700D02*
X209550Y647700D01*
X209550Y704850D01*
X190500Y723900D01*
X190500Y825500D01*
X133350Y882650D01*
X133350Y932858D01*
X133942Y933450D01*
G54D11*
X241300Y673100D02*
X292100Y673100D01*
X336550Y717550D01*
X336550Y932858D01*
X400642Y933450D01*
G54D11*
X241300Y698500D02*
X279400Y698500D01*
X311150Y730250D01*
X311150Y932858D01*
X311742Y933450D01*
G54D11*
X241300Y723900D02*
X254000Y723900D01*
X285750Y755650D01*
X285750Y933450D01*
X222842Y933450D01*
G54D11*
X285750Y381000D02*
X393700Y381000D01*
X393700Y342900D01*
X508000Y342900D01*
G54D11*
X698500Y469900D02*
X698500Y571500D01*
X767538Y571500D01*
X767831Y571793D01*
G54D11*
X698500Y393700D02*
X736600Y393700D01*
X736600Y520700D01*
X767538Y520700D01*
X767831Y520993D01*
G54D11*
X495300Y647700D02*
X767538Y647700D01*
X767831Y647992D01*
G54D11*
X508000Y342900D02*
X635000Y342900D01*
X635000Y266700D01*
X895350Y266700D01*
X895350Y596900D01*
X919938Y596900D01*
X920230Y597193D01*
G54D11*
X698500Y419100D02*
X666750Y419100D01*
X666750Y292100D01*
X869950Y292100D01*
X869950Y647700D01*
X919938Y647700D01*
X920231Y647992D01*
G54D11*
X635000Y266700D02*
X635000Y444500D01*
X698500Y444500D01*
X800100Y419100D02*
G54D12*
D03*
X800100Y520700D02*
G54D12*
D03*
G54D11*
X767831Y520993D02*
X799807Y520993D01*
X800100Y520700D01*
G54D11*
X800100Y419100D02*
X863600Y419100D01*
G54D11*
X495300Y520700D02*
X673100Y520700D01*
X673100Y596900D01*
X863600Y596900D01*
G54D11*
X241300Y495300D02*
X381000Y495300D01*
X412750Y463550D01*
X635000Y463550D01*
X635000Y444500D01*
G36*
X609600Y311150D02*
X609600Y266700D01*
X323850Y266700D01*
X323850Y311150D01*
X609600Y311150D01*
G37*
G54D11*
X609600Y311150D02*
X609600Y266700D01*
X323850Y266700D01*
X323850Y311150D01*
X609600Y311150D01*
G36*
X146050Y444500D02*
X146050Y469900D01*
X196850Y520700D01*
X241300Y520700D01*
X228600Y520700D01*
X209550Y501650D01*
X209550Y482600D01*
X228600Y463550D01*
X152400Y463550D01*
X146050Y469900D01*
X146050Y444500D01*
G37*
G54D11*
X146050Y444500D02*
X146050Y469900D01*
X196850Y520700D01*
X241300Y520700D01*
X228600Y520700D01*
X209550Y501650D01*
X209550Y482600D01*
X228600Y463550D01*
X152400Y463550D01*
X146050Y469900D01*
X146050Y444500D01*
G54D11*
X495300Y495300D02*
X647700Y495300D01*
X577850Y438150D02*
G54D12*
D03*
X577850Y488950D02*
G54D12*
D03*
G54D11*
X431800Y571500D02*
X431800Y520700D01*
X495300Y520700D01*
G36*
X739300Y988400D02*
X745150Y994250D01*
X753450Y994250D01*
X759300Y988400D01*
X759300Y980100D01*
X753450Y974250D01*
X745150Y974250D01*
X739300Y980100D01*
X739300Y988400D01*
G37*
G36*
X739300Y963000D02*
X745150Y968850D01*
X753450Y968850D01*
X759300Y963000D01*
X759300Y954700D01*
X753450Y948850D01*
X745150Y948850D01*
X739300Y954700D01*
X739300Y963000D01*
G37*
G36*
X739300Y937600D02*
X745150Y943450D01*
X753450Y943450D01*
X759300Y937600D01*
X759300Y929300D01*
X753450Y923450D01*
X745150Y923450D01*
X739300Y929300D01*
X739300Y937600D01*
G37*
G36*
X739300Y912200D02*
X745150Y918050D01*
X753450Y918050D01*
X759300Y912200D01*
X759300Y903900D01*
X753450Y898050D01*
X745150Y898050D01*
X739300Y903900D01*
X739300Y912200D01*
G37*
G36*
X777400Y988400D02*
X783250Y994250D01*
X791550Y994250D01*
X797400Y988400D01*
X797400Y980100D01*
X791550Y974250D01*
X783250Y974250D01*
X777400Y980100D01*
X777400Y988400D01*
G37*
G36*
X777400Y963000D02*
X783250Y968850D01*
X791550Y968850D01*
X797400Y963000D01*
X797400Y954700D01*
X791550Y948850D01*
X783250Y948850D01*
X777400Y954700D01*
X777400Y963000D01*
G37*
G36*
X777400Y937600D02*
X783250Y943450D01*
X791550Y943450D01*
X797400Y937600D01*
X797400Y929300D01*
X791550Y923450D01*
X783250Y923450D01*
X777400Y929300D01*
X777400Y937600D01*
G37*
G36*
X777400Y912200D02*
X783250Y918050D01*
X791550Y918050D01*
X797400Y912200D01*
X797400Y903900D01*
X791550Y898050D01*
X783250Y898050D01*
X777400Y903900D01*
X777400Y912200D01*
G37*
G36*
X840900Y988400D02*
X846750Y994250D01*
X855050Y994250D01*
X860900Y988400D01*
X860900Y980100D01*
X855050Y974250D01*
X846750Y974250D01*
X840900Y980100D01*
X840900Y988400D01*
G37*
G36*
X840900Y963000D02*
X846750Y968850D01*
X855050Y968850D01*
X860900Y963000D01*
X860900Y954700D01*
X855050Y948850D01*
X846750Y948850D01*
X840900Y954700D01*
X840900Y963000D01*
G37*
G36*
X840900Y937600D02*
X846750Y943450D01*
X855050Y943450D01*
X860900Y937600D01*
X860900Y929300D01*
X855050Y923450D01*
X846750Y923450D01*
X840900Y929300D01*
X840900Y937600D01*
G37*
G36*
X840900Y912200D02*
X846750Y918050D01*
X855050Y918050D01*
X860900Y912200D01*
X860900Y903900D01*
X855050Y898050D01*
X846750Y898050D01*
X840900Y903900D01*
X840900Y912200D01*
G37*
G36*
X879000Y988400D02*
X884850Y994250D01*
X893150Y994250D01*
X899000Y988400D01*
X899000Y980100D01*
X893150Y974250D01*
X884850Y974250D01*
X879000Y980100D01*
X879000Y988400D01*
G37*
G36*
X879000Y963000D02*
X884850Y968850D01*
X893150Y968850D01*
X899000Y963000D01*
X899000Y954700D01*
X893150Y948850D01*
X884850Y948850D01*
X879000Y954700D01*
X879000Y963000D01*
G37*
G36*
X879000Y937600D02*
X884850Y943450D01*
X893150Y943450D01*
X899000Y937600D01*
X899000Y929300D01*
X893150Y923450D01*
X884850Y923450D01*
X879000Y929300D01*
X879000Y937600D01*
G37*
G36*
X879000Y912200D02*
X884850Y918050D01*
X893150Y918050D01*
X899000Y912200D01*
X899000Y903900D01*
X893150Y898050D01*
X884850Y898050D01*
X879000Y903900D01*
X879000Y912200D01*
G37*
G36*
X498000Y988400D02*
X503850Y994250D01*
X512150Y994250D01*
X518000Y988400D01*
X518000Y980100D01*
X512150Y974250D01*
X503850Y974250D01*
X498000Y980100D01*
X498000Y988400D01*
G37*
G36*
X498000Y963000D02*
X503850Y968850D01*
X512150Y968850D01*
X518000Y963000D01*
X518000Y954700D01*
X512150Y948850D01*
X503850Y948850D01*
X498000Y954700D01*
X498000Y963000D01*
G37*
G36*
X498000Y937600D02*
X503850Y943450D01*
X512150Y943450D01*
X518000Y937600D01*
X518000Y929300D01*
X512150Y923450D01*
X503850Y923450D01*
X498000Y929300D01*
X498000Y937600D01*
G37*
G36*
X498000Y912200D02*
X503850Y918050D01*
X512150Y918050D01*
X518000Y912200D01*
X518000Y903900D01*
X512150Y898050D01*
X503850Y898050D01*
X498000Y903900D01*
X498000Y912200D01*
G37*
G36*
X574200Y988400D02*
X580050Y994250D01*
X588350Y994250D01*
X594200Y988400D01*
X594200Y980100D01*
X588350Y974250D01*
X580050Y974250D01*
X574200Y980100D01*
X574200Y988400D01*
G37*
G36*
X574200Y963000D02*
X580050Y968850D01*
X588350Y968850D01*
X594200Y963000D01*
X594200Y954700D01*
X588350Y948850D01*
X580050Y948850D01*
X574200Y954700D01*
X574200Y963000D01*
G37*
G36*
X574200Y937600D02*
X580050Y943450D01*
X588350Y943450D01*
X594200Y937600D01*
X594200Y929300D01*
X588350Y923450D01*
X580050Y923450D01*
X574200Y929300D01*
X574200Y937600D01*
G37*
G36*
X574200Y912200D02*
X580050Y918050D01*
X588350Y918050D01*
X594200Y912200D01*
X594200Y903900D01*
X588350Y898050D01*
X580050Y898050D01*
X574200Y903900D01*
X574200Y912200D01*
G37*
G54D11*
X400642Y984250D02*
X889000Y984250D01*
G54D11*
X495300Y800100D02*
X469900Y800100D01*
X469900Y876300D01*
X546100Y876300D01*
G54D11*
X546100Y876300D02*
X546100Y933450D01*
X508000Y933450D01*
X584200Y933450D01*
G54D11*
X584200Y958850D02*
X450850Y958850D01*
X450850Y895350D01*
X438150Y882650D01*
X438150Y793750D01*
X457200Y774700D01*
X495300Y774700D01*
G36*
X415450Y912200D02*
X421300Y918050D01*
X429600Y918050D01*
X435450Y912200D01*
X435450Y903900D01*
X429600Y898050D01*
X421300Y898050D01*
X415450Y903900D01*
X415450Y912200D01*
G37*
G36*
X466250Y912200D02*
X472100Y918050D01*
X480400Y918050D01*
X486250Y912200D01*
X486250Y903900D01*
X480400Y898050D01*
X472100Y898050D01*
X466250Y903900D01*
X466250Y912200D01*
G37*
G54D11*
X476250Y908050D02*
X508000Y908050D01*
G36*
X707550Y886800D02*
X713400Y892650D01*
X721700Y892650D01*
X727550Y886800D01*
X727550Y878500D01*
X721700Y872650D01*
X713400Y872650D01*
X707550Y878500D01*
X707550Y886800D01*
G37*
G36*
X707550Y937600D02*
X713400Y943450D01*
X721700Y943450D01*
X727550Y937600D01*
X727550Y929300D01*
X721700Y923450D01*
X713400Y923450D01*
X707550Y929300D01*
X707550Y937600D01*
G37*
G54D11*
X717550Y933450D02*
X889000Y933450D01*
G36*
X809150Y963000D02*
X815000Y968850D01*
X823300Y968850D01*
X829150Y963000D01*
X829150Y954700D01*
X823300Y948850D01*
X815000Y948850D01*
X809150Y954700D01*
X809150Y963000D01*
G37*
G36*
X809150Y886800D02*
X815000Y892650D01*
X823300Y892650D01*
X829150Y886800D01*
X829150Y878500D01*
X823300Y872650D01*
X815000Y872650D01*
X809150Y878500D01*
X809150Y886800D01*
G37*
G54D11*
X63500Y838200D02*
X63500Y939800D01*
X107950Y984250D01*
X133942Y984250D01*
G54D11*
X584200Y908050D02*
X641350Y908050D01*
X692150Y958850D01*
X819150Y958850D01*
G54D11*
X850900Y958850D02*
X927100Y958850D01*
G54D11*
X819150Y882650D02*
X977900Y882650D01*
X977900Y596900D01*
X920523Y596900D01*
X920230Y597193D01*
G36*
X637700Y499450D02*
X643550Y505300D01*
X651850Y505300D01*
X657700Y499450D01*
X657700Y491150D01*
X651850Y485300D01*
X643550Y485300D01*
X637700Y491150D01*
X637700Y499450D01*
G37*
G36*
X637700Y550250D02*
X643550Y556100D01*
X651850Y556100D01*
X657700Y550250D01*
X657700Y541950D01*
X651850Y536100D01*
X643550Y536100D01*
X637700Y541950D01*
X637700Y550250D01*
G37*
G54D11*
X647700Y546100D02*
X647700Y622300D01*
G36*
X637700Y626450D02*
X643550Y632300D01*
X651850Y632300D01*
X657700Y626450D01*
X657700Y618150D01*
X651850Y612300D01*
X643550Y612300D01*
X637700Y618150D01*
X637700Y626450D01*
G37*
G36*
X637700Y677250D02*
X643550Y683100D01*
X651850Y683100D01*
X657700Y677250D01*
X657700Y668950D01*
X651850Y663100D01*
X643550Y663100D01*
X637700Y668950D01*
X637700Y677250D01*
G37*
G54D11*
X647700Y673100D02*
X679450Y673100D01*
X730250Y704850D01*
X946150Y704850D01*
X946150Y857250D01*
G36*
X936150Y861400D02*
X942000Y867250D01*
X950300Y867250D01*
X956150Y861400D01*
X956150Y853100D01*
X950300Y847250D01*
X942000Y847250D01*
X936150Y853100D01*
X936150Y861400D01*
G37*
G54D11*
X927100Y958850D02*
X946150Y939800D01*
X946150Y908050D01*
G36*
X936150Y912200D02*
X942000Y918050D01*
X950300Y918050D01*
X956150Y912200D01*
X956150Y903900D01*
X950300Y898050D01*
X942000Y898050D01*
X936150Y903900D01*
X936150Y912200D01*
G37*
G54D11*
X495300Y850900D02*
X609600Y850900D01*
G36*
X393700Y882650D02*
X412750Y882650D01*
X412750Y781050D01*
X444500Y749300D01*
X469900Y749300D01*
X469900Y520700D01*
X431800Y520700D01*
X431800Y647700D01*
X406400Y673100D01*
X393700Y673100D01*
X393700Y882650D01*
G37*
G54D11*
X393700Y882650D02*
X412750Y882650D01*
X412750Y781050D01*
X444500Y749300D01*
X469900Y749300D01*
X469900Y520700D01*
X431800Y520700D01*
X431800Y647700D01*
X406400Y673100D01*
X393700Y673100D01*
X393700Y882650D01*
G36*
X885350Y855050D02*
X891200Y860900D01*
X899500Y860900D01*
X905350Y855050D01*
X905350Y846750D01*
X899500Y840900D01*
X891200Y840900D01*
X885350Y846750D01*
X885350Y855050D01*
G37*
G36*
X859950Y855050D02*
X865800Y860900D01*
X874100Y860900D01*
X879950Y855050D01*
X879950Y846750D01*
X874100Y840900D01*
X865800Y840900D01*
X859950Y846750D01*
X859950Y855050D01*
G37*
G36*
X834550Y855050D02*
X840400Y860900D01*
X848700Y860900D01*
X854550Y855050D01*
X854550Y846750D01*
X848700Y840900D01*
X840400Y840900D01*
X834550Y846750D01*
X834550Y855050D01*
G37*
G36*
X859950Y734400D02*
X865800Y740250D01*
X874100Y740250D01*
X879950Y734400D01*
X879950Y726100D01*
X874100Y720250D01*
X865800Y720250D01*
X859950Y726100D01*
X859950Y734400D01*
G37*
G36*
X859950Y677250D02*
X865800Y683100D01*
X874100Y683100D01*
X879950Y677250D01*
X879950Y668950D01*
X874100Y663100D01*
X865800Y663100D01*
X859950Y668950D01*
X859950Y677250D01*
G37*
G54D11*
X869950Y673100D02*
X869950Y647700D01*
G54D11*
X869950Y730250D02*
X869950Y850900D01*
G54D11*
X895350Y850900D02*
X895350Y882650D01*
X609600Y850900D02*
G54D12*
D03*
X711200Y850900D02*
G54D12*
D03*
G54D11*
X495300Y825500D02*
X625500Y825500D01*
X641400Y841400D01*
X641400Y870000D01*
X679450Y908050D01*
X889000Y908050D01*
G54D11*
X495300Y749300D02*
X514350Y749300D01*
X565150Y800100D01*
X635000Y800100D01*
X673100Y838200D01*
X673100Y863600D01*
X692150Y882650D01*
X717550Y882650D01*
G54D11*
X711200Y850900D02*
X844550Y850900D01*
G36*
X720250Y740750D02*
X726100Y746600D01*
X734400Y746600D01*
X740250Y740750D01*
X740250Y732450D01*
X734400Y726600D01*
X726100Y726600D01*
X720250Y732450D01*
X720250Y740750D01*
G37*
G36*
X745650Y740750D02*
X751500Y746600D01*
X759800Y746600D01*
X765650Y740750D01*
X765650Y732450D01*
X759800Y726600D01*
X751500Y726600D01*
X745650Y732450D01*
X745650Y740750D01*
G37*
G36*
X771050Y740750D02*
X776900Y746600D01*
X785200Y746600D01*
X791050Y740750D01*
X791050Y732450D01*
X785200Y726600D01*
X776900Y726600D01*
X771050Y732450D01*
X771050Y740750D01*
G37*
G36*
X796450Y740750D02*
X802300Y746600D01*
X810600Y746600D01*
X816450Y740750D01*
X816450Y732450D01*
X810600Y726600D01*
X802300Y726600D01*
X796450Y732450D01*
X796450Y740750D01*
G37*
G36*
X821850Y740750D02*
X827700Y746600D01*
X836000Y746600D01*
X841850Y740750D01*
X841850Y732450D01*
X836000Y726600D01*
X827700Y726600D01*
X821850Y732450D01*
X821850Y740750D01*
G37*
G54D11*
X831850Y736600D02*
X863600Y736600D01*
X869950Y730250D01*
G54D11*
X495300Y723900D02*
X527050Y723900D01*
X577850Y774700D01*
X647700Y774700D01*
X692150Y819150D01*
X806450Y819150D01*
X806450Y736600D01*
G54D11*
X495300Y698500D02*
X539750Y698500D01*
X590550Y749300D01*
X660400Y749300D01*
X704850Y793750D01*
X781050Y793750D01*
X781050Y736600D01*
G54D11*
X495300Y673100D02*
X552450Y673100D01*
X603250Y723900D01*
X673100Y723900D01*
X717550Y768350D01*
X755650Y768350D01*
X755650Y736600D01*
G54D11*
X730250Y736600D02*
X730250Y704850D01*
G36*
X831850Y825500D02*
X920750Y825500D01*
X920750Y730250D01*
X838200Y730250D01*
X831850Y736600D01*
X831850Y825500D01*
G37*
G54D11*
X831850Y825500D02*
X920750Y825500D01*
X920750Y730250D01*
X838200Y730250D01*
X831850Y736600D01*
X831850Y825500D01*
G36*
X895350Y622300D02*
X895350Y673100D01*
X793750Y673100D01*
X793750Y546100D01*
X825500Y546100D01*
X825500Y495300D01*
X793750Y495300D01*
X793750Y292100D01*
X869950Y292100D01*
X869950Y622300D01*
X895350Y622300D01*
G37*
G54D11*
X895350Y622300D02*
X895350Y673100D01*
X793750Y673100D01*
X793750Y546100D01*
X825500Y546100D01*
X825500Y495300D01*
X793750Y495300D01*
X793750Y292100D01*
X869950Y292100D01*
X869950Y622300D01*
X895350Y622300D01*
G36*
X673100Y596900D02*
X673100Y622300D01*
X742950Y622300D01*
X742950Y596900D01*
X673100Y596900D01*
G37*
G54D11*
X673100Y596900D02*
X673100Y622300D01*
X742950Y622300D01*
X742950Y596900D01*
X673100Y596900D01*
G36*
X666750Y368300D02*
X736600Y368300D01*
X736600Y298450D01*
X742950Y292100D01*
X666750Y292100D01*
X666750Y368300D01*
G37*
G54D11*
X666750Y368300D02*
X736600Y368300D01*
X736600Y298450D01*
X742950Y292100D01*
X666750Y292100D01*
X666750Y368300D01*
G36*
X609600Y984250D02*
X609600Y933450D01*
X628650Y933450D01*
X679450Y984250D01*
X609600Y984250D01*
G37*
G54D11*
X609600Y984250D02*
X609600Y933450D01*
X628650Y933450D01*
X679450Y984250D01*
X609600Y984250D01*
X895350Y781050D02*
G54D16*
D03*
X946150Y781050D02*
G54D16*
D03*
X641350Y958850D02*
G54D16*
D03*
X692150Y958850D02*
G54D16*
D03*
X431800Y546100D02*
G54D16*
D03*
X431800Y495300D02*
G54D16*
D03*
G36*
X612300Y550250D02*
X618150Y556100D01*
X626450Y556100D01*
X632300Y550250D01*
X632300Y541950D01*
X626450Y536100D01*
X618150Y536100D01*
X612300Y541950D01*
X612300Y550250D01*
G37*
G36*
X586900Y550250D02*
X592750Y556100D01*
X601050Y556100D01*
X606900Y550250D01*
X606900Y541950D01*
X601050Y536100D01*
X592750Y536100D01*
X586900Y541950D01*
X586900Y550250D01*
G37*
G54D11*
X495300Y546100D02*
X596900Y546100D01*
G54D11*
X622300Y546100D02*
X622300Y520700D01*
G36*
X637700Y594700D02*
X643550Y600550D01*
X651850Y600550D01*
X657700Y594700D01*
X657700Y586400D01*
X651850Y580550D01*
X643550Y580550D01*
X637700Y586400D01*
X637700Y594700D01*
G37*
G36*
X612300Y594700D02*
X618150Y600550D01*
X626450Y600550D01*
X632300Y594700D01*
X632300Y586400D01*
X626450Y580550D01*
X618150Y580550D01*
X612300Y586400D01*
X612300Y594700D01*
G37*
G36*
X586900Y594700D02*
X592750Y600550D01*
X601050Y600550D01*
X606900Y594700D01*
X606900Y586400D01*
X601050Y580550D01*
X592750Y580550D01*
X586900Y586400D01*
X586900Y594700D01*
G37*
G54D11*
X495300Y596900D02*
X546100Y596900D01*
X546100Y622300D01*
X622300Y622300D01*
X622300Y590550D01*
X546100Y622300D02*
G54D12*
D03*
X546100Y520700D02*
G54D12*
D03*
G54D17*
X230213Y897352D02*
X223546Y879574D01*
X216880Y897352D01*
G54D17*
X199991Y897352D02*
X210658Y897352D01*
X210658Y889574D01*
X209325Y889574D01*
X206658Y890685D01*
X203991Y890685D01*
X201325Y889574D01*
X199991Y887352D01*
X199991Y882907D01*
X201325Y880685D01*
X203991Y879574D01*
X206658Y879574D01*
X209325Y880685D01*
X210658Y882907D01*
G54D17*
X192702Y879574D02*
X193769Y879574D01*
X193769Y880463D01*
X192702Y880463D01*
X192702Y879574D01*
X193769Y879574D01*
G54D17*
X175813Y879574D02*
X186480Y879574D01*
X186480Y880685D01*
X185147Y882907D01*
X177147Y889574D01*
X175813Y891796D01*
X175813Y894018D01*
X177147Y896241D01*
X179813Y897352D01*
X182480Y897352D01*
X185147Y896241D01*
X186480Y894018D01*
G36*
X510700Y626450D02*
X516550Y632300D01*
X524850Y632300D01*
X530700Y626450D01*
X530700Y618150D01*
X524850Y612300D01*
X516550Y612300D01*
X510700Y618150D01*
X510700Y626450D01*
G37*
G54D11*
X495300Y622300D02*
X520700Y622300D01*
G36*
X510700Y575650D02*
X516550Y581500D01*
X524850Y581500D01*
X530700Y575650D01*
X530700Y567350D01*
X524850Y561500D01*
X516550Y561500D01*
X510700Y567350D01*
X510700Y575650D01*
G37*
G54D11*
X520700Y571500D02*
X495300Y571500D01*
G54D11*
X920231Y647992D02*
X952208Y647992D01*
X952500Y647700D01*
X952500Y622300D01*
G36*
X205900Y778850D02*
X211750Y784700D01*
X220050Y784700D01*
X225900Y778850D01*
X225900Y770550D01*
X220050Y764700D01*
X211750Y764700D01*
X205900Y770550D01*
X205900Y778850D01*
G37*
G36*
X205900Y753450D02*
X211750Y759300D01*
X220050Y759300D01*
X225900Y753450D01*
X225900Y745150D01*
X220050Y739300D01*
X211750Y739300D01*
X205900Y745150D01*
X205900Y753450D01*
G37*
G54D11*
X215900Y774700D02*
X241300Y774700D01*
G54D11*
X215900Y749300D02*
X241300Y749300D01*
G36*
X726600Y677250D02*
X732450Y683100D01*
X740750Y683100D01*
X746600Y677250D01*
X746600Y668950D01*
X740750Y663100D01*
X732450Y663100D01*
X726600Y668950D01*
X726600Y677250D01*
G37*
G54D11*
X736600Y673100D02*
X767538Y673100D01*
X767831Y673393D01*
X609600Y971550D02*
G54D12*
D03*
X609600Y869950D02*
G54D12*
D03*
G54D11*
X609600Y850900D02*
X609600Y869950D01*
G54D11*
X622300Y546100D02*
X622300Y555424D01*
X596795Y580930D01*
X596795Y590445D01*
X596900Y590550D01*
G54D11*
X139700Y355600D02*
X368300Y355600D01*
X368300Y304800D01*
G36*
X139700Y304800D02*
X69850Y374650D01*
X127000Y374650D01*
X146050Y393700D01*
X146050Y469900D01*
X368300Y469900D01*
X400050Y438150D01*
X609600Y438150D01*
X609600Y368300D01*
X419100Y368300D01*
X419100Y406400D01*
X254000Y406400D01*
X254000Y342900D01*
X177800Y342900D01*
X139700Y304800D01*
G37*
G54D11*
X139700Y304800D02*
X69850Y374650D01*
X127000Y374650D01*
X146050Y393700D01*
X146050Y469900D01*
X368300Y469900D01*
X400050Y438150D01*
X609600Y438150D01*
X609600Y368300D01*
X419100Y368300D01*
X419100Y406400D01*
X254000Y406400D01*
X254000Y342900D01*
X177800Y342900D01*
X139700Y304800D01*
G54D11*
X203200Y342900D02*
X355600Y342900D01*
X254100Y304700D02*
G54D16*
D03*
X254000Y406400D02*
G54D16*
D03*
X228600Y304800D02*
G54D16*
D03*
X228600Y406400D02*
G54D16*
D03*
X38100Y355600D02*
G54D16*
D03*
X139700Y355600D02*
G54D16*
D03*
X342900Y381000D02*
G54D16*
D03*
X342900Y330200D02*
G54D16*
D03*
G54D11*
X323850Y311150D02*
X323850Y330200D01*
X355600Y330200D01*
G36*
X967900Y499450D02*
X973750Y505300D01*
X982050Y505300D01*
X987900Y499450D01*
X987900Y491150D01*
X982050Y485300D01*
X973750Y485300D01*
X967900Y491150D01*
X967900Y499450D01*
G37*
G36*
X967900Y524850D02*
X973750Y530700D01*
X982050Y530700D01*
X987900Y524850D01*
X987900Y516550D01*
X982050Y510700D01*
X973750Y510700D01*
X967900Y516550D01*
X967900Y524850D01*
G37*
G36*
X967900Y550250D02*
X973750Y556100D01*
X982050Y556100D01*
X987900Y550250D01*
X987900Y541950D01*
X982050Y536100D01*
X973750Y536100D01*
X967900Y541950D01*
X967900Y550250D01*
G37*
G36*
X967900Y575650D02*
X973750Y581500D01*
X982050Y581500D01*
X987900Y575650D01*
X987900Y567350D01*
X982050Y561500D01*
X973750Y561500D01*
X967900Y567350D01*
X967900Y575650D01*
G37*
G36*
X942500Y575650D02*
X948350Y581500D01*
X956650Y581500D01*
X962500Y575650D01*
X962500Y567350D01*
X956650Y561500D01*
X948350Y561500D01*
X942500Y567350D01*
X942500Y575650D01*
G37*
G36*
X942500Y626450D02*
X948350Y632300D01*
X956650Y632300D01*
X962500Y626450D01*
X962500Y618150D01*
X956650Y612300D01*
X948350Y612300D01*
X942500Y618150D01*
X942500Y626450D01*
G37*
G54D11*
X977900Y520700D02*
X920523Y520700D01*
X920231Y520993D01*
G54D11*
X920231Y495593D02*
X977607Y495593D01*
X977900Y495300D01*
G54D11*
X977900Y571500D02*
X977900Y596900D01*
G54D11*
X952500Y571500D02*
X952500Y546100D01*
X977900Y546100D01*
G36*
X942500Y677250D02*
X948350Y683100D01*
X956650Y683100D01*
X962500Y677250D01*
X962500Y668950D01*
X956650Y663100D01*
X948350Y663100D01*
X942500Y668950D01*
X942500Y677250D01*
G37*
G54D11*
X920231Y673393D02*
X952207Y673393D01*
X952500Y673100D01*
M02*
