%FSLAX34Y34*%
%MOMM*%
%LNSILK_TOP*%
G71*
G01*
%ADD10C, 0.20*%
%ADD11C, 0.19*%
%ADD12C, 0.17*%
%ADD13C, 0.10*%
%LPD*%
G54D10*
X88900Y901700D02*
X266700Y901700D01*
X266700Y520700D01*
X88900Y520700D01*
X88900Y901700D01*
G54D11*
X272807Y894899D02*
X276807Y884232D01*
X280807Y894899D01*
G54D11*
X284540Y884232D02*
X290940Y884232D01*
G54D11*
X287740Y884232D02*
X287740Y894899D01*
G54D11*
X284540Y894899D02*
X290940Y894899D01*
G54D11*
X294673Y884232D02*
X294673Y894899D01*
X301073Y884232D01*
X301073Y894899D01*
G54D11*
X276007Y863911D02*
X279207Y863911D01*
X279207Y860578D01*
X278407Y859245D01*
X276807Y858578D01*
X275207Y858578D01*
X273607Y859245D01*
X272807Y860578D01*
X272807Y867245D01*
X273607Y868578D01*
X275207Y869245D01*
X276807Y869245D01*
X278407Y868578D01*
X279207Y867245D01*
G54D11*
X282940Y858578D02*
X282940Y869245D01*
X289340Y858578D01*
X289340Y869245D01*
G54D11*
X293073Y858578D02*
X293073Y869245D01*
X297073Y869245D01*
X298673Y868578D01*
X299473Y867245D01*
X299473Y860578D01*
X298673Y859245D01*
X297073Y858578D01*
X293073Y858578D01*
G54D11*
X276531Y839827D02*
X278931Y838494D01*
X279731Y837161D01*
X279731Y834494D01*
G54D11*
X273331Y834494D02*
X273331Y845161D01*
X277331Y845161D01*
X278931Y844494D01*
X279731Y843161D01*
X279731Y841827D01*
X278931Y840494D01*
X277331Y839827D01*
X273331Y839827D01*
G54D11*
X283464Y836494D02*
X284264Y835161D01*
X285864Y834494D01*
X287464Y834494D01*
X289064Y835161D01*
X289864Y836494D01*
X289864Y837827D01*
X289064Y839161D01*
X287464Y839827D01*
X285864Y839827D01*
X284264Y840494D01*
X283464Y841827D01*
X283464Y843161D01*
X284264Y844494D01*
X285864Y845161D01*
X287464Y845161D01*
X289064Y844494D01*
X289864Y843161D01*
G54D11*
X296797Y834494D02*
X296797Y845161D01*
G54D11*
X293597Y845161D02*
X299997Y845161D01*
G54D11*
X280254Y818983D02*
X273854Y818983D01*
X273854Y814316D01*
X274654Y814316D01*
X276254Y814983D01*
X277854Y814983D01*
X279454Y814316D01*
X280254Y812983D01*
X280254Y810316D01*
X279454Y808983D01*
X277854Y808316D01*
X276254Y808316D01*
X274654Y808983D01*
X273854Y810316D01*
G54D11*
X283987Y818983D02*
X287987Y808316D01*
X291987Y818983D01*
G54D11*
X271760Y783185D02*
X275760Y793852D01*
X279760Y783185D01*
G54D11*
X273360Y787185D02*
X278160Y787185D01*
G54D11*
X283493Y793852D02*
X289893Y793852D01*
X289093Y792518D01*
X287493Y790518D01*
X285893Y787852D01*
X285093Y785852D01*
X285093Y783185D01*
G54D11*
X271236Y757530D02*
X275236Y768197D01*
X279236Y757530D01*
G54D11*
X272836Y761530D02*
X277636Y761530D01*
G54D11*
X289369Y766197D02*
X288569Y767530D01*
X286969Y768197D01*
X285369Y768197D01*
X283769Y767530D01*
X282969Y766197D01*
X282969Y762863D01*
X282969Y762197D01*
X285369Y763530D01*
X286969Y763530D01*
X288569Y762863D01*
X289369Y761530D01*
X289369Y759530D01*
X288569Y758197D01*
X286969Y757530D01*
X285369Y757530D01*
X283769Y758197D01*
X282969Y759530D01*
X282969Y762863D01*
G54D11*
X270189Y731876D02*
X274189Y742543D01*
X278189Y731876D01*
G54D11*
X271789Y735876D02*
X276589Y735876D01*
G54D11*
X288322Y742543D02*
X281922Y742543D01*
X281922Y737876D01*
X282722Y737876D01*
X284322Y738543D01*
X285922Y738543D01*
X287522Y737876D01*
X288322Y736543D01*
X288322Y733876D01*
X287522Y732543D01*
X285922Y731876D01*
X284322Y731876D01*
X282722Y732543D01*
X281922Y733876D01*
G54D11*
X270189Y707269D02*
X274189Y717936D01*
X278189Y707269D01*
G54D11*
X271789Y711269D02*
X276589Y711269D01*
G54D11*
X286722Y707269D02*
X286722Y717936D01*
X281922Y711269D01*
X281922Y709936D01*
X288322Y709936D01*
G54D11*
X270713Y682661D02*
X274713Y693328D01*
X278713Y682661D01*
G54D11*
X272313Y686661D02*
X277113Y686661D01*
G54D11*
X282446Y691328D02*
X283246Y692661D01*
X284846Y693328D01*
X286446Y693328D01*
X288046Y692661D01*
X288846Y691328D01*
X288846Y689994D01*
X288046Y688661D01*
X286446Y687994D01*
X288046Y687328D01*
X288846Y685994D01*
X288846Y684661D01*
X288046Y683328D01*
X286446Y682661D01*
X284846Y682661D01*
X283246Y683328D01*
X282446Y684661D01*
G54D11*
X270189Y657007D02*
X274189Y667674D01*
X278189Y657007D01*
G54D11*
X271789Y661007D02*
X276589Y661007D01*
G54D11*
X288322Y657007D02*
X281922Y657007D01*
X281922Y657674D01*
X282722Y659007D01*
X287522Y663007D01*
X288322Y664340D01*
X288322Y665674D01*
X287522Y667007D01*
X285922Y667674D01*
X284322Y667674D01*
X282722Y667007D01*
X281922Y665674D01*
G54D11*
X271236Y632923D02*
X275236Y643590D01*
X279236Y632923D01*
G54D11*
X272836Y636923D02*
X277636Y636923D01*
G54D11*
X282969Y639590D02*
X286969Y643590D01*
X286969Y632923D01*
G54D11*
X270189Y605698D02*
X274189Y616365D01*
X278189Y605698D01*
G54D11*
X271789Y609698D02*
X276589Y609698D01*
G54D11*
X288322Y614365D02*
X288322Y607698D01*
X287522Y606365D01*
X285922Y605698D01*
X284322Y605698D01*
X282722Y606365D01*
X281922Y607698D01*
X281922Y614365D01*
X282722Y615698D01*
X284322Y616365D01*
X285922Y616365D01*
X287522Y615698D01*
X288322Y614365D01*
G54D11*
X274960Y584853D02*
X277360Y583520D01*
X278160Y582187D01*
X278160Y579520D01*
G54D11*
X271760Y579520D02*
X271760Y590187D01*
X275760Y590187D01*
X277360Y589520D01*
X278160Y588187D01*
X278160Y586853D01*
X277360Y585520D01*
X275760Y584853D01*
X271760Y584853D01*
G54D11*
X287493Y579520D02*
X281893Y579520D01*
X281893Y590187D01*
X287493Y590187D01*
G54D11*
X281893Y584853D02*
X287493Y584853D01*
G54D11*
X291226Y579520D02*
X291226Y590187D01*
X296826Y590187D01*
G54D11*
X291226Y584853D02*
X296826Y584853D01*
G54D11*
X270713Y563580D02*
X271513Y564913D01*
X273113Y565580D01*
X274713Y565580D01*
X276313Y564913D01*
X277113Y563580D01*
X277113Y562246D01*
X276313Y560913D01*
X274713Y560246D01*
X276313Y559580D01*
X277113Y558246D01*
X277113Y556913D01*
X276313Y555580D01*
X274713Y554913D01*
X273113Y554913D01*
X271513Y555580D01*
X270713Y556913D01*
G54D11*
X280846Y565580D02*
X284846Y554913D01*
X288846Y565580D01*
G54D11*
X292579Y563580D02*
X293379Y564913D01*
X294979Y565580D01*
X296579Y565580D01*
X298179Y564913D01*
X298979Y563580D01*
X298979Y562246D01*
X298179Y560913D01*
X296579Y560246D01*
X298179Y559580D01*
X298979Y558246D01*
X298979Y556913D01*
X298179Y555580D01*
X296579Y554913D01*
X294979Y554913D01*
X293379Y555580D01*
X292579Y556913D01*
G54D11*
X271760Y529782D02*
X271760Y540449D01*
X275760Y540449D01*
X277360Y539782D01*
X278160Y538449D01*
X278160Y531782D01*
X277360Y530449D01*
X275760Y529782D01*
X271760Y529782D01*
G54D11*
X281893Y536449D02*
X285893Y540449D01*
X285893Y529782D01*
G54D11*
X289626Y538449D02*
X290426Y539782D01*
X292026Y540449D01*
X293626Y540449D01*
X295226Y539782D01*
X296026Y538449D01*
X296026Y537115D01*
X295226Y535782D01*
X293626Y535115D01*
X295226Y534449D01*
X296026Y533115D01*
X296026Y531782D01*
X295226Y530449D01*
X293626Y529782D01*
X292026Y529782D01*
X290426Y530449D01*
X289626Y531782D01*
G54D11*
X214692Y538354D02*
X214692Y527687D01*
X220292Y527687D01*
G54D11*
X229625Y527687D02*
X224025Y527687D01*
X224025Y538354D01*
X229625Y538354D01*
G54D11*
X224025Y533020D02*
X229625Y533020D01*
G54D11*
X233358Y527687D02*
X233358Y538354D01*
X237358Y538354D01*
X238958Y537687D01*
X239758Y536354D01*
X239758Y529687D01*
X238958Y528354D01*
X237358Y527687D01*
X233358Y527687D01*
G54D11*
X58206Y885802D02*
X58206Y896469D01*
G54D11*
X55006Y896469D02*
X61406Y896469D01*
G54D11*
X65139Y896469D02*
X73139Y885802D01*
G54D11*
X65139Y885802D02*
X73139Y896469D01*
G54D11*
X76872Y892469D02*
X80872Y896469D01*
X80872Y885802D01*
G54D11*
X57682Y864957D02*
X60082Y863624D01*
X60882Y862291D01*
X60882Y859624D01*
G54D11*
X54482Y859624D02*
X54482Y870291D01*
X58482Y870291D01*
X60082Y869624D01*
X60882Y868291D01*
X60882Y866957D01*
X60082Y865624D01*
X58482Y864957D01*
X54482Y864957D01*
G54D11*
X64615Y870291D02*
X72615Y859624D01*
G54D11*
X64615Y859624D02*
X72615Y870291D01*
G54D11*
X82748Y868291D02*
X82748Y861624D01*
X81948Y860291D01*
X80348Y859624D01*
X78748Y859624D01*
X77148Y860291D01*
X76348Y861624D01*
X76348Y868291D01*
X77148Y869624D01*
X78748Y870291D01*
X80348Y870291D01*
X81948Y869624D01*
X82748Y868291D01*
G54D11*
X59253Y837208D02*
X61653Y835875D01*
X62453Y834542D01*
X62453Y831875D01*
G54D11*
X56053Y831875D02*
X56053Y842542D01*
X60053Y842542D01*
X61653Y841875D01*
X62453Y840542D01*
X62453Y839208D01*
X61653Y837875D01*
X60053Y837208D01*
X56053Y837208D01*
G54D11*
X66186Y833875D02*
X66986Y832542D01*
X68586Y831875D01*
X70186Y831875D01*
X71786Y832542D01*
X72586Y833875D01*
X72586Y835208D01*
X71786Y836542D01*
X70186Y837208D01*
X68586Y837208D01*
X66986Y837875D01*
X66186Y839208D01*
X66186Y840542D01*
X66986Y841875D01*
X68586Y842542D01*
X70186Y842542D01*
X71786Y841875D01*
X72586Y840542D01*
G54D11*
X79519Y831875D02*
X79519Y842542D01*
G54D11*
X76319Y842542D02*
X82719Y842542D01*
G54D11*
X60300Y814172D02*
X63500Y814172D01*
X63500Y810839D01*
X62700Y809506D01*
X61100Y808839D01*
X59500Y808839D01*
X57900Y809506D01*
X57100Y810839D01*
X57100Y817506D01*
X57900Y818839D01*
X59500Y819506D01*
X61100Y819506D01*
X62700Y818839D01*
X63500Y817506D01*
G54D11*
X67233Y808839D02*
X67233Y819506D01*
X73633Y808839D01*
X73633Y819506D01*
G54D11*
X77366Y808839D02*
X77366Y819506D01*
X81366Y819506D01*
X82966Y818839D01*
X83766Y817506D01*
X83766Y810839D01*
X82966Y809506D01*
X81366Y808839D01*
X77366Y808839D01*
G54D11*
X63383Y782137D02*
X63383Y792804D01*
X67383Y792804D01*
X68983Y792137D01*
X69783Y790804D01*
X69783Y784137D01*
X68983Y782804D01*
X67383Y782137D01*
X63383Y782137D01*
G54D11*
X79916Y782137D02*
X73516Y782137D01*
X73516Y782804D01*
X74316Y784137D01*
X79116Y788137D01*
X79916Y789470D01*
X79916Y790804D01*
X79116Y792137D01*
X77516Y792804D01*
X75916Y792804D01*
X74316Y792137D01*
X73516Y790804D01*
G54D11*
X63500Y755650D02*
X63500Y766317D01*
X67500Y766317D01*
X69100Y765650D01*
X69900Y764317D01*
X69900Y757650D01*
X69100Y756317D01*
X67500Y755650D01*
X63500Y755650D01*
G54D11*
X73633Y764317D02*
X74433Y765650D01*
X76033Y766317D01*
X77633Y766317D01*
X79233Y765650D01*
X80033Y764317D01*
X80033Y762983D01*
X79233Y761650D01*
X77633Y760983D01*
X79233Y760317D01*
X80033Y758983D01*
X80033Y757650D01*
X79233Y756317D01*
X77633Y755650D01*
X76033Y755650D01*
X74433Y756317D01*
X73633Y757650D01*
G54D11*
X63383Y732399D02*
X63383Y743066D01*
X67383Y743066D01*
X68983Y742399D01*
X69783Y741066D01*
X69783Y734399D01*
X68983Y733066D01*
X67383Y732399D01*
X63383Y732399D01*
G54D11*
X78316Y732399D02*
X78316Y743066D01*
X73516Y736399D01*
X73516Y735066D01*
X79916Y735066D01*
G54D11*
X62859Y708839D02*
X62859Y719506D01*
X66859Y719506D01*
X68459Y718839D01*
X69259Y717506D01*
X69259Y710839D01*
X68459Y709506D01*
X66859Y708839D01*
X62859Y708839D01*
G54D11*
X79392Y719506D02*
X72992Y719506D01*
X72992Y714839D01*
X73792Y714839D01*
X75392Y715506D01*
X76992Y715506D01*
X78592Y714839D01*
X79392Y713506D01*
X79392Y710839D01*
X78592Y709506D01*
X76992Y708839D01*
X75392Y708839D01*
X73792Y709506D01*
X72992Y710839D01*
G54D11*
X64954Y682661D02*
X64954Y693328D01*
X68954Y693328D01*
X70554Y692661D01*
X71354Y691328D01*
X71354Y684661D01*
X70554Y683328D01*
X68954Y682661D01*
X64954Y682661D01*
G54D11*
X81487Y691328D02*
X80687Y692661D01*
X79087Y693328D01*
X77487Y693328D01*
X75887Y692661D01*
X75087Y691328D01*
X75087Y687994D01*
X75087Y687328D01*
X77487Y688661D01*
X79087Y688661D01*
X80687Y687994D01*
X81487Y686661D01*
X81487Y684661D01*
X80687Y683328D01*
X79087Y682661D01*
X77487Y682661D01*
X75887Y683328D01*
X75087Y684661D01*
X75087Y687994D01*
G54D11*
X66001Y654912D02*
X66001Y665579D01*
X70001Y665579D01*
X71601Y664912D01*
X72401Y663579D01*
X72401Y656912D01*
X71601Y655579D01*
X70001Y654912D01*
X66001Y654912D01*
G54D11*
X76134Y665579D02*
X82534Y665579D01*
X81734Y664245D01*
X80134Y662245D01*
X78534Y659579D01*
X77734Y657579D01*
X77734Y654912D01*
G54D11*
X66001Y630305D02*
X66001Y640972D01*
X70001Y640972D01*
X71601Y640305D01*
X72401Y638972D01*
X72401Y632305D01*
X71601Y630972D01*
X70001Y630305D01*
X66001Y630305D01*
G54D11*
X80134Y635638D02*
X78534Y635638D01*
X76934Y636305D01*
X76134Y637638D01*
X76134Y638972D01*
X76934Y640305D01*
X78534Y640972D01*
X80134Y640972D01*
X81734Y640305D01*
X82534Y638972D01*
X82534Y637638D01*
X81734Y636305D01*
X80134Y635638D01*
X81734Y634972D01*
X82534Y633638D01*
X82534Y632305D01*
X81734Y630972D01*
X80134Y630305D01*
X78534Y630305D01*
X76934Y630972D01*
X76134Y632305D01*
X76134Y633638D01*
X76934Y634972D01*
X78534Y635638D01*
G54D11*
X67571Y604127D02*
X67571Y614794D01*
X71571Y614794D01*
X73171Y614127D01*
X73971Y612794D01*
X73971Y606127D01*
X73171Y604794D01*
X71571Y604127D01*
X67571Y604127D01*
G54D11*
X77704Y606127D02*
X78504Y604794D01*
X80104Y604127D01*
X81704Y604127D01*
X83304Y604794D01*
X84104Y606127D01*
X84104Y609460D01*
X84104Y610127D01*
X81704Y608794D01*
X80104Y608794D01*
X78504Y609460D01*
X77704Y610794D01*
X77704Y612794D01*
X78504Y614127D01*
X80104Y614794D01*
X81704Y614794D01*
X83304Y614127D01*
X84104Y612794D01*
X84104Y609460D01*
G54D11*
X59194Y580566D02*
X59194Y591233D01*
X63194Y591233D01*
X64794Y590566D01*
X65594Y589233D01*
X65594Y582566D01*
X64794Y581233D01*
X63194Y580566D01*
X59194Y580566D01*
G54D11*
X69327Y587233D02*
X73327Y591233D01*
X73327Y580566D01*
G54D11*
X83460Y589233D02*
X83460Y582566D01*
X82660Y581233D01*
X81060Y580566D01*
X79460Y580566D01*
X77860Y581233D01*
X77060Y582566D01*
X77060Y589233D01*
X77860Y590566D01*
X79460Y591233D01*
X81060Y591233D01*
X82660Y590566D01*
X83460Y589233D01*
G54D11*
X59718Y555436D02*
X59718Y566103D01*
X63718Y566103D01*
X65318Y565436D01*
X66118Y564103D01*
X66118Y557436D01*
X65318Y556103D01*
X63718Y555436D01*
X59718Y555436D01*
G54D11*
X69851Y562103D02*
X73851Y566103D01*
X73851Y555436D01*
G54D11*
X77584Y562103D02*
X81584Y566103D01*
X81584Y555436D01*
G54D11*
X58147Y527163D02*
X58147Y537830D01*
X62147Y537830D01*
X63747Y537163D01*
X64547Y535830D01*
X64547Y529163D01*
X63747Y527830D01*
X62147Y527163D01*
X58147Y527163D01*
G54D11*
X68280Y533830D02*
X72280Y537830D01*
X72280Y527163D01*
G54D11*
X82413Y527163D02*
X76013Y527163D01*
X76013Y527830D01*
X76813Y529163D01*
X81613Y533163D01*
X82413Y534496D01*
X82413Y535830D01*
X81613Y537163D01*
X80013Y537830D01*
X78413Y537830D01*
X76813Y537163D01*
X76013Y535830D01*
G54D11*
X212074Y708221D02*
X212874Y706888D01*
X214474Y706221D01*
X216074Y706221D01*
X217674Y706888D01*
X218474Y708221D01*
X218474Y709554D01*
X217674Y710888D01*
X216074Y711554D01*
X214474Y711554D01*
X212874Y712221D01*
X212074Y713554D01*
X212074Y714888D01*
X212874Y716221D01*
X214474Y716888D01*
X216074Y716888D01*
X217674Y716221D01*
X218474Y714888D01*
G54D11*
X222207Y706221D02*
X222207Y716888D01*
X226207Y716888D01*
X227807Y716221D01*
X228607Y714888D01*
X228607Y708221D01*
X227807Y706888D01*
X226207Y706221D01*
X222207Y706221D01*
G54D11*
X232340Y706221D02*
X236340Y716888D01*
X240340Y706221D01*
G54D11*
X233940Y710221D02*
X238740Y710221D01*
G54D11*
X212598Y731258D02*
X213398Y729925D01*
X214998Y729258D01*
X216598Y729258D01*
X218198Y729925D01*
X218998Y731258D01*
X218998Y732591D01*
X218198Y733925D01*
X216598Y734591D01*
X214998Y734591D01*
X213398Y735258D01*
X212598Y736591D01*
X212598Y737925D01*
X213398Y739258D01*
X214998Y739925D01*
X216598Y739925D01*
X218198Y739258D01*
X218998Y737925D01*
G54D11*
X229131Y731258D02*
X228331Y729925D01*
X226731Y729258D01*
X225131Y729258D01*
X223531Y729925D01*
X222731Y731258D01*
X222731Y737925D01*
X223531Y739258D01*
X225131Y739925D01*
X226731Y739925D01*
X228331Y739258D01*
X229131Y737925D01*
G54D11*
X232864Y739925D02*
X232864Y729258D01*
X238464Y729258D01*
G54D11*
X115215Y756483D02*
X115215Y767150D01*
X119215Y767150D01*
X120815Y766483D01*
X121615Y765150D01*
X121615Y763816D01*
X120815Y762483D01*
X119215Y761816D01*
X115215Y761816D01*
G54D11*
X125348Y767150D02*
X125348Y756483D01*
X129348Y763150D01*
X133348Y756483D01*
X133348Y767150D01*
G54D11*
X137081Y756483D02*
X137081Y767150D01*
X141081Y760483D01*
X145081Y767150D01*
X145081Y756483D01*
G54D11*
X115739Y706745D02*
X115739Y717412D01*
X119739Y717412D01*
X121339Y716745D01*
X122139Y715412D01*
X122139Y714078D01*
X121339Y712745D01*
X119739Y712078D01*
X115739Y712078D01*
G54D11*
X125872Y717412D02*
X125872Y706745D01*
X129872Y713412D01*
X133872Y706745D01*
X133872Y717412D01*
G54D11*
X137605Y706745D02*
X137605Y717412D01*
X141605Y710745D01*
X145605Y717412D01*
X145605Y706745D01*
G54D11*
X115739Y680566D02*
X115739Y691233D01*
X119739Y691233D01*
X121339Y690566D01*
X122139Y689233D01*
X122139Y687899D01*
X121339Y686566D01*
X119739Y685899D01*
X115739Y685899D01*
G54D11*
X125872Y691233D02*
X125872Y680566D01*
X129872Y687233D01*
X133872Y680566D01*
X133872Y691233D01*
G54D11*
X137605Y680566D02*
X137605Y691233D01*
X141605Y684566D01*
X145605Y691233D01*
X145605Y680566D01*
G54D11*
X118126Y603072D02*
X118126Y613739D01*
X122126Y613739D01*
X123726Y613072D01*
X124526Y611739D01*
X124526Y610406D01*
X123726Y609072D01*
X122126Y608406D01*
X118126Y608406D01*
G54D11*
X128259Y613739D02*
X128259Y603072D01*
X132259Y609739D01*
X136259Y603072D01*
X136259Y613739D01*
G54D11*
X139992Y603072D02*
X139992Y613739D01*
X143992Y607072D01*
X147992Y613739D01*
X147992Y603072D01*
G54D11*
X117833Y580043D02*
X117833Y590710D01*
X121833Y590710D01*
X123433Y590043D01*
X124233Y588710D01*
X124233Y587376D01*
X123433Y586043D01*
X121833Y585376D01*
X117833Y585376D01*
G54D11*
X127966Y590710D02*
X127966Y580043D01*
X131966Y586710D01*
X135966Y580043D01*
X135966Y590710D01*
G54D11*
X139699Y580043D02*
X139699Y590710D01*
X143699Y584043D01*
X147699Y590710D01*
X147699Y580043D01*
G54D11*
X116786Y553341D02*
X116786Y564008D01*
X120786Y564008D01*
X122386Y563341D01*
X123186Y562008D01*
X123186Y560674D01*
X122386Y559341D01*
X120786Y558674D01*
X116786Y558674D01*
G54D11*
X126919Y564008D02*
X126919Y553341D01*
X130919Y560008D01*
X134919Y553341D01*
X134919Y564008D01*
G54D11*
X138652Y553341D02*
X138652Y564008D01*
X142652Y557341D01*
X146652Y564008D01*
X146652Y553341D01*
G54D11*
X114168Y781614D02*
X120568Y781614D01*
G54D11*
X117368Y781614D02*
X117368Y792281D01*
G54D11*
X114168Y792281D02*
X120568Y792281D01*
G54D11*
X124301Y781614D02*
X124301Y792281D01*
X130701Y781614D01*
X130701Y792281D01*
G54D11*
X137634Y781614D02*
X137634Y792281D01*
G54D11*
X134434Y792281D02*
X140834Y792281D01*
G54D11*
X150967Y790281D02*
X150967Y783614D01*
X150167Y782281D01*
X148567Y781614D01*
X146967Y781614D01*
X145367Y782281D01*
X144567Y783614D01*
X144567Y790281D01*
X145367Y791614D01*
X146967Y792281D01*
X148567Y792281D01*
X150167Y791614D01*
X150967Y790281D01*
G54D10*
X127000Y952500D02*
X228600Y952500D01*
X228600Y927100D01*
X127000Y927100D01*
X127000Y952500D01*
G54D10*
X317500Y825500D02*
X342900Y825500D01*
X342900Y749300D01*
X317500Y749300D01*
X317500Y825500D01*
G54D12*
X145003Y907429D02*
X145003Y920762D01*
X150003Y920762D01*
X152003Y919929D01*
X153003Y918262D01*
X153003Y909929D01*
X152003Y908262D01*
X150003Y907429D01*
X145003Y907429D01*
G54D12*
X156670Y907429D02*
X164670Y907429D01*
G54D12*
X160670Y907429D02*
X160670Y920762D01*
G54D12*
X156670Y920762D02*
X164670Y920762D01*
G54D12*
X168337Y907429D02*
X168337Y920762D01*
X173337Y912429D01*
X178337Y920762D01*
X178337Y907429D01*
G54D12*
X182004Y907429D02*
X182004Y920762D01*
X187004Y912429D01*
X192004Y920762D01*
X192004Y907429D01*
G54D12*
X202671Y907429D02*
X195671Y907429D01*
X195671Y920762D01*
X202671Y920762D01*
G54D12*
X195671Y914096D02*
X202671Y914096D01*
G54D12*
X210338Y914096D02*
X213338Y912429D01*
X214338Y910762D01*
X214338Y907429D01*
G54D12*
X206338Y907429D02*
X206338Y920762D01*
X211338Y920762D01*
X213338Y919929D01*
X214338Y918262D01*
X214338Y916596D01*
X213338Y914929D01*
X211338Y914096D01*
X206338Y914096D01*
G54D12*
X324409Y708042D02*
X337742Y713042D01*
X324409Y718042D01*
G54D12*
X337742Y721709D02*
X330242Y721709D01*
G54D12*
X331909Y721709D02*
X330242Y723709D01*
X330242Y725709D01*
G54D12*
X336909Y735376D02*
X337742Y733776D01*
X337742Y731776D01*
X336909Y729776D01*
X335242Y729376D01*
X332409Y729376D01*
X330742Y730376D01*
X330242Y732376D01*
X330742Y734376D01*
X331909Y735376D01*
X333575Y735376D01*
X333575Y729376D01*
G54D12*
X337742Y741043D02*
X325242Y741043D01*
X324409Y742043D01*
X324909Y743043D01*
G54D12*
X330242Y739043D02*
X330242Y743043D01*
G54D12*
X330200Y834200D02*
X330200Y838200D01*
X334367Y838200D01*
X336033Y837200D01*
X336867Y835200D01*
X336867Y833200D01*
X336033Y831200D01*
X334367Y830200D01*
X326033Y830200D01*
X324367Y831200D01*
X323533Y833200D01*
X323533Y835200D01*
X324367Y837200D01*
X326033Y838200D01*
G54D12*
X336867Y841867D02*
X323533Y841867D01*
X336867Y849867D01*
X323533Y849867D01*
G54D12*
X336867Y853534D02*
X323533Y853534D01*
X323533Y858534D01*
X324367Y860534D01*
X326033Y861534D01*
X334367Y861534D01*
X336033Y860534D01*
X336867Y858534D01*
X336867Y853534D01*
G54D12*
X301120Y787529D02*
X301120Y779529D01*
X306953Y779529D01*
X306953Y780529D01*
X306120Y782529D01*
X306120Y784529D01*
X306953Y786529D01*
X308620Y787529D01*
X311953Y787529D01*
X313620Y786529D01*
X314453Y784529D01*
X314453Y782529D01*
X313620Y780529D01*
X311953Y779529D01*
G54D12*
X301120Y791196D02*
X314453Y796196D01*
X301120Y801196D01*
G54D12*
X189949Y961833D02*
X189949Y965833D01*
X194116Y965833D01*
X195783Y964833D01*
X196616Y962833D01*
X196616Y960833D01*
X195783Y958833D01*
X194116Y957833D01*
X185783Y957833D01*
X184116Y958833D01*
X183283Y960833D01*
X183283Y962833D01*
X184116Y964833D01*
X185783Y965833D01*
G54D12*
X196616Y969500D02*
X183283Y969500D01*
X196616Y977500D01*
X183283Y977500D01*
G54D12*
X196616Y981167D02*
X183283Y981167D01*
X183283Y986167D01*
X184116Y988167D01*
X185783Y989167D01*
X194116Y989167D01*
X195783Y988167D01*
X196616Y986167D01*
X196616Y981167D01*
G54D12*
X160299Y955816D02*
X173632Y960816D01*
X160299Y965816D01*
G54D12*
X171132Y977483D02*
X172799Y976483D01*
X173632Y974483D01*
X173632Y972483D01*
X172799Y970483D01*
X171132Y969483D01*
X162799Y969483D01*
X161132Y970483D01*
X160299Y972483D01*
X160299Y974483D01*
X161132Y976483D01*
X162799Y977483D01*
G54D12*
X171132Y989150D02*
X172799Y988150D01*
X173632Y986150D01*
X173632Y984150D01*
X172799Y982150D01*
X171132Y981150D01*
X162799Y981150D01*
X161132Y982150D01*
X160299Y984150D01*
X160299Y986150D01*
X161132Y988150D01*
X162799Y989150D01*
G54D12*
X133283Y958639D02*
X133283Y966639D01*
X146616Y958639D01*
X146616Y966639D01*
G54D12*
X144116Y978306D02*
X145783Y977306D01*
X146616Y975306D01*
X146616Y973306D01*
X145783Y971306D01*
X144116Y970306D01*
X135783Y970306D01*
X134116Y971306D01*
X133283Y973306D01*
X133283Y975306D01*
X134116Y977306D01*
X135783Y978306D01*
G54D12*
X220406Y957833D02*
X207073Y957833D01*
X207073Y962833D01*
X207906Y964833D01*
X209573Y965833D01*
X217906Y965833D01*
X219573Y964833D01*
X220406Y962833D01*
X220406Y957833D01*
G54D12*
X220406Y969500D02*
X220406Y977500D01*
G54D12*
X220406Y973500D02*
X207073Y973500D01*
G54D12*
X207073Y969500D02*
X207073Y977500D01*
G54D12*
X220406Y981167D02*
X207073Y981167D01*
X215406Y986167D01*
X207073Y991167D01*
X220406Y991167D01*
G54D13*
X53950Y793800D02*
X34950Y793800D01*
X34950Y831800D01*
X53950Y831800D01*
X53950Y793800D01*
G54D13*
X44450Y793700D02*
X44450Y773100D01*
G54D13*
X44450Y852500D02*
X44450Y831900D01*
G54D13*
X225400Y793800D02*
X206400Y793800D01*
X206400Y831800D01*
X225400Y831800D01*
X225400Y793800D01*
G54D13*
X215900Y793700D02*
X215900Y773100D01*
G54D13*
X215900Y852500D02*
X215900Y831900D01*
M02*
