%FSLAX34Y34*%
%MOMM*%
%LNCOPPER_BOTTOM*%
G71*
G01*
%ADD10C, 2.00*%
%ADD11C, 4.00*%
%ADD12C, 2.00*%
%LPD*%
G36*
X91600Y893150D02*
X97450Y899000D01*
X105750Y899000D01*
X111600Y893150D01*
X111600Y884850D01*
X105750Y879000D01*
X97450Y879000D01*
X91600Y884850D01*
X91600Y893150D01*
G37*
G36*
X91600Y867750D02*
X97450Y873600D01*
X105750Y873600D01*
X111600Y867750D01*
X111600Y859450D01*
X105750Y853600D01*
X97450Y853600D01*
X91600Y859450D01*
X91600Y867750D01*
G37*
G36*
X91600Y842350D02*
X97450Y848200D01*
X105750Y848200D01*
X111600Y842350D01*
X111600Y834050D01*
X105750Y828200D01*
X97450Y828200D01*
X91600Y834050D01*
X91600Y842350D01*
G37*
G36*
X91600Y816950D02*
X97450Y822800D01*
X105750Y822800D01*
X111600Y816950D01*
X111600Y808650D01*
X105750Y802800D01*
X97450Y802800D01*
X91600Y808650D01*
X91600Y816950D01*
G37*
G36*
X91600Y791550D02*
X97450Y797400D01*
X105750Y797400D01*
X111600Y791550D01*
X111600Y783250D01*
X105750Y777400D01*
X97450Y777400D01*
X91600Y783250D01*
X91600Y791550D01*
G37*
G36*
X91600Y766150D02*
X97450Y772000D01*
X105750Y772000D01*
X111600Y766150D01*
X111600Y757850D01*
X105750Y752000D01*
X97450Y752000D01*
X91600Y757850D01*
X91600Y766150D01*
G37*
G36*
X91600Y740750D02*
X97450Y746600D01*
X105750Y746600D01*
X111600Y740750D01*
X111600Y732450D01*
X105750Y726600D01*
X97450Y726600D01*
X91600Y732450D01*
X91600Y740750D01*
G37*
G36*
X91600Y715350D02*
X97450Y721200D01*
X105750Y721200D01*
X111600Y715350D01*
X111600Y707050D01*
X105750Y701200D01*
X97450Y701200D01*
X91600Y707050D01*
X91600Y715350D01*
G37*
G36*
X91600Y689950D02*
X97450Y695800D01*
X105750Y695800D01*
X111600Y689950D01*
X111600Y681650D01*
X105750Y675800D01*
X97450Y675800D01*
X91600Y681650D01*
X91600Y689950D01*
G37*
G36*
X91600Y664550D02*
X97450Y670400D01*
X105750Y670400D01*
X111600Y664550D01*
X111600Y656250D01*
X105750Y650400D01*
X97450Y650400D01*
X91600Y656250D01*
X91600Y664550D01*
G37*
G36*
X91600Y639150D02*
X97450Y645000D01*
X105750Y645000D01*
X111600Y639150D01*
X111600Y630850D01*
X105750Y625000D01*
X97450Y625000D01*
X91600Y630850D01*
X91600Y639150D01*
G37*
G36*
X91600Y613750D02*
X97450Y619600D01*
X105750Y619600D01*
X111600Y613750D01*
X111600Y605450D01*
X105750Y599600D01*
X97450Y599600D01*
X91600Y605450D01*
X91600Y613750D01*
G37*
G36*
X91600Y588350D02*
X97450Y594200D01*
X105750Y594200D01*
X111600Y588350D01*
X111600Y580050D01*
X105750Y574200D01*
X97450Y574200D01*
X91600Y580050D01*
X91600Y588350D01*
G37*
G36*
X91600Y562950D02*
X97450Y568800D01*
X105750Y568800D01*
X111600Y562950D01*
X111600Y554650D01*
X105750Y548800D01*
X97450Y548800D01*
X91600Y554650D01*
X91600Y562950D01*
G37*
G36*
X91600Y537550D02*
X97450Y543400D01*
X105750Y543400D01*
X111600Y537550D01*
X111600Y529250D01*
X105750Y523400D01*
X97450Y523400D01*
X91600Y529250D01*
X91600Y537550D01*
G37*
G36*
X244000Y537550D02*
X249850Y543400D01*
X258150Y543400D01*
X264000Y537550D01*
X264000Y529250D01*
X258150Y523400D01*
X249850Y523400D01*
X244000Y529250D01*
X244000Y537550D01*
G37*
G36*
X244000Y893150D02*
X249850Y899000D01*
X258150Y899000D01*
X264000Y893150D01*
X264000Y884850D01*
X258150Y879000D01*
X249850Y879000D01*
X244000Y884850D01*
X244000Y893150D01*
G37*
G36*
X244000Y867750D02*
X249850Y873600D01*
X258150Y873600D01*
X264000Y867750D01*
X264000Y859450D01*
X258150Y853600D01*
X249850Y853600D01*
X244000Y859450D01*
X244000Y867750D01*
G37*
G36*
X244000Y842350D02*
X249850Y848200D01*
X258150Y848200D01*
X264000Y842350D01*
X264000Y834050D01*
X258150Y828200D01*
X249850Y828200D01*
X244000Y834050D01*
X244000Y842350D01*
G37*
G36*
X244000Y816950D02*
X249850Y822800D01*
X258150Y822800D01*
X264000Y816950D01*
X264000Y808650D01*
X258150Y802800D01*
X249850Y802800D01*
X244000Y808650D01*
X244000Y816950D01*
G37*
G36*
X244000Y791550D02*
X249850Y797400D01*
X258150Y797400D01*
X264000Y791550D01*
X264000Y783250D01*
X258150Y777400D01*
X249850Y777400D01*
X244000Y783250D01*
X244000Y791550D01*
G37*
G36*
X244000Y766150D02*
X249850Y772000D01*
X258150Y772000D01*
X264000Y766150D01*
X264000Y757850D01*
X258150Y752000D01*
X249850Y752000D01*
X244000Y757850D01*
X244000Y766150D01*
G37*
G36*
X244000Y740750D02*
X249850Y746600D01*
X258150Y746600D01*
X264000Y740750D01*
X264000Y732450D01*
X258150Y726600D01*
X249850Y726600D01*
X244000Y732450D01*
X244000Y740750D01*
G37*
G36*
X244000Y715350D02*
X249850Y721200D01*
X258150Y721200D01*
X264000Y715350D01*
X264000Y707050D01*
X258150Y701200D01*
X249850Y701200D01*
X244000Y707050D01*
X244000Y715350D01*
G37*
G36*
X244000Y689950D02*
X249850Y695800D01*
X258150Y695800D01*
X264000Y689950D01*
X264000Y681650D01*
X258150Y675800D01*
X249850Y675800D01*
X244000Y681650D01*
X244000Y689950D01*
G37*
G36*
X244000Y664550D02*
X249850Y670400D01*
X258150Y670400D01*
X264000Y664550D01*
X264000Y656250D01*
X258150Y650400D01*
X249850Y650400D01*
X244000Y656250D01*
X244000Y664550D01*
G37*
G36*
X244000Y639150D02*
X249850Y645000D01*
X258150Y645000D01*
X264000Y639150D01*
X264000Y630850D01*
X258150Y625000D01*
X249850Y625000D01*
X244000Y630850D01*
X244000Y639150D01*
G37*
G36*
X244000Y613750D02*
X249850Y619600D01*
X258150Y619600D01*
X264000Y613750D01*
X264000Y605450D01*
X258150Y599600D01*
X249850Y599600D01*
X244000Y605450D01*
X244000Y613750D01*
G37*
G36*
X244000Y588350D02*
X249850Y594200D01*
X258150Y594200D01*
X264000Y588350D01*
X264000Y580050D01*
X258150Y574200D01*
X249850Y574200D01*
X244000Y580050D01*
X244000Y588350D01*
G37*
G36*
X244000Y562950D02*
X249850Y568800D01*
X258150Y568800D01*
X264000Y562950D01*
X264000Y554650D01*
X258150Y548800D01*
X249850Y548800D01*
X244000Y554650D01*
X244000Y562950D01*
G37*
G36*
X320200Y766150D02*
X326050Y772000D01*
X334350Y772000D01*
X340200Y766150D01*
X340200Y757850D01*
X334350Y752000D01*
X326050Y752000D01*
X320200Y757850D01*
X320200Y766150D01*
G37*
G36*
X320200Y791550D02*
X326050Y797400D01*
X334350Y797400D01*
X340200Y791550D01*
X340200Y783250D01*
X334350Y777400D01*
X326050Y777400D01*
X320200Y783250D01*
X320200Y791550D01*
G37*
G36*
X320200Y816950D02*
X326050Y822800D01*
X334350Y822800D01*
X340200Y816950D01*
X340200Y808650D01*
X334350Y802800D01*
X326050Y802800D01*
X320200Y808650D01*
X320200Y816950D01*
G37*
G54D10*
X330200Y787400D02*
X317500Y787400D01*
X292100Y812800D01*
X254000Y812800D01*
G54D10*
X330200Y812800D02*
X330200Y838200D01*
X304800Y863600D01*
X254000Y863600D01*
G54D10*
X330200Y762000D02*
X254000Y762000D01*
G36*
X194650Y949800D02*
X200500Y943950D01*
X200500Y935650D01*
X194650Y929800D01*
X186350Y929800D01*
X180500Y935650D01*
X180500Y943950D01*
X186350Y949800D01*
X194650Y949800D01*
G37*
G36*
X169250Y949800D02*
X175100Y943950D01*
X175100Y935650D01*
X169250Y929800D01*
X160950Y929800D01*
X155100Y935650D01*
X155100Y943950D01*
X160950Y949800D01*
X169250Y949800D01*
G37*
G36*
X220050Y949800D02*
X225900Y943950D01*
X225900Y935650D01*
X220050Y929800D01*
X211750Y929800D01*
X205900Y935650D01*
X205900Y943950D01*
X211750Y949800D01*
X220050Y949800D01*
G37*
G36*
X143850Y949800D02*
X149700Y943950D01*
X149700Y935650D01*
X143850Y929800D01*
X135550Y929800D01*
X129700Y935650D01*
X129700Y943950D01*
X135550Y949800D01*
X143850Y949800D01*
G37*
G54D10*
X254000Y863600D02*
X215900Y863600D01*
X190500Y889000D01*
X190500Y939800D01*
G54D10*
X254000Y812800D02*
X228600Y812800D01*
X165100Y876300D01*
X165100Y939800D01*
G54D10*
X139700Y939800D02*
X139700Y800100D01*
X127000Y787400D01*
X101600Y787400D01*
X323850Y971550D02*
G54D11*
D03*
X323850Y533400D02*
G54D11*
D03*
X25400Y533400D02*
G54D11*
D03*
X25400Y971550D02*
G54D11*
D03*
X44450Y762000D02*
G54D12*
D03*
X44450Y863600D02*
G54D12*
D03*
G54D10*
X101600Y762000D02*
X44450Y762000D01*
G54D10*
X44450Y863600D02*
X44450Y844550D01*
X76200Y812800D01*
X101600Y812800D01*
G54D10*
X44450Y762000D02*
X12700Y762000D01*
X12700Y889000D01*
X101600Y977900D01*
X203200Y977900D01*
X215900Y965200D01*
X215900Y939800D01*
X215900Y762000D02*
G54D12*
D03*
X215900Y863600D02*
G54D12*
D03*
G54D10*
X215900Y762000D02*
X254000Y762000D01*
M02*
