%FSLAX34Y34*%
%MOMM*%
%LNSILK_TOP*%
G71*
G01*
%ADD10C, 0.09*%
%ADD11C, 0.10*%
%ADD12C, 0.14*%
%ADD13C, 0.20*%
%ADD14C, 0.60*%
%ADD15C, 0.14*%
%ADD16C, 0.00*%
%ADD17C, 0.11*%
%ADD18C, 0.40*%
%LPD*%
G54D10*
X61950Y942950D02*
X61950Y950050D01*
X64650Y945650D01*
X67250Y950050D01*
X67250Y942950D01*
G54D10*
X71350Y942950D02*
X71350Y950050D01*
G54D10*
X69250Y950050D02*
X73550Y950050D01*
G54D10*
X75550Y947350D02*
X78250Y950050D01*
X78250Y942950D01*
G54D10*
X115950Y942950D02*
X115950Y950050D01*
X118650Y945650D01*
X121250Y950050D01*
X121250Y942950D01*
G54D10*
X125350Y942950D02*
X125350Y950050D01*
G54D10*
X123250Y950050D02*
X127550Y950050D01*
G54D10*
X133850Y942950D02*
X129550Y942950D01*
X129550Y943350D01*
X130050Y944250D01*
X133250Y946950D01*
X133850Y947850D01*
X133850Y948750D01*
X133250Y949650D01*
X132250Y950050D01*
X131150Y950050D01*
X130050Y949650D01*
X129550Y948750D01*
G54D10*
X179950Y946550D02*
X182150Y946550D01*
X182150Y944250D01*
X181550Y943350D01*
X180550Y942950D01*
X179450Y942950D01*
X178350Y943350D01*
X177850Y944250D01*
X177850Y948750D01*
X178350Y949650D01*
X179450Y950050D01*
X180550Y950050D01*
X181550Y949650D01*
X182150Y948750D01*
G54D11*
X196850Y955650D02*
X53950Y955650D01*
X53950Y987350D01*
X196850Y987350D01*
X196850Y955650D01*
G36*
X53950Y987350D02*
X53950Y993750D01*
X196850Y993750D01*
X196850Y987350D01*
X53950Y987350D01*
G37*
G54D11*
X53950Y987350D02*
X53950Y993750D01*
X196850Y993750D01*
X196850Y987350D01*
X53950Y987350D01*
G54D11*
X73521Y849392D02*
X92521Y849392D01*
X92521Y811392D01*
X73521Y811392D01*
X73521Y849392D01*
G54D11*
X83021Y849492D02*
X83021Y882792D01*
G54D11*
X83021Y777992D02*
X83021Y811292D01*
G54D12*
X78735Y840693D02*
X81335Y839248D01*
X82202Y837804D01*
X82202Y834915D01*
G54D12*
X75268Y834915D02*
X75268Y846470D01*
X79602Y846470D01*
X81335Y845748D01*
X82202Y844304D01*
X82202Y842859D01*
X81335Y841415D01*
X79602Y840693D01*
X75268Y840693D01*
G54D12*
X85379Y842137D02*
X89713Y846470D01*
X89713Y834915D01*
G54D12*
X75903Y823685D02*
X80237Y828019D01*
X80237Y816463D01*
G54D12*
X83414Y816463D02*
X83414Y828019D01*
G54D12*
X86014Y820796D02*
X88614Y816463D01*
G54D12*
X83414Y819352D02*
X88614Y822963D01*
G54D11*
X234900Y841350D02*
X234900Y822350D01*
X196900Y822350D01*
X196900Y841350D01*
X234900Y841350D01*
G54D11*
X235000Y831850D02*
X268300Y831850D01*
G54D11*
X163500Y831850D02*
X196800Y831850D01*
G54D12*
X210490Y831983D02*
X213090Y830539D01*
X213956Y829094D01*
X213956Y826205D01*
G54D12*
X207023Y826205D02*
X207023Y837761D01*
X211356Y837761D01*
X213090Y837039D01*
X213956Y835594D01*
X213956Y834150D01*
X213090Y832705D01*
X211356Y831983D01*
X207023Y831983D01*
G54D12*
X217134Y835594D02*
X218001Y837039D01*
X219734Y837761D01*
X221467Y837761D01*
X223201Y837039D01*
X224067Y835594D01*
X224067Y834150D01*
X223201Y832705D01*
X221467Y831983D01*
X223201Y831261D01*
X224067Y829816D01*
X224067Y828372D01*
X223201Y826927D01*
X221467Y826205D01*
X219734Y826205D01*
X218001Y826927D01*
X217134Y828372D01*
G54D12*
X220130Y855848D02*
X213196Y855848D01*
X213196Y850792D01*
X214063Y850792D01*
X215796Y851514D01*
X217530Y851514D01*
X219263Y850792D01*
X220130Y849348D01*
X220130Y846459D01*
X219263Y845014D01*
X217530Y844292D01*
X215796Y844292D01*
X214063Y845014D01*
X213196Y846459D01*
G54D12*
X223307Y851514D02*
X227641Y855848D01*
X227641Y844292D01*
G54D12*
X230818Y844292D02*
X230818Y855848D01*
G54D12*
X233418Y848626D02*
X236018Y844292D01*
G54D12*
X230818Y847181D02*
X236018Y850792D01*
G54D11*
X209500Y911200D02*
X209500Y892200D01*
X171500Y892200D01*
X171500Y911200D01*
X209500Y911200D01*
G54D11*
X209600Y901700D02*
X242900Y901700D01*
G54D11*
X138100Y901700D02*
X171400Y901700D01*
G54D12*
X185090Y901833D02*
X187690Y900389D01*
X188556Y898944D01*
X188556Y896055D01*
G54D12*
X181623Y896055D02*
X181623Y907611D01*
X185956Y907611D01*
X187690Y906889D01*
X188556Y905444D01*
X188556Y904000D01*
X187690Y902555D01*
X185956Y901833D01*
X181623Y901833D01*
G54D12*
X198668Y896055D02*
X191734Y896055D01*
X191734Y896777D01*
X192601Y898222D01*
X197801Y902555D01*
X198668Y904000D01*
X198668Y905444D01*
X197801Y906889D01*
X196068Y907611D01*
X194334Y907611D01*
X192601Y906889D01*
X191734Y905444D01*
G54D12*
X190534Y924299D02*
X183601Y924299D01*
X183601Y919243D01*
X184467Y919243D01*
X186201Y919965D01*
X187934Y919965D01*
X189667Y919243D01*
X190534Y917799D01*
X190534Y914910D01*
X189667Y913465D01*
X187934Y912743D01*
X186201Y912743D01*
X184467Y913465D01*
X183601Y914910D01*
G54D12*
X193712Y919965D02*
X198045Y924299D01*
X198045Y912743D01*
G54D12*
X201223Y912743D02*
X201223Y924299D01*
G54D12*
X203823Y917076D02*
X206423Y912743D01*
G54D12*
X201223Y915632D02*
X206423Y919243D01*
G54D13*
X241500Y795100D02*
X241500Y730100D01*
X291500Y730100D01*
X291500Y795100D01*
X241500Y795100D01*
G54D13*
X279000Y800100D02*
X279000Y795100D01*
G54D13*
X254000Y800100D02*
X254000Y795100D01*
G54D13*
X279000Y730100D02*
X279000Y725100D01*
G54D13*
X254000Y730100D02*
X254000Y725100D01*
G54D14*
G75*
G01X282000Y780100D02*
G03X282000Y780100I-3000J0D01*
G01*
G54D15*
X3261Y852973D02*
X3261Y857473D01*
G54D15*
X3261Y858973D02*
X3261Y858973D01*
G54D15*
X6061Y852973D02*
X6061Y857473D01*
G54D15*
X6061Y856473D02*
X6661Y857173D01*
X7861Y857473D01*
X9061Y857173D01*
X9661Y856473D01*
X9661Y852973D01*
G54D15*
X15381Y856473D02*
X15861Y857173D01*
X16581Y857573D01*
X17541Y857573D01*
X18261Y857173D01*
X18861Y856473D01*
X19341Y855773D01*
X20061Y855373D01*
X21141Y855373D01*
X21741Y855773D01*
X22221Y856473D01*
G54D15*
X27941Y852973D02*
X27941Y860973D01*
X32741Y852973D01*
X32741Y860973D01*
G54D15*
X6325Y782622D02*
X6325Y784622D01*
X5725Y785622D01*
X4525Y785922D01*
X3325Y785622D01*
X2725Y784622D01*
X2725Y782622D01*
X3325Y781622D01*
X4525Y781422D01*
X5725Y781622D01*
X6325Y782622D01*
G54D15*
X12725Y785922D02*
X12725Y781422D01*
G54D15*
X12725Y782422D02*
X12125Y781622D01*
X10925Y781422D01*
X9725Y781622D01*
X9125Y782422D01*
X9125Y785922D01*
G54D15*
X16725Y789422D02*
X16725Y781922D01*
X17325Y781422D01*
X17925Y781622D01*
G54D15*
X15525Y785922D02*
X17925Y785922D01*
G54D15*
X23645Y784922D02*
X24125Y785622D01*
X24845Y786022D01*
X25805Y786022D01*
X26525Y785622D01*
X27125Y784922D01*
X27605Y784222D01*
X28325Y783822D01*
X29405Y783822D01*
X30005Y784222D01*
X30485Y784922D01*
G54D15*
X36205Y781422D02*
X36205Y789422D01*
X41005Y781422D01*
X41005Y789422D01*
G54D15*
X6457Y956959D02*
X6457Y958959D01*
X5857Y959959D01*
X4657Y960259D01*
X3457Y959959D01*
X2857Y958959D01*
X2857Y956959D01*
X3457Y955959D01*
X4657Y955759D01*
X5857Y955959D01*
X6457Y956959D01*
G54D15*
X12857Y960259D02*
X12857Y955759D01*
G54D15*
X12857Y956759D02*
X12257Y955959D01*
X11057Y955759D01*
X9857Y955959D01*
X9257Y956759D01*
X9257Y960259D01*
G54D15*
X16857Y963759D02*
X16857Y956259D01*
X17457Y955759D01*
X18057Y955959D01*
G54D15*
X15657Y960259D02*
X18057Y960259D01*
G54D15*
X23777Y959259D02*
X24257Y959959D01*
X24977Y960359D01*
X25937Y960359D01*
X26657Y959959D01*
X27257Y959259D01*
X27737Y958559D01*
X28457Y958159D01*
X29537Y958159D01*
X30137Y958559D01*
X30617Y959259D01*
G54D15*
X36337Y963759D02*
X36337Y955759D01*
X40537Y955759D01*
G54D11*
X28600Y730200D02*
X47600Y730200D01*
X47600Y692200D01*
X28600Y692200D01*
X28600Y730200D01*
G54D11*
X38100Y730300D02*
X38100Y738200D01*
G54D11*
X38100Y692200D02*
X38100Y684300D01*
G54D12*
X54675Y715260D02*
X57275Y713815D01*
X58142Y712371D01*
X58142Y709482D01*
G54D12*
X51209Y709482D02*
X51209Y721037D01*
X55542Y721037D01*
X57275Y720315D01*
X58142Y718871D01*
X58142Y717426D01*
X57275Y715982D01*
X55542Y715260D01*
X51209Y715260D01*
G54D12*
X66520Y709482D02*
X66520Y721037D01*
X61320Y713815D01*
X61320Y712371D01*
X68253Y712371D01*
G54D12*
X57688Y695332D02*
X50754Y695332D01*
X50754Y696054D01*
X51621Y697499D01*
X56821Y701832D01*
X57688Y703276D01*
X57688Y704721D01*
X56821Y706165D01*
X55088Y706888D01*
X53354Y706888D01*
X51621Y706165D01*
X50754Y704721D01*
G54D12*
X67799Y695332D02*
X60865Y695332D01*
X60865Y696054D01*
X61732Y697499D01*
X66932Y701832D01*
X67799Y703276D01*
X67799Y704721D01*
X66932Y706165D01*
X65199Y706888D01*
X63465Y706888D01*
X61732Y706165D01*
X60865Y704721D01*
G54D12*
X77910Y704721D02*
X77910Y697499D01*
X77043Y696054D01*
X75310Y695332D01*
X73576Y695332D01*
X71843Y696054D01*
X70976Y697499D01*
X70976Y704721D01*
X71843Y706165D01*
X73576Y706888D01*
X75310Y706888D01*
X77043Y706165D01*
X77910Y704721D01*
G54D15*
X111854Y641253D02*
X111854Y649253D01*
X114854Y649253D01*
X116054Y648753D01*
X116654Y647753D01*
X116654Y642753D01*
X116054Y641753D01*
X114854Y641253D01*
X111854Y641253D01*
G54D15*
X119454Y641253D02*
X124254Y641253D01*
G54D15*
X121854Y641253D02*
X121854Y649253D01*
G54D15*
X119454Y649253D02*
X124254Y649253D01*
G54D15*
X127054Y641253D02*
X127054Y649253D01*
X130054Y644253D01*
X133054Y649253D01*
X133054Y641253D01*
G54D15*
X143658Y645091D02*
X146058Y645091D01*
X146058Y642591D01*
X145458Y641591D01*
X144258Y641091D01*
X143058Y641091D01*
X141858Y641591D01*
X141258Y642591D01*
X141258Y647591D01*
X141858Y648591D01*
X143058Y649091D01*
X144258Y649091D01*
X145458Y648591D01*
X146058Y647591D01*
G54D15*
X148858Y641091D02*
X148858Y649091D01*
X153658Y641091D01*
X153658Y649091D01*
G54D15*
X156458Y641091D02*
X156458Y649091D01*
X159458Y649091D01*
X160658Y648591D01*
X161258Y647591D01*
X161258Y642591D01*
X160658Y641591D01*
X159458Y641091D01*
X156458Y641091D01*
G54D15*
X196404Y649433D02*
X201204Y649433D01*
X196404Y641433D01*
X201204Y641433D01*
G54D15*
X208804Y642933D02*
X208204Y641933D01*
X207004Y641433D01*
X205804Y641433D01*
X204604Y641933D01*
X204004Y642933D01*
X204004Y647933D01*
X204604Y648933D01*
X205804Y649433D01*
X207004Y649433D01*
X208204Y648933D01*
X208804Y647933D01*
G54D11*
X260300Y708000D02*
X260300Y689000D01*
X222300Y689000D01*
X222300Y708000D01*
X260300Y708000D01*
G54D11*
X260400Y698500D02*
X268300Y698500D01*
G54D11*
X222300Y698500D02*
X214400Y698500D01*
G54D12*
X228656Y699956D02*
X231256Y698511D01*
X232123Y697067D01*
X232123Y694178D01*
G54D12*
X225190Y694178D02*
X225190Y705733D01*
X229523Y705733D01*
X231256Y705011D01*
X232123Y703567D01*
X232123Y702122D01*
X231256Y700678D01*
X229523Y699956D01*
X225190Y699956D01*
G54D12*
X242234Y705733D02*
X235301Y705733D01*
X235301Y700678D01*
X236167Y700678D01*
X237901Y701400D01*
X239634Y701400D01*
X241367Y700678D01*
X242234Y699233D01*
X242234Y696344D01*
X241367Y694900D01*
X239634Y694178D01*
X237901Y694178D01*
X236167Y694900D01*
X235301Y696344D01*
G54D12*
X220356Y718621D02*
X224689Y722954D01*
X224689Y711399D01*
G54D12*
X234800Y720787D02*
X234800Y713565D01*
X233934Y712121D01*
X232200Y711399D01*
X230467Y711399D01*
X228734Y712121D01*
X227867Y713565D01*
X227867Y720787D01*
X228734Y722232D01*
X230467Y722954D01*
X232200Y722954D01*
X233934Y722232D01*
X234800Y720787D01*
G54D12*
X237978Y711399D02*
X237978Y722954D01*
G54D12*
X240578Y715732D02*
X243178Y711399D01*
G54D12*
X237978Y714287D02*
X243178Y717899D01*
G54D15*
X266933Y786551D02*
X269933Y789551D01*
X269933Y781551D01*
G54D15*
X253359Y781552D02*
X248559Y781552D01*
X248559Y782052D01*
X249159Y783052D01*
X252759Y786052D01*
X253359Y787052D01*
X253359Y788052D01*
X252759Y789052D01*
X251559Y789552D01*
X250359Y789552D01*
X249159Y789052D01*
X248559Y788052D01*
G54D15*
X247650Y743100D02*
X248250Y744100D01*
X249450Y744600D01*
X250650Y744600D01*
X251850Y744100D01*
X252450Y743100D01*
X252450Y742100D01*
X251850Y741100D01*
X250650Y740600D01*
X251850Y740100D01*
X252450Y739100D01*
X252450Y738100D01*
X251850Y737100D01*
X250650Y736600D01*
X249450Y736600D01*
X248250Y737100D01*
X247650Y738100D01*
G54D15*
X283000Y736600D02*
X283000Y744600D01*
X279400Y739600D01*
X279400Y738600D01*
X284200Y738600D01*
G54D15*
X9568Y910216D02*
X9568Y914716D01*
G54D15*
X9568Y916216D02*
X9568Y916216D01*
G54D15*
X12368Y910216D02*
X12368Y914716D01*
G54D15*
X12368Y913716D02*
X12968Y914416D01*
X14168Y914716D01*
X15368Y914416D01*
X15968Y913716D01*
X15968Y910216D01*
G54D15*
X21688Y913716D02*
X22168Y914416D01*
X22888Y914816D01*
X23848Y914816D01*
X24568Y914416D01*
X25168Y913716D01*
X25648Y913016D01*
X26368Y912616D01*
X27448Y912616D01*
X28048Y913016D01*
X28528Y913716D01*
G54D15*
X34248Y918216D02*
X34248Y910216D01*
X38448Y910216D01*
G54D15*
X167224Y649011D02*
X170224Y641011D01*
X173224Y649011D01*
G54D15*
X180824Y642511D02*
X180224Y641511D01*
X179024Y641011D01*
X177824Y641011D01*
X176624Y641511D01*
X176024Y642511D01*
X176024Y647511D01*
X176624Y648511D01*
X177824Y649011D01*
X179024Y649011D01*
X180224Y648511D01*
X180824Y647511D01*
G54D15*
X188424Y642511D02*
X187824Y641511D01*
X186624Y641011D01*
X185424Y641011D01*
X184224Y641511D01*
X183624Y642511D01*
X183624Y647511D01*
X184224Y648511D01*
X185424Y649011D01*
X186624Y649011D01*
X187824Y648511D01*
X188424Y647511D01*
G54D16*
X139200Y762500D02*
X139200Y762500D01*
G54D13*
X114300Y768400D02*
X114300Y800200D01*
G54D13*
X114300Y768400D02*
X127000Y768400D01*
G54D13*
X127000Y755800D02*
X127000Y768400D01*
G54D13*
X114300Y755800D02*
X127000Y755800D01*
G54D13*
X114300Y724000D02*
X114300Y755800D01*
G54D13*
X114300Y723900D02*
X190500Y723900D01*
G54D13*
X190500Y723900D02*
X190500Y800100D01*
G54D13*
X114300Y800100D02*
X190500Y800100D01*
G54D11*
X139650Y736500D02*
X139650Y749300D01*
G54D11*
X127000Y730200D02*
X127000Y742900D01*
X133400Y742900D01*
X152400Y742900D01*
X152400Y723800D01*
G36*
X133400Y736500D02*
X133400Y749300D01*
X139600Y742900D01*
X133400Y736500D01*
G37*
G54D11*
X133400Y736500D02*
X133400Y749300D01*
X139600Y742900D01*
X133400Y736500D01*
G54D11*
X152400Y761900D02*
X152400Y774700D01*
X158800Y768300D01*
X152400Y761900D01*
X152400Y761900D01*
G54D11*
X158800Y774700D02*
X158800Y787300D01*
X152400Y781000D01*
X158800Y774700D01*
G54D11*
X158800Y761900D02*
X158800Y774700D01*
G54D11*
X152400Y774700D02*
X152400Y787300D01*
G54D11*
X158800Y774700D02*
X177800Y774700D01*
X177800Y793700D01*
G54D11*
X152400Y774700D02*
X127000Y774700D01*
X127000Y800100D01*
G54D11*
X158650Y749300D02*
X164950Y755600D01*
X164950Y749300D01*
X164950Y752450D01*
X164950Y755600D01*
X158650Y755600D01*
G54D11*
X152350Y755600D02*
X146050Y749300D01*
X152350Y755600D01*
X146050Y755600D01*
X152350Y755600D01*
X152350Y749300D01*
G36*
X152400Y761900D02*
X152400Y774700D01*
X158800Y768300D01*
X152400Y761900D01*
G37*
G54D11*
X152400Y761900D02*
X152400Y774700D01*
X158800Y768300D01*
X152400Y761900D01*
G36*
X152400Y781000D02*
X158800Y774700D01*
X158800Y787300D01*
X152400Y781000D01*
G37*
G54D11*
X152400Y781000D02*
X158800Y774700D01*
X158800Y787300D01*
X152400Y781000D01*
G54D17*
X123300Y709300D02*
X120000Y712600D01*
X128900Y712600D01*
G54D17*
X186000Y814800D02*
X177100Y814800D01*
X182700Y810800D01*
X183800Y810800D01*
X183800Y816100D01*
G54D17*
X121700Y816300D02*
X120600Y815700D01*
X120000Y814300D01*
X120000Y813000D01*
X120600Y811700D01*
X121700Y811000D01*
X124500Y811000D01*
X125000Y811000D01*
X123900Y813000D01*
X123900Y814300D01*
X124500Y815700D01*
X125600Y816300D01*
X127200Y816300D01*
X128300Y815700D01*
X128900Y814300D01*
X128900Y813000D01*
X128300Y811700D01*
X127200Y811000D01*
X124500Y811000D01*
G54D11*
X155700Y712900D02*
X155700Y708100D01*
X155200Y708100D01*
X154200Y708700D01*
X151200Y712300D01*
X150200Y712900D01*
X149200Y712900D01*
X148200Y712300D01*
X147700Y711100D01*
X147700Y709900D01*
X148200Y708700D01*
X149200Y708100D01*
G54D17*
X203333Y741100D02*
X204444Y741767D01*
X205000Y743100D01*
X205000Y744433D01*
X204444Y745767D01*
X203333Y746433D01*
X202222Y746433D01*
X201111Y745767D01*
X200556Y744433D01*
X200556Y743100D01*
X200000Y741767D01*
X198889Y741100D01*
X197778Y741100D01*
X196667Y741767D01*
X196111Y743100D01*
X196111Y744433D01*
X196667Y745767D01*
X197778Y746433D01*
G54D17*
X205000Y754133D02*
X205000Y748800D01*
X204444Y748800D01*
X203333Y749467D01*
X200000Y753467D01*
X198889Y754133D01*
X197778Y754133D01*
X196667Y753467D01*
X196111Y752133D01*
X196111Y750800D01*
X196667Y749467D01*
X197778Y748800D01*
G54D17*
X199444Y756500D02*
X196111Y759833D01*
X205000Y759833D01*
G54D17*
X205000Y762200D02*
X196111Y762200D01*
X201667Y765533D01*
X196111Y768867D01*
X205000Y768867D01*
G54D17*
X205000Y771300D02*
X196111Y771300D01*
X196111Y774633D01*
X196667Y775967D01*
X197778Y776633D01*
X203333Y776633D01*
X204444Y775967D01*
X205000Y774633D01*
X205000Y771300D01*
G54D17*
X197778Y779000D02*
X196667Y779667D01*
X196111Y781000D01*
X196111Y782333D01*
X196667Y783667D01*
X197778Y784333D01*
X198889Y784333D01*
X200000Y783667D01*
X200556Y782333D01*
X201111Y783667D01*
X202222Y784333D01*
X203333Y784333D01*
X204444Y783667D01*
X205000Y782333D01*
X205000Y781000D01*
X204444Y779667D01*
X203333Y779000D01*
G54D17*
X196111Y786700D02*
X205000Y790033D01*
X196111Y793367D01*
G54D18*
X114300Y609600D02*
X215900Y609600D01*
X215900Y635000D01*
X114300Y635000D01*
X114300Y609600D01*
M02*
