%FSLAX34Y34*%
%MOMM*%
%LNCOPPER_BOTTOM*%
G71*
G01*
%ADD10C, 3.00*%
%ADD11C, 1.80*%
%ADD12C, 2.00*%
%ADD13C, 1.80*%
%ADD14C, 1.50*%
%ADD15C, 3.00*%
%ADD16C, 4.00*%
%ADD17C, 2.00*%
%ADD18C, 2.00*%
%ADD19C, 4.00*%
%ADD20C, 4.00*%
%ADD21C, 4.00*%
%LPD*%
X69850Y971550D02*
G54D10*
D03*
X123850Y971550D02*
G54D10*
D03*
X177850Y971550D02*
G54D10*
D03*
X83021Y893892D02*
G54D11*
D03*
X83021Y766892D02*
G54D11*
D03*
X279400Y831850D02*
G54D11*
D03*
X152400Y831850D02*
G54D11*
D03*
X254000Y901700D02*
G54D11*
D03*
X127000Y901700D02*
G54D11*
D03*
G54D12*
X177800Y800100D02*
X209550Y831850D01*
X209550Y927050D01*
X209600Y927100D01*
X279000Y800100D02*
G54D13*
D03*
X279000Y725100D02*
G54D13*
D03*
X254000Y725100D02*
G54D13*
D03*
X254000Y800100D02*
G54D13*
D03*
G54D12*
X279000Y800100D02*
X279400Y831850D01*
G54D12*
X254000Y800100D02*
X254000Y901700D01*
G54D14*
X127000Y889000D02*
X88900Y889000D01*
X25400Y844550D02*
G54D15*
D03*
X25400Y901700D02*
G54D10*
D03*
X25400Y800100D02*
G54D15*
D03*
G54D12*
X83021Y766892D02*
X82550Y787400D01*
X127000Y800100D01*
G54D16*
X25400Y800100D02*
X25400Y844550D01*
G54D12*
X152400Y831850D02*
X38100Y831850D01*
G54D12*
X152400Y723900D02*
X152400Y749300D01*
X165100Y762000D01*
X241300Y762000D01*
X254000Y749300D01*
X254000Y725100D01*
X38100Y749300D02*
G54D17*
D03*
X38100Y673100D02*
G54D17*
D03*
G54D12*
X38100Y749300D02*
X63500Y723900D01*
X127000Y723900D01*
G36*
X117000Y626450D02*
X122850Y632300D01*
X131150Y632300D01*
X137000Y626450D01*
X137000Y618150D01*
X131150Y612300D01*
X122850Y612300D01*
X117000Y618150D01*
X117000Y626450D01*
G37*
G54D12*
X38100Y673100D02*
X127000Y673100D01*
G36*
X142400Y626450D02*
X148250Y632300D01*
X156550Y632300D01*
X162400Y626450D01*
X162400Y618150D01*
X156550Y612300D01*
X148250Y612300D01*
X142400Y618150D01*
X142400Y626450D01*
G37*
G54D12*
X152400Y673100D02*
X152400Y723900D01*
X203200Y622300D02*
G54D18*
D03*
G36*
X167800Y626450D02*
X173650Y632300D01*
X181950Y632300D01*
X187800Y626450D01*
X187800Y618150D01*
X181950Y612300D01*
X173650Y612300D01*
X167800Y618150D01*
X167800Y626450D01*
G37*
X279400Y698500D02*
G54D17*
D03*
X203200Y698500D02*
G54D17*
D03*
G54D12*
X177800Y673100D02*
X177800Y698500D01*
X203200Y698500D01*
G54D12*
X203200Y673100D02*
X279400Y673100D01*
X279400Y698500D01*
X279400Y724700D01*
X279000Y725100D01*
G36*
X118000Y714900D02*
X118000Y732900D01*
X136000Y732900D01*
X136000Y714900D01*
X118000Y714900D01*
G37*
X152400Y723900D02*
G54D13*
D03*
X177800Y723900D02*
G54D13*
D03*
X127000Y800100D02*
G54D13*
D03*
X152400Y800100D02*
G54D13*
D03*
X177800Y800100D02*
G54D13*
D03*
G54D12*
X209550Y927050D02*
X209550Y952550D01*
X177850Y971550D01*
X25400Y971550D02*
G54D15*
D03*
G54D16*
X25400Y971550D02*
X69850Y971550D01*
G36*
X25400Y914400D02*
X88900Y914400D01*
X114300Y939800D01*
X114300Y977900D01*
X133350Y977900D01*
X133350Y895350D01*
X127000Y889000D01*
X25400Y889000D01*
X25400Y914400D01*
G37*
G54D14*
X25400Y914400D02*
X88900Y914400D01*
X114300Y939800D01*
X114300Y977900D01*
X133350Y977900D01*
X133350Y895350D01*
X127000Y889000D01*
X25400Y889000D01*
X25400Y914400D01*
X25400Y901700D02*
G54D19*
D03*
X123850Y971550D02*
G54D20*
D03*
X177850Y971550D02*
G54D20*
D03*
X317838Y970445D02*
G54D21*
D03*
X317488Y623811D02*
G54D21*
D03*
X37513Y625210D02*
G54D21*
D03*
G54D12*
X127000Y622300D02*
X127000Y673100D01*
G54D12*
X152400Y622300D02*
X152400Y673100D01*
G54D12*
X177800Y622300D02*
X177800Y673100D01*
G54D12*
X203200Y622300D02*
X203200Y673100D01*
M02*
